SplineFontDB: 1.0
FontName: DejaVuSans-BoldOblique
FullName: DejaVu Sans Bold Oblique
FamilyName: DejaVu Sans
Weight: Bold
Copyright: Copyright (c) 2003 by Bitstream, Inc. All Rights Reserved.\nDejaVu changes are in public domain\n
Version: 1.8
ItalicAngle: -11
UnderlinePosition: -227
UnderlineWidth: 258
Ascent: 1556
Descent: 492
Order2: 1
NeedsXUIDChange: 1
FSType: 4
PfmFamily: 17
TTFWeight: 700
TTFWidth: 5
Panose: 2 11 8 3 3 3 4 11 2 4
LineGap: 410
VLineGap: 0
OS2TypoAscent: 1556
OS2TypoDescent: -492
OS2TypoLinegap: 0
OS2WinAscent: 1901
OS2WinAOffset: 0
OS2WinDescent: 483
OS2WinDOffset: 0
HheadAscent: 1901
HheadAOffset: 0
HheadDescent: -483
HheadDOffset: 0
ScriptLang: 2
 1 latn 1 dflt 
 1 DFLT 1 dflt 
TtfTable: prep 1387
\,q1Gs5*_Wh%9bE('E=F3X+:;"55d<fjk3;]*$[a"4eLqeJSJ=rWCXK"4I/NdJa6prWCKl%L(2X
"3qAYbK>5:bPhUdI07U4N!7?&"3J=]aN%EeaG^5BJ-<p4-3_Fm"33Y0`[1f,rWC+8"2k*?_YOAN
$j4=r"Mk!=^\S&HI07/H"2+U8]"'?q])DfB/-EE]"1P^/"h/m^[RUG-q?+,("1.t/ZMjs2]*#;:
"0WaJY5SO*X9o-5rWB5/"0=`jX/ZL1X"jdW$3R:("/o?<"fVD&VtpLmq?*Qs('UQ6"/PnuU](@i
q?*Fa(^6UD"/$J5T4f8LT4A%q5l[B$"ePPmSL"B.=V_12q?*4U'EssA".GVh"e$,-R1KIfQO<ta
+9Rr<".#2u"d\ueQ!"k+PpHNsP8"1b-3KHp&d=I5"-O9!O]`G'OW=Oc'EaDV]*48p"-/@H"cg1s
Ndq7lN$SXe>m$'O"H4W/MuEg9A-7Zj&-[pi",Ip!LP@hnL\_+-F;kC<3Wk(h)?kgM",):="b[cr
K7XU;K+S3;JID^6%g.@k"+XMi"b?RSJ,TP!'a&js"+:(MHi=+nrW@E^"*b[cG8::(F;kC,q?(k^
)[1B\"*@Z]"`t[cF'07^F+".2rW@-e"*"5ADuKiVrW@!E"$lm&rW?qN%L$YI")8;JC-Vo9BH@=k
q?(D6('S@m"(taP"_[Z6Am>`JAfLnarW?\@]*2aE"(PeG"_5.H@t4\k=!\#Z>m"P$"C_93?sbMi
@/^78/d#E_('S"c"'o.?"^N5Q>RU^==V_0F9*8@#('Rn@"'J_;"^)TC=:bR9,m.3I"',=&<;ltu
rW?'t"&]%":erA@:mM2Z,m-mR"&8as9`>,erW>dh"%i=k8-oAh5QjPFV?KHg"%B'h6phms7/@!Q
)ZrGm"@?W$69kZ>I02b6"$\t#"[4I>4o,7CrW>7]"$6D`3A_-J3AL[rrW>)7"#`"D"ZAXGrW>"b
"#W=H1c#IB1^jIB$3N'_"#0oj"YkE-0J=@K0Ot8=";(ej)Zq_l""j?O/1VSA/5$'q";(ef)$;>k
&HsXW"">W."Xt8j-mo?*-k6>,$3MUd"!o3&"XPo+,Rso$+qOo&'E]Nj"!J1$"X3^E+9;fQ+>O$@
(]tjF"<JQj"We0V*=;lg#m2/4"<.t7"WNa0)@n+t)IrpfrW=!J!uLq=()6od'Fk9]&H`^W!tu;.

StartChar: .notdef
Encoding: 0 -1 0
Width: 1229
Flags: W
Fore
102 -362 m 1,0,-1
 102 1444 l 1,1,-1
 1126 1444 l 1,2,-1
 1126 -362 l 1,3,-1
 102 -362 l 1,0,-1
217 -248 m 1,4,-1
 1012 -248 l 1,5,-1
 1012 1329 l 1,6,-1
 217 1329 l 1,7,-1
 217 -248 l 1,4,-1
EndSplineSet
EndChar
StartChar: exclam
Encoding: 33 33 4
Width: 934
Flags: W
Fore
432 1493 m 1,0,-1
 793 1493 l 1,1,-1
 680 920 l 1,2,-1
 549 502 l 1,3,-1
 291 502 l 1,4,-1
 319 920 l 1,5,-1
 432 1493 l 1,0,-1
211 356 m 1,6,-1
 571 356 l 1,7,-1
 502 0 l 1,8,-1
 141 0 l 1,9,-1
 211 356 l 1,6,-1
EndSplineSet
EndChar
StartChar: quotedbl
Encoding: 34 34 5
Width: 1067
Flags: W
Fore
872 1493 m 1,0,-1
 872 938 l 1,1,-1
 635 938 l 1,2,-1
 635 1493 l 1,3,-1
 872 1493 l 1,0,-1
432 1493 m 1,4,-1
 432 938 l 1,5,-1
 195 938 l 1,6,-1
 195 1493 l 1,7,-1
 432 1493 l 1,4,-1
EndSplineSet
EndChar
StartChar: numbersign
Encoding: 35 35 6
Width: 1425
Flags: W
Fore
1024 872 m 1,0,-1
 760 872 l 1,1,-1
 690 598 l 1,2,-1
 954 598 l 1,3,-1
 1024 872 l 1,0,-1
911 1470 m 1,4,-1
 815 1085 l 1,5,-1
 1079 1085 l 1,6,-1
 1176 1470 l 1,7,-1
 1397 1470 l 1,8,-1
 1300 1085 l 1,9,-1
 1597 1085 l 1,10,-1
 1544 872 l 1,11,-1
 1247 872 l 1,12,-1
 1178 598 l 1,13,-1
 1475 598 l 1,14,-1
 1421 383 l 1,15,-1
 1126 383 l 1,16,-1
 1030 0 l 1,17,-1
 809 0 l 1,18,-1
 905 383 l 1,19,-1
 641 383 l 1,20,-1
 545 0 l 1,21,-1
 322 0 l 1,22,-1
 418 383 l 1,23,-1
 133 383 l 1,24,-1
 186 598 l 1,25,-1
 467 598 l 1,26,-1
 537 872 l 1,27,-1
 254 872 l 1,28,-1
 307 1085 l 1,29,-1
 592 1085 l 1,30,-1
 688 1470 l 1,31,-1
 911 1470 l 1,4,-1
EndSplineSet
EndChar
StartChar: dollar
Encoding: 36 36 7
Width: 1425
Flags: W
Fore
596 -301 m 1,0,-1
 434 -301 l 1,1,-1
 493 0 l 1,2,3
 366 5 366 5 257 26.5 c 128,-1,4
 148 48 148 48 55 86 c 1,5,-1
 104 348 l 1,6,7
 200 293 200 293 308.5 262.5 c 128,-1,8
 417 232 417 232 537 228 c 1,9,-1
 598 539 l 1,10,11
 388 570 388 570 292.5 650.5 c 128,-1,12
 197 731 197 731 197 874 c 0,13,14
 197 1073 197 1073 346.5 1195.5 c 128,-1,15
 496 1318 496 1318 751 1327 c 1,16,-1
 795 1556 l 1,17,-1
 956 1556 l 1,18,-1
 913 1329 l 1,19,20
 1014 1323 1014 1323 1108 1306 c 128,-1,21
 1202 1289 1202 1289 1290 1262 c 1,22,-1
 1241 1008 l 1,23,24
 1178 1045 1178 1045 1082.5 1068.5 c 128,-1,25
 987 1092 987 1092 868 1099 c 1,26,-1
 811 811 l 1,27,28
 1024 775 1024 775 1126.5 694 c 128,-1,29
 1229 613 1229 613 1229 479 c 0,30,31
 1229 259 1229 259 1078.5 134 c 128,-1,32
 928 9 928 9 654 0 c 1,33,-1
 596 -301 l 1,0,-1
655 836 m 1,34,-1
 706 1098 l 1,35,36
 622 1090 622 1090 572 1049.5 c 128,-1,37
 522 1009 522 1009 522 948 c 0,38,39
 522 900 522 900 554.5 872.5 c 128,-1,40
 587 845 587 845 655 836 c 1,34,-1
754 512 m 1,41,-1
 699 227 l 1,42,43
 798 232 798 232 851.5 275 c 128,-1,44
 905 318 905 318 905 393 c 0,45,46
 905 444 905 444 868.5 472.5 c 128,-1,47
 832 501 832 501 754 512 c 1,41,-1
EndSplineSet
EndChar
StartChar: percent
Encoding: 37 37 8
Width: 2052
Flags: W
Fore
1565 616 m 0,0,1
 1479 616 1479 616 1423.5 532 c 128,-1,2
 1368 448 1368 448 1368 315 c 0,3,4
 1368 228 1368 228 1398.5 184.5 c 128,-1,5
 1429 141 1429 141 1491 141 c 0,6,7
 1578 141 1578 141 1633 225 c 128,-1,8
 1688 309 1688 309 1688 444 c 0,9,10
 1688 529 1688 529 1656.5 572.5 c 128,-1,11
 1625 616 1625 616 1565 616 c 0,0,1
1593 784 m 0,12,13
 1750 784 1750 784 1844.5 698.5 c 128,-1,14
 1939 613 1939 613 1939 473 c 0,15,16
 1939 249 1939 249 1806.5 110 c 128,-1,17
 1674 -29 1674 -29 1460 -29 c 0,18,19
 1303 -29 1303 -29 1208.5 57.5 c 128,-1,20
 1114 144 1114 144 1114 285 c 0,21,22
 1114 507 1114 507 1246.5 645.5 c 128,-1,23
 1379 784 1379 784 1593 784 c 0,12,13
532 -29 m 1,24,-1
 287 -29 l 1,25,-1
 1522 1520 l 1,26,-1
 1767 1520 l 1,27,-1
 532 -29 l 1,24,-1
594 1520 m 0,28,29
 750 1520 750 1520 845 1434 c 128,-1,30
 940 1348 940 1348 940 1208 c 0,31,32
 940 985 940 985 806.5 846 c 128,-1,33
 673 707 673 707 459 707 c 0,34,35
 302 707 302 707 207.5 792 c 128,-1,36
 113 877 113 877 113 1018 c 0,37,38
 113 1240 113 1240 246.5 1380 c 128,-1,39
 380 1520 380 1520 594 1520 c 0,28,29
563 1352 m 0,40,41
 477 1352 477 1352 422 1267.5 c 128,-1,42
 367 1183 367 1183 367 1051 c 0,43,44
 367 963 367 963 397.5 918.5 c 128,-1,45
 428 874 428 874 489 874 c 0,46,47
 576 874 576 874 631 959 c 128,-1,48
 686 1044 686 1044 686 1180 c 0,49,50
 686 1264 686 1264 654.5 1308 c 128,-1,51
 623 1352 623 1352 563 1352 c 0,40,41
EndSplineSet
EndChar
StartChar: ampersand
Encoding: 38 38 9
Width: 1786
Flags: W
Fore
877 915 m 2,0,-1
 1174 541 l 1,1,2
 1236 604 1236 604 1281 692 c 128,-1,3
 1326 780 1326 780 1354 895 c 1,4,-1
 1665 895 l 1,5,6
 1622 720 1622 720 1542.5 577 c 128,-1,7
 1463 434 1463 434 1343 322 c 1,8,-1
 1599 0 l 1,9,-1
 1161 0 l 1,10,-1
 1077 106 l 1,11,12
 959 38 959 38 841 4.5 c 128,-1,13
 723 -29 723 -29 600 -29 c 0,14,15
 355 -29 355 -29 206 94 c 128,-1,16
 57 217 57 217 57 416 c 0,17,18
 57 567 57 567 152.5 693.5 c 128,-1,19
 248 820 248 820 449 934 c 1,20,21
 423 978 423 978 410 1023 c 128,-1,22
 397 1068 397 1068 397 1116 c 0,23,24
 397 1292 397 1292 548 1406 c 128,-1,25
 699 1520 699 1520 938 1520 c 0,26,27
 1029 1520 1029 1520 1124.5 1505.5 c 128,-1,28
 1220 1491 1220 1491 1321 1462 c 1,29,-1
 1268 1184 l 1,30,31
 1181 1232 1181 1232 1102 1255 c 128,-1,32
 1023 1278 1023 1278 944 1278 c 0,33,34
 858 1278 858 1278 808 1242 c 128,-1,35
 758 1206 758 1206 758 1145 c 0,36,37
 758 1107 758 1107 788 1048.5 c 128,-1,38
 818 990 818 990 877 915 c 2,0,-1
575 743 m 1,39,40
 495 692 495 692 453.5 625.5 c 128,-1,41
 412 559 412 559 412 483 c 0,42,43
 412 376 412 376 488 302.5 c 128,-1,44
 564 229 564 229 678 229 c 0,45,46
 738 229 738 229 797 250 c 128,-1,47
 856 271 856 271 915 313 c 1,48,-1
 575 743 l 1,39,40
EndSplineSet
EndChar
StartChar: quotesingle
Encoding: 39 39 10
Width: 627
Flags: W
Fore
432 1493 m 1,0,-1
 432 938 l 1,1,-1
 195 938 l 1,2,-1
 195 1493 l 1,3,-1
 432 1493 l 1,0,-1
EndSplineSet
EndChar
StartChar: parenleft
Encoding: 40 40 11
Width: 936
Flags: W
Fore
604 -270 m 1,0,-1
 313 -270 l 1,1,2
 235 -104 235 -104 196.5 55.5 c 128,-1,3
 158 215 158 215 158 373 c 0,4,5
 158 668 158 668 285 962.5 c 128,-1,6
 412 1257 412 1257 668 1554 c 1,7,-1
 958 1554 l 1,8,9
 725 1244 725 1244 610.5 940.5 c 128,-1,10
 496 637 496 637 496 332 c 0,11,12
 496 182 496 182 523 32.5 c 128,-1,13
 550 -117 550 -117 604 -270 c 1,0,-1
EndSplineSet
EndChar
StartChar: parenright
Encoding: 41 41 12
Width: 936
Flags: W
Fore
299 1554 m 1,0,-1
 592 1554 l 1,1,2
 669 1390 669 1390 707 1230.5 c 128,-1,3
 745 1071 745 1071 745 911 c 0,4,5
 745 613 745 613 618.5 318.5 c 128,-1,6
 492 24 492 24 238 -270 c 1,7,-1
 -55 -270 l 1,8,9
 178 40 178 40 293 344 c 128,-1,10
 408 648 408 648 408 954 c 0,11,12
 408 1104 408 1104 381 1252.5 c 128,-1,13
 354 1401 354 1401 299 1554 c 1,0,-1
EndSplineSet
EndChar
StartChar: asterisk
Encoding: 42 42 13
Width: 1071
Flags: W
Fore
1030 1217 m 1,0,-1
 700 1044 l 1,1,-1
 1030 870 l 1,2,-1
 954 729 l 1,3,-1
 621 913 l 1,4,-1
 621 569 l 1,5,-1
 451 569 l 1,6,-1
 451 913 l 1,7,-1
 117 729 l 1,8,-1
 41 870 l 1,9,-1
 375 1044 l 1,10,-1
 41 1217 l 1,11,-1
 117 1358 l 1,12,-1
 451 1176 l 1,13,-1
 451 1520 l 1,14,-1
 621 1520 l 1,15,-1
 621 1176 l 1,16,-1
 954 1358 l 1,17,-1
 1030 1217 l 1,0,-1
EndSplineSet
EndChar
StartChar: plus
Encoding: 43 43 14
Width: 1716
Flags: W
Fore
977 1284 m 1,0,-1
 977 760 l 1,1,-1
 1499 760 l 1,2,-1
 1499 524 l 1,3,-1
 977 524 l 1,4,-1
 977 0 l 1,5,-1
 739 0 l 1,6,-1
 739 524 l 1,7,-1
 217 524 l 1,8,-1
 217 760 l 1,9,-1
 739 760 l 1,10,-1
 739 1284 l 1,11,-1
 977 1284 l 1,0,-1
EndSplineSet
EndChar
StartChar: comma
Encoding: 44 44 15
Width: 778
Flags: W
Fore
164 387 m 1,0,-1
 524 387 l 1,1,-1
 465 82 l 1,2,-1
 143 -291 l 1,3,-1
 -70 -291 l 1,4,-1
 104 82 l 1,5,-1
 164 387 l 1,0,-1
EndSplineSet
EndChar
StartChar: hyphen
Encoding: 45 45 16
Width: 850
Flags: W
Fore
109 735 m 1,0,-1
 737 735 l 1,1,-1
 680 444 l 1,2,-1
 51 444 l 1,3,-1
 109 735 l 1,0,-1
EndSplineSet
KernsSLIF: 356 -301 0 0 221 -339 0 0 376 -339 0 0 89 -339 0 0 88 -206 0 0 87 -92 0 0 86 -149 0 0 84 -301 0 0
EndChar
StartChar: period
Encoding: 46 46 17
Width: 778
Flags: W
Fore
170 387 m 1,0,-1
 530 387 l 1,1,-1
 455 0 l 1,2,-1
 94 0 l 1,3,-1
 170 387 l 1,0,-1
EndSplineSet
EndChar
StartChar: slash
Encoding: 47 47 18
Width: 748
Flags: W
Fore
657 1493 m 1,0,-1
 889 1493 l 1,1,-1
 35 -190 l 1,2,-1
 -197 -190 l 1,3,-1
 657 1493 l 1,0,-1
EndSplineSet
EndChar
StartChar: zero
Encoding: 48 48 19
Width: 1425
Flags: W
Fore
612 233 m 0,0,1
 689 233 689 233 748.5 279 c 128,-1,2
 808 325 808 325 848 414 c 0,3,4
 876 477 876 477 899 557.5 c 128,-1,5
 922 638 922 638 942 748 c 0,6,7
 959 837 959 837 968 912 c 128,-1,8
 977 987 977 987 977 1040 c 0,9,10
 977 1152 977 1152 937 1204.5 c 128,-1,11
 897 1257 897 1257 813 1257 c 0,12,13
 735 1257 735 1257 676 1212.5 c 128,-1,14
 617 1168 617 1168 578 1077 c 1,15,16
 548 1012 548 1012 523.5 929 c 128,-1,17
 499 846 499 846 481 748 c 0,18,19
 464 658 464 658 455 581 c 128,-1,20
 446 504 446 504 446 451 c 0,21,22
 446 340 446 340 487 286.5 c 128,-1,23
 528 233 528 233 612 233 c 0,0,1
1352 983 m 0,24,25
 1352 784 1352 784 1297 596 c 128,-1,26
 1242 408 1242 408 1143 266 c 0,27,28
 1042 120 1042 120 899 45.5 c 128,-1,29
 756 -29 756 -29 580 -29 c 0,30,31
 335 -29 335 -29 204.5 110 c 128,-1,32
 74 249 74 249 74 510 c 0,33,34
 74 706 74 706 128.5 894.5 c 128,-1,35
 183 1083 183 1083 281 1223 c 0,36,37
 384 1370 384 1370 526 1445 c 128,-1,38
 668 1520 668 1520 846 1520 c 0,39,40
 1089 1520 1089 1520 1220.5 1380.5 c 128,-1,41
 1352 1241 1352 1241 1352 983 c 0,24,25
EndSplineSet
EndChar
StartChar: one
Encoding: 49 49 20
Width: 1425
Flags: W
Fore
141 266 m 1,0,-1
 481 266 l 1,1,-1
 668 1231 l 1,2,-1
 305 1159 l 1,3,-1
 356 1421 l 1,4,-1
 717 1493 l 1,5,-1
 1083 1493 l 1,6,-1
 846 266 l 1,7,-1
 1184 266 l 1,8,-1
 1133 0 l 1,9,-1
 88 0 l 1,10,-1
 141 266 l 1,0,-1
EndSplineSet
EndChar
StartChar: two
Encoding: 50 50 21
Width: 1425
Flags: W
Fore
506 283 m 1,0,-1
 1155 283 l 1,1,-1
 1100 0 l 1,2,-1
 16 0 l 1,3,-1
 72 285 l 1,4,-1
 707 764 l 1,5,6
 811 844 811 844 865.5 926 c 128,-1,7
 920 1008 920 1008 920 1085 c 0,8,9
 920 1167 920 1167 864 1212 c 128,-1,10
 808 1257 808 1257 707 1257 c 0,11,12
 612 1257 612 1257 495 1219.5 c 128,-1,13
 378 1182 378 1182 231 1104 c 1,14,-1
 295 1421 l 1,15,16
 431 1471 431 1471 562 1495.5 c 128,-1,17
 693 1520 693 1520 821 1520 c 0,18,19
 1049 1520 1049 1520 1180 1421.5 c 128,-1,20
 1311 1323 1311 1323 1311 1153 c 0,21,22
 1311 1007 1311 1007 1231 887 c 128,-1,23
 1151 767 1151 767 879 563 c 2,24,-1
 506 283 l 1,0,-1
EndSplineSet
EndChar
StartChar: three
Encoding: 51 51 22
Width: 1425
Flags: W
Fore
967 805 m 1,0,1
 1080 779 1080 779 1143 700 c 128,-1,2
 1206 621 1206 621 1206 506 c 0,3,4
 1206 258 1206 258 1009.5 114.5 c 128,-1,5
 813 -29 813 -29 469 -29 c 0,6,7
 339 -29 339 -29 221.5 -10.5 c 128,-1,8
 104 8 104 8 0 45 c 1,9,-1
 57 342 l 1,10,11
 146 290 146 290 251 261.5 c 128,-1,12
 356 233 356 233 461 233 c 0,13,14
 630 233 630 233 728.5 296.5 c 128,-1,15
 827 360 827 360 827 467 c 0,16,17
 827 556 827 556 752 600.5 c 128,-1,18
 677 645 677 645 526 645 c 2,19,-1
 373 645 l 1,20,-1
 422 893 l 1,21,-1
 584 893 l 2,22,23
 741 893 741 893 832.5 950 c 128,-1,24
 924 1007 924 1007 924 1104 c 0,25,26
 924 1180 924 1180 860.5 1220 c 128,-1,27
 797 1260 797 1260 676 1260 c 0,28,29
 591 1260 591 1260 491 1238 c 128,-1,30
 391 1216 391 1216 283 1174 c 1,31,-1
 338 1456 l 1,32,33
 456 1488 456 1488 570.5 1504 c 128,-1,34
 685 1520 685 1520 797 1520 c 0,35,36
 1050 1520 1050 1520 1177.5 1436 c 128,-1,37
 1305 1352 1305 1352 1305 1186 c 0,38,39
 1305 1037 1305 1037 1216.5 937.5 c 128,-1,40
 1128 838 1128 838 967 805 c 1,0,1
EndSplineSet
EndChar
StartChar: four
Encoding: 52 52 23
Width: 1425
Flags: W
Fore
844 1165 m 1,0,-1
 313 551 l 1,1,-1
 723 551 l 1,2,-1
 844 1165 l 1,0,-1
834 1493 m 1,3,-1
 1272 1493 l 1,4,-1
 1087 551 l 1,5,-1
 1300 551 l 1,6,-1
 1247 272 l 1,7,-1
 1034 272 l 1,8,-1
 981 0 l 1,9,-1
 616 0 l 1,10,-1
 670 272 l 1,11,-1
 -2 272 l 1,12,-1
 63 602 l 1,13,-1
 834 1493 l 1,3,-1
EndSplineSet
EndChar
StartChar: five
Encoding: 53 53 24
Width: 1425
Flags: W
Fore
362 1493 m 1,0,-1
 1319 1493 l 1,1,-1
 1264 1210 l 1,2,-1
 614 1210 l 1,3,-1
 569 979 l 1,4,5
 613 991 613 991 660.5 997.5 c 128,-1,6
 708 1004 708 1004 756 1004 c 0,7,8
 985 1004 985 1004 1114 899.5 c 128,-1,9
 1243 795 1243 795 1243 610 c 0,10,11
 1243 316 1243 316 1044 143.5 c 128,-1,12
 845 -29 845 -29 504 -29 c 0,13,14
 379 -29 379 -29 261 -4.5 c 128,-1,15
 143 20 143 20 27 70 c 1,16,-1
 86 373 l 1,17,18
 197 301 197 301 301.5 267 c 128,-1,19
 406 233 406 233 514 233 c 0,20,21
 672 233 672 233 767 315.5 c 128,-1,22
 862 398 862 398 862 532 c 0,23,24
 862 628 862 628 790 684.5 c 128,-1,25
 718 741 718 741 594 741 c 0,26,27
 510 741 510 741 412.5 719.5 c 128,-1,28
 315 698 315 698 199 653 c 1,29,-1
 362 1493 l 1,0,-1
EndSplineSet
EndChar
StartChar: six
Encoding: 54 54 25
Width: 1425
Flags: W
Fore
741 737 m 0,0,1
 627 737 627 737 554 643 c 128,-1,2
 481 549 481 549 481 401 c 0,3,4
 481 312 481 312 526 262.5 c 128,-1,5
 571 213 571 213 651 213 c 0,6,7
 764 213 764 213 837.5 305.5 c 128,-1,8
 911 398 911 398 911 539 c 0,9,10
 911 635 911 635 867 686 c 128,-1,11
 823 737 823 737 741 737 c 0,0,1
1352 1454 m 1,12,-1
 1298 1178 l 1,13,14
 1212 1222 1212 1222 1131 1244 c 128,-1,15
 1050 1266 1050 1266 969 1266 c 0,16,17
 783 1266 783 1266 668 1166 c 128,-1,18
 553 1066 553 1066 528 885 c 1,19,20
 606 936 606 936 688.5 960.5 c 128,-1,21
 771 985 771 985 864 985 c 0,22,23
 1048 985 1048 985 1165 876 c 128,-1,24
 1282 767 1282 767 1282 598 c 0,25,26
 1282 322 1282 322 1101.5 145.5 c 128,-1,27
 921 -31 921 -31 637 -31 c 0,28,29
 382 -31 382 -31 242 113.5 c 128,-1,30
 102 258 102 258 102 522 c 0,31,32
 102 726 102 726 164 911.5 c 128,-1,33
 226 1097 226 1097 338 1231 c 0,34,35
 458 1374 458 1374 621.5 1446 c 128,-1,36
 785 1518 785 1518 989 1518 c 0,37,38
 1083 1518 1083 1518 1172 1502 c 128,-1,39
 1261 1486 1261 1486 1352 1454 c 1,12,-1
EndSplineSet
EndChar
StartChar: seven
Encoding: 55 55 26
Width: 1425
Flags: W
Fore
295 1493 m 1,0,-1
 1421 1493 l 1,1,-1
 1376 1274 l 1,2,-1
 545 0 l 1,3,-1
 160 0 l 1,4,-1
 950 1210 l 1,5,-1
 242 1210 l 1,6,-1
 295 1493 l 1,0,-1
EndSplineSet
EndChar
StartChar: eight
Encoding: 56 56 27
Width: 1425
Flags: W
Fore
688 668 m 0,0,1
 571 668 571 668 492.5 588.5 c 128,-1,2
 414 509 414 509 414 393 c 0,3,4
 414 310 414 310 465 261.5 c 128,-1,5
 516 213 516 213 604 213 c 0,6,7
 723 213 723 213 801 291.5 c 128,-1,8
 879 370 879 370 879 487 c 0,9,10
 879 570 879 570 827.5 619 c 128,-1,11
 776 668 776 668 688 668 c 0,0,1
442 795 m 1,12,13
 334 840 334 840 280.5 912 c 128,-1,14
 227 984 227 984 227 1085 c 0,15,16
 227 1288 227 1288 393.5 1404 c 128,-1,17
 560 1520 560 1520 854 1520 c 0,18,19
 1090 1520 1090 1520 1220 1432 c 128,-1,20
 1350 1344 1350 1344 1350 1184 c 0,21,22
 1350 1042 1350 1042 1259.5 941 c 128,-1,23
 1169 840 1169 840 1001 795 c 1,24,25
 1123 748 1123 748 1181 669 c 128,-1,26
 1239 590 1239 590 1239 469 c 0,27,28
 1239 239 1239 239 1059.5 105 c 128,-1,29
 880 -29 880 -29 567 -29 c 0,30,31
 320 -29 320 -29 182.5 69.5 c 128,-1,32
 45 168 45 168 45 344 c 0,33,34
 45 503 45 503 150.5 622.5 c 128,-1,35
 256 742 256 742 442 795 c 1,12,13
819 1278 m 0,36,37
 717 1278 717 1278 655.5 1218.5 c 128,-1,38
 594 1159 594 1159 594 1061 c 0,39,40
 594 993 594 993 638.5 951 c 128,-1,41
 683 909 683 909 756 909 c 0,42,43
 858 909 858 909 919.5 968.5 c 128,-1,44
 981 1028 981 1028 981 1126 c 0,45,46
 981 1195 981 1195 936.5 1236.5 c 128,-1,47
 892 1278 892 1278 819 1278 c 0,36,37
EndSplineSet
EndChar
StartChar: nine
Encoding: 57 57 28
Width: 1425
Flags: W
Fore
84 33 m 1,0,-1
 137 309 l 1,1,2
 224 264 224 264 305 242.5 c 128,-1,3
 386 221 386 221 467 221 c 0,4,5
 653 221 653 221 768 321 c 128,-1,6
 883 421 883 421 907 602 c 1,7,8
 830 551 830 551 748 526.5 c 128,-1,9
 666 502 666 502 573 502 c 0,10,11
 390 502 390 502 273 611 c 128,-1,12
 156 720 156 720 156 889 c 0,13,14
 156 1165 156 1165 336.5 1341.5 c 128,-1,15
 517 1518 517 1518 801 1518 c 0,16,17
 1056 1518 1056 1518 1195.5 1373.5 c 128,-1,18
 1335 1229 1335 1229 1335 965 c 0,19,20
 1335 762 1335 762 1273 576.5 c 128,-1,21
 1211 391 1211 391 1098 256 c 0,22,23
 978 113 978 113 815.5 41 c 128,-1,24
 653 -31 653 -31 449 -31 c 0,25,26
 354 -31 354 -31 264 -15 c 128,-1,27
 174 1 174 1 84 33 c 1,0,-1
694 750 m 0,28,29
 808 750 808 750 881 844 c 128,-1,30
 954 938 954 938 954 1085 c 0,31,32
 954 1176 954 1176 910.5 1225 c 128,-1,33
 867 1274 867 1274 786 1274 c 0,34,35
 673 1274 673 1274 598.5 1181 c 128,-1,36
 524 1088 524 1088 524 948 c 0,37,38
 524 852 524 852 568 801 c 128,-1,39
 612 750 612 750 694 750 c 0,28,29
EndSplineSet
EndChar
StartChar: colon
Encoding: 58 58 29
Width: 819
Flags: W
Fore
301 1120 m 1,0,-1
 662 1120 l 1,1,-1
 588 733 l 1,2,-1
 227 733 l 1,3,-1
 301 1120 l 1,0,-1
160 387 m 1,4,-1
 520 387 l 1,5,-1
 444 0 l 1,6,-1
 84 0 l 1,7,-1
 160 387 l 1,4,-1
EndSplineSet
EndChar
StartChar: semicolon
Encoding: 59 59 30
Width: 819
Flags: W
Fore
160 387 m 1,0,-1
 520 387 l 1,1,-1
 461 82 l 1,2,-1
 141 -291 l 1,3,-1
 -72 -291 l 1,4,-1
 100 82 l 1,5,-1
 160 387 l 1,0,-1
301 1120 m 1,6,-1
 662 1120 l 1,7,-1
 588 733 l 1,8,-1
 227 733 l 1,9,-1
 301 1120 l 1,6,-1
EndSplineSet
EndChar
StartChar: less
Encoding: 60 60 31
Width: 1716
Flags: W
Fore
1499 973 m 1,0,-1
 535 641 l 1,1,-1
 1499 311 l 1,2,-1
 1499 61 l 1,3,-1
 217 524 l 1,4,-1
 217 760 l 1,5,-1
 1499 1223 l 1,6,-1
 1499 973 l 1,0,-1
EndSplineSet
EndChar
StartChar: equal
Encoding: 61 61 32
Width: 1716
Flags: W
Fore
217 987 m 1,0,-1
 1499 987 l 1,1,-1
 1499 752 l 1,2,-1
 217 752 l 1,3,-1
 217 987 l 1,0,-1
217 532 m 1,4,-1
 1499 532 l 1,5,-1
 1499 295 l 1,6,-1
 217 295 l 1,7,-1
 217 532 l 1,4,-1
EndSplineSet
EndChar
StartChar: greater
Encoding: 62 62 33
Width: 1716
Flags: W
Fore
217 973 m 1,0,-1
 217 1223 l 1,1,-1
 1499 760 l 1,2,-1
 1499 524 l 1,3,-1
 217 61 l 1,4,-1
 217 311 l 1,5,-1
 1182 641 l 1,6,-1
 217 973 l 1,0,-1
EndSplineSet
EndChar
StartChar: question
Encoding: 63 63 34
Width: 1188
Flags: W
Fore
283 356 m 1,0,-1
 643 356 l 1,1,-1
 573 0 l 1,2,-1
 213 0 l 1,3,-1
 283 356 l 1,0,-1
672 504 m 1,4,-1
 311 504 l 1,5,-1
 319 553 l 1,6,7
 335 633 335 633 378.5 695.5 c 128,-1,8
 422 758 422 758 553 860 c 2,9,-1
 627 918 l 2,10,11
 706 979 706 979 742 1032 c 128,-1,12
 778 1085 778 1085 778 1139 c 0,13,14
 778 1196 778 1196 737.5 1226.5 c 128,-1,15
 697 1257 697 1257 621 1257 c 0,16,17
 541 1257 541 1257 440.5 1223.5 c 128,-1,18
 340 1190 340 1190 225 1124 c 1,19,-1
 287 1438 l 1,20,21
 414 1480 414 1480 519 1500 c 128,-1,22
 624 1520 624 1520 721 1520 c 0,23,24
 915 1520 915 1520 1025 1434.5 c 128,-1,25
 1135 1349 1135 1349 1135 1200 c 0,26,27
 1135 1081 1135 1081 1082 987 c 128,-1,28
 1029 893 1029 893 901 791 c 2,29,-1
 825 731 l 2,30,31
 745 669 745 669 716.5 630.5 c 128,-1,32
 688 592 688 592 680 549 c 1,33,-1
 672 504 l 1,4,-1
EndSplineSet
EndChar
StartChar: at
Encoding: 64 64 35
Width: 2048
Flags: W
Fore
1034 801 m 0,0,1
 928 801 928 801 852 696 c 128,-1,2
 776 591 776 591 776 446 c 0,3,4
 776 362 776 362 816.5 318 c 128,-1,5
 857 274 857 274 934 274 c 0,6,7
 1040 274 1040 274 1114 374.5 c 128,-1,8
 1188 475 1188 475 1188 621 c 0,9,10
 1188 707 1188 707 1148 754 c 128,-1,11
 1108 801 1108 801 1034 801 c 0,0,1
1147 246 m 1,12,13
 1102 171 1102 171 1027 129.5 c 128,-1,14
 952 88 952 88 862 88 c 0,15,16
 719 88 719 88 637 182.5 c 128,-1,17
 555 277 555 277 555 444 c 0,18,19
 555 665 555 665 697 826 c 128,-1,20
 839 987 839 987 1036 987 c 0,21,22
 1119 987 1119 987 1181.5 945 c 128,-1,23
 1244 903 1244 903 1264 834 c 1,24,-1
 1288 967 l 1,25,-1
 1491 967 l 1,26,-1
 1358 274 l 1,27,28
 1509 296 1509 296 1610.5 437.5 c 128,-1,29
 1712 579 1712 579 1712 770 c 0,30,31
 1712 983 1712 983 1547.5 1118 c 128,-1,32
 1383 1253 1383 1253 1120 1253 c 0,33,34
 924 1253 924 1253 755.5 1177 c 128,-1,35
 587 1101 587 1101 469 958 c 0,36,37
 377 848 377 848 329 716 c 128,-1,38
 281 584 281 584 281 442 c 0,39,40
 281 173 281 173 446.5 2.5 c 128,-1,41
 612 -168 612 -168 872 -168 c 0,42,43
 990 -168 990 -168 1105.5 -124.5 c 128,-1,44
 1221 -81 1221 -81 1325 2 c 1,45,-1
 1434 -156 l 1,46,47
 1288 -254 1288 -254 1145 -303 c 128,-1,48
 1002 -352 1002 -352 860 -352 c 0,49,50
 725 -352 725 -352 600 -311 c 128,-1,51
 475 -270 475 -270 377 -193 c 0,52,53
 237 -85 237 -85 164.5 74 c 128,-1,54
 92 233 92 233 92 434 c 0,55,56
 92 610 92 610 152 774 c 128,-1,57
 212 938 212 938 326 1075 c 0,58,59
 472 1251 472 1251 677.5 1345.5 c 128,-1,60
 883 1440 883 1440 1120 1440 c 0,61,62
 1286 1440 1286 1440 1427 1393.5 c 128,-1,63
 1568 1347 1568 1347 1679 1255 c 1,64,65
 1784 1166 1784 1166 1841 1046.5 c 128,-1,66
 1898 927 1898 927 1898 797 c 0,67,68
 1898 482 1898 482 1693.5 285 c 128,-1,69
 1489 88 1489 88 1157 88 c 0,70,71
 1152 88 1152 88 1143 87 c 128,-1,72
 1134 86 1134 86 1130 86 c 0,73,74
 1125 86 1125 86 1121.5 86.5 c 128,-1,75
 1118 87 1118 87 1116 88 c 1,76,-1
 1147 246 l 1,12,13
EndSplineSet
EndChar
StartChar: A
Encoding: 65 65 36
Width: 1585
Flags: W
Fore
1006 272 m 1,0,-1
 410 272 l 1,1,-1
 262 0 l 1,2,-1
 -133 0 l 1,3,-1
 711 1493 l 1,4,-1
 1151 1493 l 1,5,-1
 1415 0 l 1,6,-1
 1049 0 l 1,7,-1
 1006 272 l 1,0,-1
555 543 m 1,8,-1
 956 543 l 1,9,-1
 866 1118 l 1,10,-1
 555 543 l 1,8,-1
EndSplineSet
KernsSLIF: 366 -92 0 0 357 -112 0 0 356 -196 0 0 271 -63 0 0 273 -63 0 0 269 -63 0 0 268 -63 0 0 263 -63 0 0 262 -63 0 0 253 -149 0 0 221 -235 0 0 217 -92 0 0 219 -92 0 0 218 -92 0 0 210 -63 0 0 212 -63 0 0 211 -63 0 0 8222 104 0 0 8218 104 0 0 376 -235 0 0 255 -149 0 0 8217 -253 0 0 8221 -253 0 0 338 -63 0 0 213 -63 0 0 216 -63 0 0 231 -63 0 0 220 -92 0 0 214 -63 0 0 199 -63 0 0 121 -149 0 0 119 -92 0 0 118 -112 0 0 116 -112 0 0 100 -63 0 0 99 -63 0 0 89 -235 0 0 87 -112 0 0 86 -139 0 0 85 -92 0 0 84 -196 0 0 79 -63 0 0 67 -63 0 0 59 38 0 0 58 38 0 0 46 38 0 0 44 38 0 0
EndChar
StartChar: B
Encoding: 66 66 37
Width: 1561
Flags: W
Fore
819 915 m 2,0,1
 922 915 922 915 980 967 c 128,-1,2
 1038 1019 1038 1019 1038 1110 c 0,3,4
 1038 1169 1038 1169 997.5 1200 c 128,-1,5
 957 1231 957 1231 881 1231 c 2,6,-1
 666 1231 l 1,7,-1
 604 915 l 1,8,-1
 819 915 l 2,0,1
705 262 m 2,9,10
 837 262 837 262 908 325 c 128,-1,11
 979 388 979 388 979 506 c 0,12,13
 979 581 979 581 930 617 c 128,-1,14
 881 653 881 653 780 653 c 2,15,-1
 553 653 l 1,16,-1
 477 262 l 1,17,-1
 705 262 l 2,9,10
1161 799 m 1,18,19
 1259 771 1259 771 1312.5 696.5 c 128,-1,20
 1366 622 1366 622 1366 512 c 0,21,22
 1366 271 1366 271 1186.5 135.5 c 128,-1,23
 1007 0 1007 0 682 0 c 2,24,-1
 43 0 l 1,25,-1
 334 1493 l 1,26,-1
 911 1493 l 2,27,28
 1177 1493 1177 1493 1304.5 1415 c 128,-1,29
 1432 1337 1432 1337 1432 1174 c 0,30,31
 1432 1037 1432 1037 1357 933.5 c 128,-1,32
 1282 830 1282 830 1161 799 c 1,18,19
EndSplineSet
KernsSLIF: 221 -112 0 0 376 -112 0 0 89 -112 0 0 87 -112 0 0 86 -83 0 0
EndChar
StartChar: C
Encoding: 67 67 38
Width: 1503
Flags: W
Fore
1241 70 m 1,0,1
 1103 21 1103 21 976 -4 c 128,-1,2
 849 -29 849 -29 735 -29 c 0,3,4
 434 -29 434 -29 254 136 c 128,-1,5
 74 301 74 301 74 573 c 0,6,7
 74 752 74 752 131 910.5 c 128,-1,8
 188 1069 188 1069 299 1200 c 0,9,10
 430 1354 430 1354 614.5 1437 c 128,-1,11
 799 1520 799 1520 1012 1520 c 0,12,13
 1128 1520 1128 1520 1245 1492.5 c 128,-1,14
 1362 1465 1362 1465 1483 1409 c 1,15,-1
 1421 1100 l 1,16,17
 1325 1173 1325 1173 1228 1207 c 128,-1,18
 1131 1241 1131 1241 1020 1241 c 0,19,20
 789 1241 789 1241 633 1063 c 128,-1,21
 477 885 477 885 477 618 c 0,22,23
 477 446 477 446 573 348 c 128,-1,24
 669 250 669 250 838 250 c 0,25,26
 939 250 939 250 1052.5 286.5 c 128,-1,27
 1166 323 1166 323 1307 401 c 1,28,-1
 1241 70 l 1,0,1
EndSplineSet
KernsSLIF: 350 -73 0 0 352 -73 0 0 83 -73 0 0
EndChar
StartChar: D
Encoding: 68 68 39
Width: 1700
Flags: W
Fore
664 1202 m 1,0,-1
 485 291 l 1,1,-1
 623 291 l 2,2,3
 892 291 892 291 1049 442 c 128,-1,4
 1206 593 1206 593 1206 850 c 0,5,6
 1206 1024 1206 1024 1103.5 1113 c 128,-1,7
 1001 1202 1001 1202 799 1202 c 2,8,-1
 664 1202 l 1,0,-1
334 1493 m 1,9,-1
 739 1493 l 2,10,11
 1029 1493 1029 1493 1174 1458.5 c 128,-1,12
 1319 1424 1319 1424 1415 1343 c 0,13,14
 1512 1262 1512 1262 1561 1146.5 c 128,-1,15
 1610 1031 1610 1031 1610 885 c 0,16,17
 1610 682 1610 682 1526.5 502.5 c 128,-1,18
 1443 323 1443 323 1292 201 c 1,19,20
 1160 92 1160 92 985.5 46 c 128,-1,21
 811 0 811 0 449 0 c 2,22,-1
 43 0 l 1,23,-1
 334 1493 l 1,9,-1
EndSplineSet
KernsSLIF: 221 -159 0 0 8222 -36 0 0 8218 -36 0 0 376 -159 0 0 89 -159 0 0 45 38 0 0
EndChar
StartChar: E
Encoding: 69 69 40
Width: 1399
Flags: W
Fore
334 1493 m 1,0,-1
 1372 1493 l 1,1,-1
 1315 1202 l 1,2,-1
 662 1202 l 1,3,-1
 608 924 l 1,4,-1
 1223 924 l 1,5,-1
 1165 633 l 1,6,-1
 551 633 l 1,7,-1
 485 291 l 1,8,-1
 1159 291 l 1,9,-1
 1104 0 l 1,10,-1
 43 0 l 1,11,-1
 334 1493 l 1,0,-1
EndSplineSet
EndChar
StartChar: F
Encoding: 70 70 41
Width: 1399
Flags: W
Fore
334 1493 m 1,0,-1
 1372 1493 l 1,1,-1
 1315 1202 l 1,2,-1
 662 1202 l 1,3,-1
 608 924 l 1,4,-1
 1223 924 l 1,5,-1
 1165 633 l 1,6,-1
 551 633 l 1,7,-1
 428 0 l 1,8,-1
 43 0 l 1,9,-1
 334 1493 l 1,0,-1
EndSplineSet
KernsSLIF: 252 -196 0 0 229 -235 0 0 230 -235 0 0 59 -112 0 0 242 -159 0 0 45 -102 0 0 8222 -452 0 0 367 -196 0 0 245 -159 0 0 235 -159 0 0 249 -196 0 0 44 -444 0 0 224 -235 0 0 195 -264 0 0 234 -159 0 0 341 -225 0 0 232 -159 0 0 196 -264 0 0 193 -264 0 0 8217 -36 0 0 251 -196 0 0 253 -188 0 0 8218 -452 0 0 227 -235 0 0 194 -264 0 0 248 -159 0 0 244 -159 0 0 65 -264 0 0 97 -235 0 0 228 -235 0 0 246 -159 0 0 250 -196 0 0 225 -235 0 0 345 -225 0 0 46 -452 0 0 226 -235 0 0 233 -159 0 0 283 -159 0 0 101 -159 0 0 339 -159 0 0 255 -188 0 0 111 -159 0 0 114 -225 0 0 117 -196 0 0 192 -264 0 0 121 -188 0 0 58 -112 0 0 243 -159 0 0
EndChar
StartChar: G
Encoding: 71 71 42
Width: 1681
Flags: W
Fore
1395 111 m 1,0,1
 1249 40 1249 40 1092 5.5 c 128,-1,2
 935 -29 935 -29 756 -29 c 0,3,4
 438 -29 438 -29 256 132.5 c 128,-1,5
 74 294 74 294 74 573 c 0,6,7
 74 754 74 754 131 912.5 c 128,-1,8
 188 1071 188 1071 301 1202 c 0,9,10
 439 1362 439 1362 626.5 1441 c 128,-1,11
 814 1520 814 1520 1055 1520 c 0,12,13
 1189 1520 1189 1520 1325 1492 c 128,-1,14
 1461 1464 1461 1464 1593 1409 c 1,15,-1
 1534 1100 l 1,16,17
 1412 1171 1412 1171 1295.5 1206 c 128,-1,18
 1179 1241 1179 1241 1061 1241 c 0,19,20
 803 1241 803 1241 641 1069 c 128,-1,21
 479 897 479 897 479 627 c 0,22,23
 479 448 479 448 573.5 349 c 128,-1,24
 668 250 668 250 840 250 c 0,25,26
 896 250 896 250 952 257.5 c 128,-1,27
 1008 265 1008 265 1065 281 c 1,28,-1
 1122 571 l 1,29,-1
 887 571 l 1,30,-1
 936 829 l 1,31,-1
 1534 829 l 1,32,-1
 1395 111 l 1,0,1
EndSplineSet
KernsSLIF: 356 -36 0 0 221 -83 0 0 376 -83 0 0 89 -83 0 0 84 -36 0 0
EndChar
StartChar: H
Encoding: 72 72 43
Width: 1714
Flags: W
Fore
334 1493 m 1,0,-1
 719 1493 l 1,1,-1
 608 924 l 1,2,-1
 1176 924 l 1,3,-1
 1286 1493 l 1,4,-1
 1671 1493 l 1,5,-1
 1380 0 l 1,6,-1
 995 0 l 1,7,-1
 1118 633 l 1,8,-1
 551 633 l 1,9,-1
 428 0 l 1,10,-1
 43 0 l 1,11,-1
 334 1493 l 1,0,-1
EndSplineSet
EndChar
StartChar: I
Encoding: 73 73 44
Width: 762
Flags: W
Fore
334 1493 m 1,0,-1
 719 1493 l 1,1,-1
 428 0 l 1,2,-1
 43 0 l 1,3,-1
 334 1493 l 1,0,-1
EndSplineSet
EndChar
StartChar: J
Encoding: 74 74 45
Width: 762
Flags: W
Fore
334 1493 m 1,0,-1
 719 1493 l 1,1,-1
 457 145 l 1,2,3
 399 -147 399 -147 229.5 -278.5 c 128,-1,4
 60 -410 60 -410 -262 -410 c 2,5,-1
 -340 -410 l 1,6,-1
 -283 -119 l 1,7,-1
 -223 -119 l 2,8,9
 -104 -119 -104 -119 -28.5 -51.5 c 128,-1,10
 47 16 47 16 72 145 c 2,11,-1
 334 1493 l 1,0,-1
EndSplineSet
EndChar
StartChar: K
Encoding: 75 75 46
Width: 1587
Flags: W
Fore
334 1493 m 1,0,-1
 719 1493 l 1,1,-1
 614 956 l 1,2,-1
 1249 1493 l 1,3,-1
 1714 1493 l 1,4,-1
 858 768 l 1,5,-1
 1503 0 l 1,6,-1
 1051 0 l 1,7,-1
 549 623 l 1,8,-1
 428 0 l 1,9,-1
 43 0 l 1,10,-1
 334 1493 l 1,0,-1
EndSplineSet
KernsSLIF: 367 -112 0 0 366 -73 0 0 283 -112 0 0 268 -131 0 0 262 -131 0 0 253 -206 0 0 217 -73 0 0 219 -73 0 0 218 -73 0 0 210 -131 0 0 212 -131 0 0 211 -131 0 0 8222 38 0 0 8218 38 0 0 255 -206 0 0 339 -112 0 0 338 -178 0 0 213 -131 0 0 248 -112 0 0 216 -55 0 0 252 -112 0 0 251 -112 0 0 249 -112 0 0 250 -112 0 0 245 -112 0 0 246 -112 0 0 244 -112 0 0 242 -112 0 0 243 -112 0 0 235 -112 0 0 234 -112 0 0 232 -112 0 0 233 -112 0 0 220 -73 0 0 214 -131 0 0 199 -131 0 0 121 -206 0 0 117 -112 0 0 111 -112 0 0 101 -112 0 0 87 -55 0 0 85 -73 0 0 79 -131 0 0 67 -131 0 0 45 -253 0 0
EndChar
StartChar: L
Encoding: 76 76 47
Width: 1305
Flags: W
Fore
334 1493 m 1,0,-1
 719 1493 l 1,1,-1
 485 291 l 1,2,-1
 1159 291 l 1,3,-1
 1104 0 l 1,4,-1
 43 0 l 1,5,-1
 334 1493 l 1,0,-1
EndSplineSet
KernsSLIF: 366 -112 0 0 356 -339 0 0 253 -253 0 0 221 -319 0 0 217 -112 0 0 219 -112 0 0 218 -112 0 0 210 -73 0 0 212 -73 0 0 211 -73 0 0 376 -319 0 0 255 -253 0 0 8217 -509 0 0 8221 -528 0 0 338 -73 0 0 213 -73 0 0 216 -73 0 0 220 -112 0 0 214 -73 0 0 121 -253 0 0 89 -319 0 0 87 -178 0 0 86 -282 0 0 85 -112 0 0 84 -339 0 0 79 -73 0 0
EndChar
StartChar: M
Encoding: 77 77 48
Width: 2038
Flags: W
Fore
334 1493 m 1,0,-1
 807 1493 l 1,1,-1
 999 700 l 1,2,-1
 1503 1493 l 1,3,-1
 1995 1493 l 1,4,-1
 1704 0 l 1,5,-1
 1339 0 l 1,6,-1
 1552 1102 l 1,7,-1
 1034 287 l 1,8,-1
 827 287 l 1,9,-1
 621 1102 l 1,10,-1
 408 0 l 1,11,-1
 43 0 l 1,12,-1
 334 1493 l 1,0,-1
EndSplineSet
EndChar
StartChar: N
Encoding: 78 78 49
Width: 1714
Flags: W
Fore
334 1493 m 1,0,-1
 764 1493 l 1,1,-1
 1106 459 l 1,2,-1
 1307 1493 l 1,3,-1
 1671 1493 l 1,4,-1
 1380 0 l 1,5,-1
 950 0 l 1,6,-1
 608 1034 l 1,7,-1
 408 0 l 1,8,-1
 43 0 l 1,9,-1
 334 1493 l 1,0,-1
EndSplineSet
EndChar
StartChar: O
Encoding: 79 79 50
Width: 1741
Flags: W
Fore
1260 881 m 0,0,1
 1260 1057 1260 1057 1180.5 1149 c 128,-1,2
 1101 1241 1101 1241 950 1241 c 0,3,4
 750 1241 750 1241 614.5 1061.5 c 128,-1,5
 479 882 479 882 479 612 c 0,6,7
 479 440 479 440 558 345 c 128,-1,8
 637 250 637 250 778 250 c 0,9,10
 893 250 893 250 982.5 298.5 c 128,-1,11
 1072 347 1072 347 1135 442 c 0,12,13
 1195 533 1195 533 1227.5 647 c 128,-1,14
 1260 761 1260 761 1260 881 c 0,0,1
1006 1520 m 0,15,16
 1304 1520 1304 1520 1485.5 1354.5 c 128,-1,17
 1667 1189 1667 1189 1667 922 c 0,18,19
 1667 740 1667 740 1611.5 578 c 128,-1,20
 1556 416 1556 416 1450 287 c 0,21,22
 1320 128 1320 128 1142.5 49.5 c 128,-1,23
 965 -29 965 -29 733 -29 c 0,24,25
 436 -29 436 -29 255 136 c 128,-1,26
 74 301 74 301 74 569 c 0,27,28
 74 752 74 752 129 914 c 128,-1,29
 184 1076 184 1076 291 1206 c 0,30,31
 419 1364 419 1364 596.5 1442 c 128,-1,32
 774 1520 774 1520 1006 1520 c 0,15,16
EndSplineSet
KernsSLIF: 221 -149 0 0 376 -149 0 0 89 -149 0 0 88 -73 0 0 86 -73 0 0 46 -45 0 0 45 38 0 0 44 -45 0 0
EndChar
StartChar: P
Encoding: 80 80 51
Width: 1501
Flags: W
Fore
334 1493 m 1,0,-1
 973 1493 l 2,1,2
 1208 1493 1208 1493 1340.5 1385.5 c 128,-1,3
 1473 1278 1473 1278 1473 1087 c 0,4,5
 1473 970 1473 970 1429 864.5 c 128,-1,6
 1385 759 1385 759 1303 680 c 0,7,8
 1214 595 1214 595 1091 556.5 c 128,-1,9
 968 518 968 518 782 518 c 2,10,-1
 528 518 l 1,11,-1
 428 0 l 1,12,-1
 43 0 l 1,13,-1
 334 1493 l 1,0,-1
666 1214 m 1,14,-1
 584 797 l 1,15,-1
 797 797 l 2,16,17
 933 797 933 797 1005 861 c 128,-1,18
 1077 925 1077 925 1077 1047 c 0,19,20
 1077 1128 1077 1128 1025.5 1171 c 128,-1,21
 974 1214 974 1214 877 1214 c 2,22,-1
 666 1214 l 1,14,-1
EndSplineSet
KernsSLIF: 252 -73 0 0 229 -131 0 0 230 -131 0 0 45 -36 0 0 8222 -415 0 0 367 -73 0 0 235 -55 0 0 249 -73 0 0 44 -528 0 0 224 -131 0 0 195 -188 0 0 234 -55 0 0 341 -63 0 0 8221 38 0 0 232 -55 0 0 196 -188 0 0 193 -188 0 0 8217 57 0 0 251 -73 0 0 8218 -415 0 0 227 -131 0 0 194 -188 0 0 117 -73 0 0 353 -73 0 0 65 -188 0 0 97 -131 0 0 228 -131 0 0 250 -73 0 0 351 -73 0 0 225 -131 0 0 345 -63 0 0 226 -131 0 0 233 -55 0 0 283 -55 0 0 101 -55 0 0 115 -73 0 0 114 -63 0 0 46 -528 0 0 192 -188 0 0
EndChar
StartChar: Q
Encoding: 81 81 52
Width: 1741
Flags: W
Fore
760 -27 m 1,0,1
 749 -28 749 -28 738 -28.5 c 128,-1,2
 727 -29 727 -29 702 -29 c 0,3,4
 589 -29 589 -29 489 2 c 128,-1,5
 389 33 389 33 307 94 c 0,6,7
 197 175 197 175 135.5 300.5 c 128,-1,8
 74 426 74 426 74 569 c 0,9,10
 74 752 74 752 129.5 914.5 c 128,-1,11
 185 1077 185 1077 291 1206 c 0,12,13
 420 1365 420 1365 596.5 1442.5 c 128,-1,14
 773 1520 773 1520 1006 1520 c 0,15,16
 1304 1520 1304 1520 1485.5 1354.5 c 128,-1,17
 1667 1189 1667 1189 1667 922 c 0,18,19
 1667 608 1667 608 1514.5 371.5 c 128,-1,20
 1362 135 1362 135 1090 27 c 1,21,-1
 1319 -299 l 1,22,-1
 952 -299 l 1,23,-1
 760 -27 l 1,0,1
1260 881 m 0,24,25
 1260 1057 1260 1057 1180.5 1149 c 128,-1,26
 1101 1241 1101 1241 950 1241 c 0,27,28
 750 1241 750 1241 614.5 1061.5 c 128,-1,29
 479 882 479 882 479 612 c 0,30,31
 479 440 479 440 558 345 c 128,-1,32
 637 250 637 250 778 250 c 0,33,34
 893 250 893 250 982.5 298.5 c 128,-1,35
 1072 347 1072 347 1135 442 c 0,36,37
 1195 533 1195 533 1227.5 647 c 128,-1,38
 1260 761 1260 761 1260 881 c 0,24,25
EndSplineSet
KernsSLIF: 45 38 0 0
EndChar
StartChar: R
Encoding: 82 82 53
Width: 1577
Flags: W
Fore
752 831 m 2,0,1
 883 831 883 831 950.5 892 c 128,-1,2
 1018 953 1018 953 1018 1071 c 0,3,4
 1018 1145 1018 1145 971.5 1179.5 c 128,-1,5
 925 1214 925 1214 825 1214 c 2,6,-1
 666 1214 l 1,7,-1
 590 831 l 1,8,-1
 752 831 l 2,0,1
539 565 m 1,9,-1
 428 0 l 1,10,-1
 43 0 l 1,11,-1
 334 1493 l 1,12,-1
 903 1493 l 2,13,14
 1149 1493 1149 1493 1276 1401 c 128,-1,15
 1403 1309 1403 1309 1403 1130 c 0,16,17
 1403 949 1403 949 1303 832 c 128,-1,18
 1203 715 1203 715 1032 698 c 1,19,20
 1110 682 1110 682 1162 618.5 c 128,-1,21
 1214 555 1214 555 1253 424 c 2,22,-1
 1380 0 l 1,23,-1
 997 0 l 1,24,-1
 885 371 l 1,25,26
 851 482 851 482 802.5 523.5 c 128,-1,27
 754 565 754 565 662 565 c 2,28,-1
 539 565 l 1,9,-1
EndSplineSet
KernsSLIF: 367 -112 0 0 356 -92 0 0 283 -102 0 0 253 -131 0 0 221 -188 0 0 376 -188 0 0 255 -131 0 0 339 -102 0 0 248 -102 0 0 252 -112 0 0 251 -112 0 0 249 -112 0 0 250 -112 0 0 245 -102 0 0 246 -102 0 0 244 -102 0 0 242 -102 0 0 243 -102 0 0 235 -102 0 0 234 -102 0 0 232 -102 0 0 233 -102 0 0 121 -131 0 0 117 -112 0 0 111 -102 0 0 101 -102 0 0 89 -188 0 0 84 -92 0 0 46 38 0 0 44 38 0 0
EndChar
StartChar: S
Encoding: 83 83 54
Width: 1475
Flags: W
Fore
1362 1446 m 1,0,-1
 1300 1130 l 1,1,2
 1187 1186 1187 1186 1077 1213.5 c 128,-1,3
 967 1241 967 1241 862 1241 c 0,4,5
 718 1241 718 1241 637.5 1196 c 128,-1,6
 557 1151 557 1151 557 1071 c 0,7,8
 557 1020 557 1020 592.5 991.5 c 128,-1,9
 628 963 628 963 739 936 c 2,10,-1
 897 897 l 2,11,12
 1095 847 1095 847 1187.5 752.5 c 128,-1,13
 1280 658 1280 658 1280 508 c 0,14,15
 1280 265 1280 265 1095.5 118 c 128,-1,16
 911 -29 911 -29 600 -29 c 0,17,18
 455 -29 455 -29 311.5 -2 c 128,-1,19
 168 25 168 25 31 78 c 1,20,-1
 92 403 l 1,21,22
 225 326 225 326 350.5 288 c 128,-1,23
 476 250 476 250 598 250 c 0,24,25
 730 250 730 250 812.5 304 c 128,-1,26
 895 358 895 358 895 442 c 0,27,28
 895 497 895 497 858 527.5 c 128,-1,29
 821 558 821 558 696 590 c 2,30,-1
 539 629 l 2,31,32
 365 672 365 672 280 765 c 128,-1,33
 195 858 195 858 195 1006 c 0,34,35
 195 1239 195 1239 373.5 1379.5 c 128,-1,36
 552 1520 552 1520 854 1520 c 0,37,38
 975 1520 975 1520 1102.5 1501.5 c 128,-1,39
 1230 1483 1230 1483 1362 1446 c 1,0,-1
EndSplineSet
KernsSLIF: 350 -73 0 0 352 -73 0 0 83 -73 0 0
EndChar
StartChar: T
Encoding: 84 84 55
Width: 1397
Flags: W
Fore
156 1493 m 1,0,-1
 1532 1493 l 1,1,-1
 1475 1202 l 1,2,-1
 979 1202 l 1,3,-1
 745 0 l 1,4,-1
 360 0 l 1,5,-1
 594 1202 l 1,6,-1
 98 1202 l 1,7,-1
 156 1493 l 1,0,-1
EndSplineSet
KernsSLIF: 252 -264 0 0 229 -243 0 0 230 -243 0 0 59 -112 0 0 242 -264 0 0 45 -301 0 0 8222 -301 0 0 367 -264 0 0 245 -264 0 0 235 -264 0 0 249 -264 0 0 58 -112 0 0 224 -243 0 0 195 -159 0 0 234 -264 0 0 231 -264 0 0 341 -225 0 0 232 -264 0 0 196 -159 0 0 193 -159 0 0 269 -264 0 0 345 -225 0 0 251 -264 0 0 253 -339 0 0 8218 -301 0 0 227 -243 0 0 194 -159 0 0 248 -264 0 0 244 -264 0 0 353 -243 0 0 65 -159 0 0 283 -264 0 0 351 -243 0 0 228 -243 0 0 119 -282 0 0 246 -264 0 0 250 -264 0 0 263 -264 0 0 225 -243 0 0 46 -348 0 0 84 47 0 0 226 -243 0 0 233 -264 0 0 356 47 0 0 97 -243 0 0 99 -264 0 0 101 -264 0 0 339 -264 0 0 255 -339 0 0 111 -264 0 0 115 -243 0 0 114 -225 0 0 117 -264 0 0 192 -159 0 0 121 -339 0 0 44 -329 0 0 243 -264 0 0
EndChar
StartChar: U
Encoding: 85 85 56
Width: 1663
Flags: W
Fore
334 1493 m 1,0,-1
 719 1493 l 1,1,-1
 545 599 l 1,2,3
 535 551 535 551 530.5 514 c 128,-1,4
 526 477 526 477 526 449 c 0,5,6
 526 351 526 351 578.5 302.5 c 128,-1,7
 631 254 631 254 735 254 c 0,8,9
 875 254 875 254 950 332.5 c 128,-1,10
 1025 411 1025 411 1061 598 c 1,11,-1
 1235 1493 l 1,12,-1
 1620 1493 l 1,13,-1
 1446 598 l 1,14,15
 1381 268 1381 268 1199.5 119.5 c 128,-1,16
 1018 -29 1018 -29 680 -29 c 0,17,18
 415 -29 415 -29 277 84.5 c 128,-1,19
 139 198 139 198 139 414 c 0,20,21
 139 450 139 450 144 494.5 c 128,-1,22
 149 539 149 539 160 598 c 1,23,-1
 334 1493 l 1,0,-1
EndSplineSet
KernsSLIF: 193 -92 0 0 194 -92 0 0 195 -92 0 0 192 -92 0 0 196 -92 0 0 65 -92 0 0
EndChar
StartChar: V
Encoding: 86 86 57
Width: 1585
Flags: W
Fore
156 1493 m 1,0,-1
 522 1493 l 1,1,-1
 705 377 l 1,2,-1
 1323 1493 l 1,3,-1
 1720 1493 l 1,4,-1
 877 0 l 1,5,-1
 418 0 l 1,6,-1
 156 1493 l 1,0,-1
EndSplineSet
KernsSLIF: 367 -149 0 0 283 -149 0 0 210 -36 0 0 212 -36 0 0 211 -36 0 0 193 -139 0 0 194 -139 0 0 8222 -272 0 0 8218 -272 0 0 339 -149 0 0 338 -45 0 0 213 -36 0 0 195 -139 0 0 192 -139 0 0 248 -149 0 0 230 -159 0 0 216 -36 0 0 252 -149 0 0 251 -149 0 0 249 -149 0 0 250 -149 0 0 245 -149 0 0 246 -149 0 0 244 -149 0 0 242 -149 0 0 243 -149 0 0 235 -149 0 0 234 -149 0 0 232 -149 0 0 233 -149 0 0 229 -159 0 0 227 -159 0 0 228 -159 0 0 226 -159 0 0 224 -159 0 0 225 -159 0 0 214 -36 0 0 196 -139 0 0 117 -149 0 0 111 -149 0 0 105 -36 0 0 101 -149 0 0 97 -159 0 0 79 -36 0 0 65 -139 0 0 59 -92 0 0 58 -92 0 0 46 -319 0 0 45 -149 0 0 44 -319 0 0
EndChar
StartChar: W
Encoding: 87 87 58
Width: 2259
Flags: W
Fore
219 1493 m 1,0,-1
 575 1493 l 1,1,-1
 621 408 l 1,2,-1
 1090 1493 l 1,3,-1
 1456 1493 l 1,4,-1
 1505 408 l 1,5,-1
 1958 1493 l 1,6,-1
 2341 1493 l 1,7,-1
 1698 0 l 1,8,-1
 1262 0 l 1,9,-1
 1212 1135 l 1,10,-1
 729 0 l 1,11,-1
 283 0 l 1,12,-1
 219 1493 l 1,0,-1
EndSplineSet
KernsSLIF: 229 -139 0 0 230 -139 0 0 59 -63 0 0 242 -112 0 0 45 -92 0 0 46 -178 0 0 245 -112 0 0 235 -131 0 0 44 -178 0 0 224 -139 0 0 195 -73 0 0 234 -131 0 0 341 -120 0 0 232 -131 0 0 196 -73 0 0 193 -73 0 0 227 -139 0 0 194 -73 0 0 248 -112 0 0 244 -112 0 0 65 -73 0 0 97 -139 0 0 228 -139 0 0 246 -112 0 0 225 -139 0 0 345 -120 0 0 226 -139 0 0 233 -131 0 0 283 -131 0 0 101 -131 0 0 339 -112 0 0 111 -112 0 0 114 -120 0 0 192 -73 0 0 58 -63 0 0 243 -112 0 0
EndChar
StartChar: X
Encoding: 88 88 59
Width: 1579
Flags: W
Fore
1016 756 m 1,0,-1
 1382 0 l 1,1,-1
 991 0 l 1,2,-1
 748 500 l 1,3,-1
 311 0 l 1,4,-1
 -104 0 l 1,5,-1
 567 766 l 1,6,-1
 213 1493 l 1,7,-1
 606 1493 l 1,8,-1
 836 1024 l 1,9,-1
 1245 1493 l 1,10,-1
 1663 1493 l 1,11,-1
 1016 756 l 1,0,-1
EndSplineSet
KernsSLIF: 283 -131 0 0 268 -73 0 0 262 -73 0 0 210 -73 0 0 212 -73 0 0 211 -73 0 0 338 -112 0 0 213 -73 0 0 216 -73 0 0 235 -131 0 0 234 -131 0 0 232 -131 0 0 233 -131 0 0 214 -73 0 0 199 -73 0 0 101 -131 0 0 79 -73 0 0 67 -73 0 0 45 -243 0 0
EndChar
StartChar: Y
Encoding: 89 89 60
Width: 1483
Flags: W
Fore
129 1493 m 1,0,-1
 514 1493 l 1,1,-1
 768 940 l 1,2,-1
 1212 1493 l 1,3,-1
 1657 1493 l 1,4,-1
 920 623 l 1,5,-1
 799 0 l 1,6,-1
 414 0 l 1,7,-1
 535 623 l 1,8,-1
 129 1493 l 1,0,-1
EndSplineSet
KernsSLIF: 367 -225 0 0 283 -264 0 0 268 -73 0 0 262 -73 0 0 210 -73 0 0 212 -73 0 0 211 -73 0 0 193 -196 0 0 194 -196 0 0 8222 -405 0 0 8218 -376 0 0 339 -264 0 0 338 -120 0 0 213 -73 0 0 195 -196 0 0 192 -196 0 0 248 -264 0 0 230 -243 0 0 216 -73 0 0 252 -225 0 0 251 -225 0 0 249 -225 0 0 250 -225 0 0 245 -264 0 0 246 -264 0 0 244 -264 0 0 242 -264 0 0 243 -264 0 0 235 -264 0 0 234 -264 0 0 232 -264 0 0 233 -264 0 0 229 -243 0 0 227 -243 0 0 228 -243 0 0 226 -243 0 0 224 -243 0 0 225 -243 0 0 214 -73 0 0 199 -73 0 0 196 -196 0 0 117 -225 0 0 111 -264 0 0 101 -264 0 0 97 -243 0 0 79 -73 0 0 67 -73 0 0 65 -196 0 0 59 -178 0 0 58 -178 0 0 46 -339 0 0 45 -301 0 0 44 -339 0 0
EndChar
StartChar: Z
Encoding: 90 90 61
Width: 1485
Flags: W
Fore
260 1493 m 1,0,-1
 1516 1493 l 1,1,-1
 1468 1255 l 1,2,-1
 500 291 l 1,3,-1
 1305 291 l 1,4,-1
 1247 0 l 1,5,-1
 -53 0 l 1,6,-1
 -8 238 l 1,7,-1
 963 1202 l 1,8,-1
 203 1202 l 1,9,-1
 260 1493 l 1,0,-1
EndSplineSet
KernsSLIF: 45 -149 0 0
EndChar
StartChar: bracketleft
Encoding: 91 91 62
Width: 936
Flags: W
Fore
334 1556 m 1,0,-1
 954 1556 l 1,1,-1
 909 1331 l 1,2,-1
 631 1331 l 1,3,-1
 362 -45 l 1,4,-1
 643 -45 l 1,5,-1
 598 -270 l 1,6,-1
 -20 -270 l 1,7,-1
 334 1556 l 1,0,-1
EndSplineSet
EndChar
StartChar: backslash
Encoding: 92 92 63
Width: 748
Flags: W
Fore
344 -190 m 1,0,-1
 145 1493 l 1,1,-1
 367 1493 l 1,2,-1
 565 -190 l 1,3,-1
 344 -190 l 1,0,-1
EndSplineSet
EndChar
StartChar: bracketright
Encoding: 93 93 64
Width: 936
Flags: W
Fore
563 -270 m 1,0,-1
 -57 -270 l 1,1,-1
 -14 -45 l 1,2,-1
 266 -45 l 1,3,-1
 535 1331 l 1,4,-1
 254 1331 l 1,5,-1
 297 1556 l 1,6,-1
 918 1556 l 1,7,-1
 563 -270 l 1,0,-1
EndSplineSet
EndChar
StartChar: asciicircum
Encoding: 94 94 65
Width: 1716
Flags: W
Fore
981 1493 m 1,0,-1
 1509 936 l 1,1,-1
 1268 936 l 1,2,-1
 858 1237 l 1,3,-1
 449 936 l 1,4,-1
 207 936 l 1,5,-1
 735 1493 l 1,6,-1
 981 1493 l 1,0,-1
EndSplineSet
EndChar
StartChar: underscore
Encoding: 95 95 66
Width: 1024
Flags: W
Fore
1044 -225 m 1,0,-1
 1044 -483 l 1,1,-1
 -20 -483 l 1,2,-1
 -20 -225 l 1,3,-1
 1044 -225 l 1,0,-1
EndSplineSet
EndChar
StartChar: grave
Encoding: 96 96 67
Width: 1024
Flags: W
Fore
551 1638 m 1,0,-1
 760 1262 l 1,1,-1
 563 1262 l 1,2,-1
 268 1638 l 1,3,-1
 551 1638 l 1,0,-1
EndSplineSet
EndChar
StartChar: a
Encoding: 97 97 68
Width: 1382
Flags: W
Fore
674 504 m 2,0,1
 540 504 540 504 471.5 462.5 c 128,-1,2
 403 421 403 421 403 340 c 0,3,4
 403 279 403 279 443.5 244 c 128,-1,5
 484 209 484 209 555 209 c 0,6,7
 665 209 665 209 739 275.5 c 128,-1,8
 813 342 813 342 838 463 c 1,9,-1
 846 504 l 1,10,-1
 674 504 l 2,0,1
1233 639 m 2,11,-1
 1108 0 l 1,12,-1
 750 0 l 1,13,-1
 780 166 l 1,14,15
 692 66 692 66 594 18.5 c 128,-1,16
 496 -29 496 -29 381 -29 c 0,17,18
 222 -29 222 -29 128.5 53.5 c 128,-1,19
 35 136 35 136 35 276 c 0,20,21
 35 490 35 490 200.5 603.5 c 128,-1,22
 366 717 366 717 678 717 c 2,23,-1
 889 717 l 1,24,-1
 893 745 l 1,25,26
 896 759 896 759 896.5 765 c 128,-1,27
 897 771 897 771 897 776 c 0,28,29
 897 842 897 842 834.5 875.5 c 128,-1,30
 772 909 772 909 649 909 c 0,31,32
 538 909 538 909 434 886 c 128,-1,33
 330 863 330 863 233 817 c 1,34,-1
 287 1090 l 1,35,36
 399 1118 399 1118 516.5 1132.5 c 128,-1,37
 634 1147 634 1147 760 1147 c 0,38,39
 1009 1147 1009 1147 1130 1061.5 c 128,-1,40
 1251 976 1251 976 1251 801 c 0,41,42
 1251 767 1251 767 1246.5 726.5 c 128,-1,43
 1242 686 1242 686 1233 639 c 2,11,-1
EndSplineSet
KernsSLIF: 253 -63 0 0 255 -63 0 0 121 -63 0 0
EndChar
StartChar: b
Encoding: 98 98 69
Width: 1466
Flags: W
Fore
831 887 m 0,0,1
 693 887 693 887 605.5 759.5 c 128,-1,2
 518 632 518 632 518 428 c 0,3,4
 518 336 518 336 567.5 283.5 c 128,-1,5
 617 231 617 231 705 231 c 0,6,7
 840 231 840 231 928 356.5 c 128,-1,8
 1016 482 1016 482 1016 678 c 0,9,10
 1016 780 1016 780 968.5 833.5 c 128,-1,11
 921 887 921 887 831 887 c 0,0,1
455 162 m 1,12,-1
 422 0 l 1,13,-1
 63 0 l 1,14,-1
 365 1556 l 1,15,-1
 725 1556 l 1,16,-1
 608 956 l 1,17,18
 690 1054 690 1054 780 1100.5 c 128,-1,19
 870 1147 870 1147 977 1147 c 0,20,21
 1166 1147 1166 1147 1276 1027 c 128,-1,22
 1386 907 1386 907 1386 700 c 0,23,24
 1386 571 1386 571 1347.5 449 c 128,-1,25
 1309 327 1309 327 1237 227 c 0,26,27
 1146 101 1146 101 1031.5 36 c 128,-1,28
 917 -29 917 -29 786 -29 c 0,29,30
 671 -29 671 -29 590.5 17.5 c 128,-1,31
 510 64 510 64 455 162 c 1,12,-1
EndSplineSet
EndChar
StartChar: c
Encoding: 99 99 70
Width: 1214
Flags: W
Fore
1190 1085 m 1,0,-1
 1133 793 l 1,1,2
 1061 841 1061 841 991 866 c 128,-1,3
 921 891 921 891 854 891 c 0,4,5
 679 891 679 891 568 773.5 c 128,-1,6
 457 656 457 656 457 473 c 0,7,8
 457 356 457 356 526 291.5 c 128,-1,9
 595 227 595 227 721 227 c 0,10,11
 805 227 805 227 886 252 c 128,-1,12
 967 277 967 277 1040 326 c 1,13,-1
 985 33 l 1,14,15
 896 2 896 2 806 -13.5 c 128,-1,16
 716 -29 716 -29 625 -29 c 0,17,18
 361 -29 361 -29 218.5 89.5 c 128,-1,19
 76 208 76 208 76 426 c 0,20,21
 76 563 76 563 128.5 692 c 128,-1,22
 181 821 181 821 279 924 c 0,23,24
 388 1037 388 1037 529 1092 c 128,-1,25
 670 1147 670 1147 854 1147 c 0,26,27
 939 1147 939 1147 1023 1131.5 c 128,-1,28
 1107 1116 1107 1116 1190 1085 c 1,0,-1
EndSplineSet
EndChar
StartChar: d
Encoding: 100 100 71
Width: 1466
Flags: W
Fore
629 231 m 0,0,1
 767 231 767 231 853.5 358 c 128,-1,2
 940 485 940 485 940 690 c 0,3,4
 940 783 940 783 891.5 835 c 128,-1,5
 843 887 843 887 756 887 c 0,6,7
 620 887 620 887 532 761.5 c 128,-1,8
 444 636 444 636 444 440 c 0,9,10
 444 338 444 338 491.5 284.5 c 128,-1,11
 539 231 539 231 629 231 c 0,0,1
1006 956 m 1,12,-1
 1122 1556 l 1,13,-1
 1483 1556 l 1,14,-1
 1180 0 l 1,15,-1
 819 0 l 1,16,-1
 852 162 l 1,17,18
 770 64 770 64 680 17.5 c 128,-1,19
 590 -29 590 -29 483 -29 c 0,20,21
 294 -29 294 -29 184 91 c 128,-1,22
 74 211 74 211 74 418 c 0,23,24
 74 547 74 547 112.5 669 c 128,-1,25
 151 791 151 791 223 891 c 0,26,27
 314 1017 314 1017 428.5 1082 c 128,-1,28
 543 1147 543 1147 674 1147 c 0,29,30
 789 1147 789 1147 869.5 1100.5 c 128,-1,31
 950 1054 950 1054 1006 956 c 1,12,-1
EndSplineSet
EndChar
StartChar: e
Encoding: 101 101 72
Width: 1389
Flags: W
Fore
1288 518 m 1,0,-1
 1276 461 l 1,1,-1
 438 461 l 1,2,3
 438 455 438 455 437 443.5 c 128,-1,4
 436 432 436 432 436 426 c 0,5,6
 436 317 436 317 501.5 263 c 128,-1,7
 567 209 567 209 698 209 c 0,8,9
 811 209 811 209 936.5 243 c 128,-1,10
 1062 277 1062 277 1200 344 c 1,11,-1
 1145 66 l 1,12,13
 1014 18 1014 18 884.5 -5.5 c 128,-1,14
 755 -29 755 -29 621 -29 c 0,15,16
 359 -29 359 -29 216.5 92 c 128,-1,17
 74 213 74 213 74 434 c 0,18,19
 74 562 74 562 119.5 682.5 c 128,-1,20
 165 803 165 803 252 903 c 0,21,22
 355 1023 355 1023 498.5 1085 c 128,-1,23
 642 1147 642 1147 817 1147 c 0,24,25
 1044 1147 1044 1147 1177.5 1026 c 128,-1,26
 1311 905 1311 905 1311 700 c 0,27,28
 1311 660 1311 660 1305.5 615.5 c 128,-1,29
 1300 571 1300 571 1288 518 c 1,0,-1
950 682 m 1,30,31
 953 695 953 695 954.5 708.5 c 128,-1,32
 956 722 956 722 956 735 c 0,33,34
 956 815 956 815 908 862 c 128,-1,35
 860 909 860 909 778 909 c 0,36,37
 673 909 673 909 599.5 851.5 c 128,-1,38
 526 794 526 794 487 682 c 1,39,-1
 950 682 l 1,30,31
EndSplineSet
EndChar
StartChar: f
Encoding: 102 102 73
Width: 891
Flags: W
Fore
1106 1556 m 1,0,-1
 1059 1321 l 1,1,-1
 862 1321 l 2,2,3
 787 1321 787 1321 752.5 1293.5 c 128,-1,4
 718 1266 718 1266 705 1199 c 1,5,-1
 688 1120 l 1,6,-1
 991 1120 l 1,7,-1
 942 864 l 1,8,-1
 639 864 l 1,9,-1
 471 0 l 1,10,-1
 111 0 l 1,11,-1
 279 864 l 1,12,-1
 102 864 l 1,13,-1
 152 1120 l 1,14,-1
 328 1120 l 1,15,-1
 344 1198 l 1,16,17
 381 1384 381 1384 498 1470 c 128,-1,18
 615 1556 615 1556 831 1556 c 2,19,-1
 1106 1556 l 1,0,-1
EndSplineSet
KernsSLIF: 8217 141 0 0 8221 86 0 0 46 -112 0 0 45 -36 0 0 44 -112 0 0
EndChar
StartChar: g
Encoding: 103 103 74
Width: 1466
Flags: W
Fore
856 190 m 1,0,1
 770 92 770 92 681 46 c 128,-1,2
 592 0 592 0 487 0 c 0,3,4
 297 0 297 0 186.5 122.5 c 128,-1,5
 76 245 76 245 76 457 c 0,6,7
 76 570 76 570 114.5 683.5 c 128,-1,8
 153 797 153 797 225 897 c 0,9,10
 313 1018 313 1018 427 1081.5 c 128,-1,11
 541 1145 541 1145 672 1145 c 0,12,13
 790 1145 790 1145 870.5 1099 c 128,-1,14
 951 1053 951 1053 1006 954 c 1,15,-1
 1036 1120 l 1,16,-1
 1397 1120 l 1,17,-1
 1208 147 l 1,18,19
 1150 -154 1150 -154 960 -298 c 128,-1,20
 770 -442 770 -442 432 -442 c 0,21,22
 328 -442 328 -442 231.5 -426 c 128,-1,23
 135 -410 135 -410 41 -377 c 1,24,-1
 94 -98 l 1,25,26
 179 -152 179 -152 264 -178.5 c 128,-1,27
 349 -205 349 -205 438 -205 c 0,28,29
 616 -205 616 -205 711.5 -129 c 128,-1,30
 807 -53 807 -53 840 113 c 1,31,-1
 856 190 l 1,0,1
756 887 m 0,32,33
 624 887 624 887 536.5 768 c 128,-1,34
 449 649 449 649 449 469 c 0,35,36
 449 367 449 367 496 313.5 c 128,-1,37
 543 260 543 260 633 260 c 0,38,39
 764 260 764 260 852 378.5 c 128,-1,40
 940 497 940 497 940 674 c 0,41,42
 940 778 940 778 893 832.5 c 128,-1,43
 846 887 846 887 756 887 c 0,32,33
EndSplineSet
EndChar
StartChar: h
Encoding: 104 104 75
Width: 1458
Flags: W
Fore
1321 682 m 2,0,-1
 1188 0 l 1,1,-1
 829 0 l 1,2,-1
 942 584 l 1,3,4
 954 641 954 641 960.5 680.5 c 128,-1,5
 967 720 967 720 967 743 c 0,6,7
 967 807 967 807 931.5 842 c 128,-1,8
 896 877 896 877 831 877 c 0,9,10
 720 877 720 877 640.5 790.5 c 128,-1,11
 561 704 561 704 530 551 c 1,12,-1
 422 0 l 1,13,-1
 63 0 l 1,14,-1
 365 1556 l 1,15,-1
 725 1556 l 1,16,-1
 608 956 l 1,17,18
 707 1053 707 1053 807 1100 c 128,-1,19
 907 1147 907 1147 1016 1147 c 0,20,21
 1171 1147 1171 1147 1255 1066 c 128,-1,22
 1339 985 1339 985 1339 838 c 0,23,24
 1339 806 1339 806 1334.5 767 c 128,-1,25
 1330 728 1330 728 1321 682 c 2,0,-1
EndSplineSet
EndChar
StartChar: i
Encoding: 105 105 76
Width: 702
Flags: W
Fore
281 1120 m 1,0,-1
 641 1120 l 1,1,-1
 422 0 l 1,2,-1
 63 0 l 1,3,-1
 281 1120 l 1,0,-1
365 1556 m 1,4,-1
 725 1556 l 1,5,-1
 668 1264 l 1,6,-1
 307 1264 l 1,7,-1
 365 1556 l 1,4,-1
EndSplineSet
EndChar
StartChar: j
Encoding: 106 106 77
Width: 702
Flags: W
Fore
281 1120 m 1,0,-1
 641 1120 l 1,1,-1
 426 20 l 2,2,3
 380 -215 380 -215 254.5 -328.5 c 128,-1,4
 129 -442 129 -442 -84 -442 c 2,5,-1
 -262 -442 l 1,6,-1
 -217 -207 l 1,7,-1
 -154 -207 l 2,8,9
 -53 -207 -53 -207 -6.5 -161.5 c 128,-1,10
 40 -116 40 -116 66 20 c 1,11,-1
 281 1120 l 1,0,-1
365 1556 m 1,12,-1
 725 1556 l 1,13,-1
 668 1264 l 1,14,-1
 307 1264 l 1,15,-1
 365 1556 l 1,12,-1
EndSplineSet
EndChar
StartChar: k
Encoding: 107 107 78
Width: 1362
Flags: W
Fore
365 1556 m 1,0,-1
 725 1556 l 1,1,-1
 561 713 l 1,2,-1
 1044 1120 l 1,3,-1
 1466 1120 l 1,4,-1
 815 602 l 1,5,-1
 1288 0 l 1,6,-1
 879 0 l 1,7,-1
 516 483 l 1,8,-1
 422 0 l 1,9,-1
 63 0 l 1,10,-1
 365 1556 l 1,0,-1
EndSplineSet
KernsSLIF: 283 -73 0 0 339 -73 0 0 248 -45 0 0 245 -73 0 0 246 -73 0 0 244 -73 0 0 242 -73 0 0 243 -73 0 0 235 -73 0 0 234 -73 0 0 232 -73 0 0 233 -73 0 0 111 -73 0 0 101 -73 0 0
EndChar
StartChar: l
Encoding: 108 108 79
Width: 702
Flags: W
Fore
365 1556 m 1,0,-1
 725 1556 l 1,1,-1
 422 0 l 1,2,-1
 63 0 l 1,3,-1
 365 1556 l 1,0,-1
EndSplineSet
EndChar
StartChar: m
Encoding: 109 109 80
Width: 2134
Flags: W
Fore
1284 934 m 1,0,1
 1367 1037 1367 1037 1472.5 1092 c 128,-1,2
 1578 1147 1578 1147 1692 1147 c 0,3,4
 1842 1147 1842 1147 1928.5 1064.5 c 128,-1,5
 2015 982 2015 982 2015 838 c 0,6,7
 2015 808 2015 808 2010.5 769.5 c 128,-1,8
 2006 731 2006 731 1997 682 c 1,9,-1
 1864 0 l 1,10,-1
 1503 0 l 1,11,-1
 1616 584 l 1,12,-1
 1619 599 l 2,13,14
 1645 723 1645 723 1645 758 c 0,15,16
 1645 813 1645 813 1613.5 845 c 128,-1,17
 1582 877 1582 877 1528 877 c 0,18,19
 1425 877 1425 877 1353.5 792.5 c 128,-1,20
 1282 708 1282 708 1251 551 c 2,21,-1
 1143 0 l 1,22,-1
 782 0 l 1,23,-1
 897 584 l 1,24,25
 912 659 912 659 918 697.5 c 128,-1,26
 924 736 924 736 924 758 c 0,27,28
 924 814 924 814 893 845.5 c 128,-1,29
 862 877 862 877 807 877 c 0,30,31
 708 877 708 877 633.5 789.5 c 128,-1,32
 559 702 559 702 530 551 c 1,33,-1
 422 0 l 1,34,-1
 63 0 l 1,35,-1
 281 1120 l 1,36,-1
 641 1120 l 1,37,-1
 608 956 l 1,38,39
 692 1051 692 1051 787 1099 c 128,-1,40
 882 1147 882 1147 985 1147 c 0,41,42
 1101 1147 1101 1147 1184 1087.5 c 128,-1,43
 1267 1028 1267 1028 1284 934 c 1,0,1
EndSplineSet
EndChar
StartChar: n
Encoding: 110 110 81
Width: 1458
Flags: W
Fore
1321 682 m 2,0,-1
 1188 0 l 1,1,-1
 829 0 l 1,2,-1
 942 584 l 1,3,4
 954 641 954 641 960.5 680.5 c 128,-1,5
 967 720 967 720 967 743 c 0,6,7
 967 807 967 807 931.5 842 c 128,-1,8
 896 877 896 877 831 877 c 0,9,10
 720 877 720 877 640.5 790.5 c 128,-1,11
 561 704 561 704 530 551 c 1,12,-1
 422 0 l 1,13,-1
 63 0 l 1,14,-1
 281 1120 l 1,15,-1
 641 1120 l 1,16,-1
 608 956 l 1,17,18
 707 1053 707 1053 807 1100 c 128,-1,19
 907 1147 907 1147 1016 1147 c 0,20,21
 1171 1147 1171 1147 1255 1066 c 128,-1,22
 1339 985 1339 985 1339 838 c 0,23,24
 1339 806 1339 806 1334.5 767 c 128,-1,25
 1330 728 1330 728 1321 682 c 2,0,-1
EndSplineSet
EndChar
StartChar: o
Encoding: 111 111 82
Width: 1407
Flags: W
Fore
768 891 m 0,0,1
 629 891 629 891 539 765 c 128,-1,2
 449 639 449 639 449 444 c 0,3,4
 449 338 449 338 497.5 282.5 c 128,-1,5
 546 227 546 227 639 227 c 0,6,7
 778 227 778 227 868 353.5 c 128,-1,8
 958 480 958 480 958 676 c 0,9,10
 958 781 958 781 909.5 836 c 128,-1,11
 861 891 861 891 768 891 c 0,0,1
797 1147 m 0,12,13
 1047 1147 1047 1147 1190 1020 c 128,-1,14
 1333 893 1333 893 1333 674 c 0,15,16
 1333 547 1333 547 1288 427.5 c 128,-1,17
 1243 308 1243 308 1157 209 c 0,18,19
 1055 91 1055 91 916 31 c 128,-1,20
 777 -29 777 -29 606 -29 c 0,21,22
 359 -29 359 -29 216.5 98 c 128,-1,23
 74 225 74 225 74 444 c 0,24,25
 74 570 74 570 120 690.5 c 128,-1,26
 166 811 166 811 252 911 c 0,27,28
 352 1027 352 1027 490.5 1087 c 128,-1,29
 629 1147 629 1147 797 1147 c 0,12,13
EndSplineSet
EndChar
StartChar: p
Encoding: 112 112 83
Width: 1466
Flags: W
Fore
455 162 m 1,0,-1
 340 -426 l 1,1,-1
 -20 -426 l 1,2,-1
 281 1120 l 1,3,-1
 641 1120 l 1,4,-1
 608 956 l 1,5,6
 690 1054 690 1054 780 1100.5 c 128,-1,7
 870 1147 870 1147 977 1147 c 0,8,9
 1166 1147 1166 1147 1276 1027 c 128,-1,10
 1386 907 1386 907 1386 700 c 0,11,12
 1386 571 1386 571 1347.5 449 c 128,-1,13
 1309 327 1309 327 1237 227 c 0,14,15
 1146 101 1146 101 1031.5 36 c 128,-1,16
 917 -29 917 -29 786 -29 c 0,17,18
 671 -29 671 -29 590.5 17.5 c 128,-1,19
 510 64 510 64 455 162 c 1,0,-1
831 887 m 0,20,21
 693 887 693 887 605.5 759.5 c 128,-1,22
 518 632 518 632 518 428 c 0,23,24
 518 336 518 336 567.5 283.5 c 128,-1,25
 617 231 617 231 705 231 c 0,26,27
 840 231 840 231 928 356.5 c 128,-1,28
 1016 482 1016 482 1016 678 c 0,29,30
 1016 780 1016 780 968.5 833.5 c 128,-1,31
 921 887 921 887 831 887 c 0,20,21
EndSplineSet
EndChar
StartChar: q
Encoding: 113 113 84
Width: 1466
Flags: W
Fore
1006 956 m 1,0,-1
 1036 1120 l 1,1,-1
 1397 1120 l 1,2,-1
 1096 -426 l 1,3,-1
 735 -426 l 1,4,-1
 850 162 l 1,5,6
 770 64 770 64 680 17.5 c 128,-1,7
 590 -29 590 -29 483 -29 c 0,8,9
 294 -29 294 -29 184 91 c 128,-1,10
 74 211 74 211 74 418 c 0,11,12
 74 547 74 547 112.5 669 c 128,-1,13
 151 791 151 791 223 891 c 0,14,15
 314 1017 314 1017 428.5 1082 c 128,-1,16
 543 1147 543 1147 674 1147 c 0,17,18
 789 1147 789 1147 869.5 1100.5 c 128,-1,19
 950 1054 950 1054 1006 956 c 1,0,-1
629 231 m 0,20,21
 767 231 767 231 853.5 358 c 128,-1,22
 940 485 940 485 940 690 c 0,23,24
 940 783 940 783 891.5 835 c 128,-1,25
 843 887 843 887 756 887 c 0,26,27
 620 887 620 887 532 761.5 c 128,-1,28
 444 636 444 636 444 440 c 0,29,30
 444 338 444 338 491.5 284.5 c 128,-1,31
 539 231 539 231 629 231 c 0,20,21
EndSplineSet
EndChar
StartChar: r
Encoding: 114 114 85
Width: 1010
Flags: W
Fore
1053 815 m 1,0,1
 1016 836 1016 836 971 847 c 128,-1,2
 926 858 926 858 874 858 c 0,3,4
 737 858 737 858 646.5 770 c 128,-1,5
 556 682 556 682 524 516 c 1,6,-1
 422 0 l 1,7,-1
 63 0 l 1,8,-1
 281 1120 l 1,9,-1
 641 1120 l 1,10,-1
 602 928 l 1,11,12
 673 1034 673 1034 779.5 1090.5 c 128,-1,13
 886 1147 886 1147 1016 1147 c 0,14,15
 1035 1147 1035 1147 1059 1145 c 128,-1,16
 1083 1143 1083 1143 1116 1139 c 1,17,-1
 1053 815 l 1,0,1
EndSplineSet
KernsSLIF: 8217 86 0 0 8221 38 0 0 46 -292 0 0 44 -301 0 0
EndChar
StartChar: s
Encoding: 115 115 86
Width: 1219
Flags: W
Fore
1147 1085 m 1,0,-1
 1094 807 l 1,1,2
 989 857 989 857 885 883 c 128,-1,3
 781 909 781 909 688 909 c 0,4,5
 582 909 582 909 524.5 881.5 c 128,-1,6
 467 854 467 854 467 803 c 0,7,8
 467 773 467 773 499 755 c 128,-1,9
 531 737 531 737 625 717 c 1,10,-1
 690 705 l 1,11,12
 907 659 907 659 994 586.5 c 128,-1,13
 1081 514 1081 514 1081 385 c 0,14,15
 1081 190 1081 190 928 80.5 c 128,-1,16
 775 -29 775 -29 500 -29 c 0,17,18
 385 -29 385 -29 265 -11 c 128,-1,19
 145 7 145 7 20 43 c 1,20,-1
 74 324 l 1,21,22
 171 267 171 267 281.5 238 c 128,-1,23
 392 209 392 209 508 209 c 0,24,25
 621 209 621 209 678 236 c 128,-1,26
 735 263 735 263 735 315 c 0,27,28
 735 351 735 351 703 371 c 128,-1,29
 671 391 671 391 571 412 c 1,30,-1
 506 424 l 1,31,32
 314 464 314 464 232 542 c 128,-1,33
 150 620 150 620 150 758 c 0,34,35
 150 945 150 945 291.5 1046 c 128,-1,36
 433 1147 433 1147 696 1147 c 0,37,38
 811 1147 811 1147 922.5 1131.5 c 128,-1,39
 1034 1116 1034 1116 1147 1085 c 1,0,-1
EndSplineSet
EndChar
StartChar: t
Encoding: 116 116 87
Width: 979
Flags: W
Fore
737 1438 m 1,0,-1
 676 1120 l 1,1,-1
 1042 1120 l 1,2,-1
 991 864 l 1,3,-1
 625 864 l 1,4,-1
 533 390 l 1,5,6
 529 374 529 374 527.5 363 c 128,-1,7
 526 352 526 352 526 342 c 0,8,9
 526 296 526 296 556.5 276 c 128,-1,10
 587 256 587 256 659 256 c 2,11,-1
 844 256 l 1,12,-1
 793 0 l 1,13,-1
 492 0 l 2,14,15
 330 0 330 0 245 68 c 128,-1,16
 160 136 160 136 160 264 c 0,17,18
 160 292 160 292 163 324 c 128,-1,19
 166 356 166 356 172 389 c 1,20,-1
 264 864 l 1,21,-1
 88 864 l 1,22,-1
 137 1120 l 1,23,-1
 315 1120 l 1,24,-1
 377 1438 l 1,25,-1
 737 1438 l 1,0,-1
EndSplineSet
EndChar
StartChar: u
Encoding: 117 117 88
Width: 1458
Flags: W
Fore
139 436 m 2,0,-1
 270 1120 l 1,1,-1
 629 1120 l 1,2,-1
 516 537 l 1,3,4
 504 480 504 480 498 440 c 128,-1,5
 492 400 492 400 492 377 c 0,6,7
 492 314 492 314 527 279 c 128,-1,8
 562 244 562 244 627 244 c 0,9,10
 738 244 738 244 818 330 c 128,-1,11
 898 416 898 416 928 569 c 2,12,-1
 1036 1120 l 1,13,-1
 1395 1120 l 1,14,-1
 1178 0 l 1,15,-1
 817 0 l 1,16,-1
 850 164 l 1,17,18
 758 67 758 67 657 19 c 128,-1,19
 556 -29 556 -29 444 -29 c 0,20,21
 291 -29 291 -29 207 52 c 128,-1,22
 123 133 123 133 123 281 c 0,23,24
 123 316 123 316 127 355 c 128,-1,25
 131 394 131 394 139 436 c 2,0,-1
EndSplineSet
EndChar
StartChar: v
Encoding: 118 118 89
Width: 1335
Flags: W
Fore
129 1120 m 1,0,-1
 459 1120 l 1,1,-1
 604 338 l 1,2,-1
 1026 1120 l 1,3,-1
 1389 1120 l 1,4,-1
 731 0 l 1,5,-1
 352 0 l 1,6,-1
 129 1120 l 1,0,-1
EndSplineSet
KernsSLIF: 46 -167 0 0 44 -167 0 0
EndChar
StartChar: w
Encoding: 119 119 90
Width: 1892
Flags: W
Fore
178 1120 m 1,0,-1
 508 1120 l 1,1,-1
 547 350 l 1,2,-1
 885 1120 l 1,3,-1
 1169 1120 l 1,4,-1
 1210 352 l 1,5,-1
 1546 1120 l 1,6,-1
 1898 1120 l 1,7,-1
 1386 0 l 1,8,-1
 1006 0 l 1,9,-1
 969 770 l 1,10,-1
 627 0 l 1,11,-1
 256 0 l 1,12,-1
 178 1120 l 1,0,-1
EndSplineSet
KernsSLIF: 46 -131 0 0 44 -131 0 0
EndChar
StartChar: x
Encoding: 120 120 91
Width: 1321
Flags: W
Fore
453 573 m 1,0,-1
 156 1120 l 1,1,-1
 528 1120 l 1,2,-1
 694 788 l 1,3,-1
 985 1120 l 1,4,-1
 1374 1120 l 1,5,-1
 864 575 l 1,6,-1
 1176 0 l 1,7,-1
 803 0 l 1,8,-1
 627 354 l 1,9,-1
 305 0 l 1,10,-1
 -84 0 l 1,11,-1
 453 573 l 1,0,-1
EndSplineSet
EndChar
StartChar: y
Encoding: 121 121 92
Width: 1335
Flags: W
Fore
135 1120 m 1,0,-1
 473 1120 l 1,1,-1
 627 344 l 1,2,-1
 1024 1120 l 1,3,-1
 1407 1120 l 1,4,-1
 698 -106 l 1,5,6
 579 -313 579 -313 478 -377.5 c 128,-1,7
 377 -442 377 -442 217 -442 c 2,8,-1
 0 -442 l 1,9,-1
 37 -207 l 1,10,-1
 150 -207 l 2,11,12
 238 -207 238 -207 286.5 -177.5 c 128,-1,13
 335 -148 335 -148 373 -74 c 1,14,-1
 406 -14 l 1,15,-1
 135 1120 l 1,0,-1
EndSplineSet
KernsSLIF: 46 -188 0 0 44 -159 0 0
EndChar
StartChar: z
Encoding: 122 122 93
Width: 1192
Flags: W
Fore
223 1120 m 1,0,-1
 1200 1120 l 1,1,-1
 1151 870 l 1,2,-1
 453 256 l 1,3,-1
 1032 256 l 1,4,-1
 983 0 l 1,5,-1
 -18 0 l 1,6,-1
 29 250 l 1,7,-1
 729 864 l 1,8,-1
 174 864 l 1,9,-1
 223 1120 l 1,0,-1
EndSplineSet
EndChar
StartChar: braceleft
Encoding: 123 123 94
Width: 1458
Flags: W
Fore
1047 -109 m 1,0,-1
 1004 -334 l 1,1,-1
 786 -334 l 2,2,3
 607 -334 607 -334 516.5 -272.5 c 128,-1,4
 426 -211 426 -211 426 -88 c 0,5,6
 426 -66 426 -66 429.5 -36 c 128,-1,7
 433 -6 433 -6 440 34 c 1,8,-1
 477 227 l 1,9,10
 483 257 483 257 486 284.5 c 128,-1,11
 489 312 489 312 489 334 c 0,12,13
 489 422 489 422 443.5 458 c 128,-1,14
 398 494 398 494 281 494 c 2,15,-1
 217 494 l 1,16,-1
 262 717 l 1,17,-1
 324 717 l 2,18,19
 465 717 465 717 530.5 775 c 128,-1,20
 596 833 596 833 625 983 c 1,21,-1
 664 1188 l 2,22,23
 701 1381 701 1381 817.5 1468.5 c 128,-1,24
 934 1556 934 1556 1153 1556 c 2,25,-1
 1370 1556 l 1,26,-1
 1327 1331 l 1,27,-1
 1257 1331 l 2,28,29
 1118 1331 1118 1331 1066.5 1287.5 c 128,-1,30
 1015 1244 1015 1244 987 1102 c 2,31,-1
 954 936 l 1,32,33
 924 780 924 780 865 708.5 c 128,-1,34
 806 637 806 637 692 612 c 1,35,36
 772 591 772 591 809 546 c 128,-1,37
 846 501 846 501 846 424 c 0,38,39
 846 394 846 394 842 360.5 c 128,-1,40
 838 327 838 327 829 287 c 1,41,-1
 797 121 l 2,42,43
 788 75 788 75 785 51 c 128,-1,44
 782 27 782 27 782 10 c 0,45,46
 782 -57 782 -57 822.5 -83 c 128,-1,47
 863 -109 863 -109 979 -109 c 2,48,-1
 1047 -109 l 1,0,-1
EndSplineSet
EndChar
StartChar: bar
Encoding: 124 124 95
Width: 748
Flags: W
Fore
487 1565 m 1,0,-1
 487 -483 l 1,1,-1
 260 -483 l 1,2,-1
 260 1565 l 1,3,-1
 487 1565 l 1,0,-1
EndSplineSet
EndChar
StartChar: braceright
Encoding: 125 125 96
Width: 1458
Flags: W
Fore
133 -109 m 1,0,-1
 203 -109 l 2,1,2
 343 -109 343 -109 394.5 -64.5 c 128,-1,3
 446 -20 446 -20 473 121 c 1,4,-1
 506 287 l 1,5,6
 536 442 536 442 595.5 514 c 128,-1,7
 655 586 655 586 770 612 c 1,8,9
 690 631 690 631 652 676 c 128,-1,10
 614 721 614 721 614 799 c 0,11,12
 614 823 614 823 618.5 857 c 128,-1,13
 623 891 623 891 631 936 c 1,14,-1
 664 1102 l 1,15,16
 672 1144 672 1144 675 1169 c 128,-1,17
 678 1194 678 1194 678 1212 c 0,18,19
 678 1280 678 1280 637.5 1305.5 c 128,-1,20
 597 1331 597 1331 481 1331 c 2,21,-1
 414 1331 l 1,22,-1
 457 1556 l 1,23,-1
 676 1556 l 2,24,25
 855 1556 855 1556 944.5 1495 c 128,-1,26
 1034 1434 1034 1434 1034 1311 c 0,27,28
 1034 1283 1034 1283 1030.5 1252.5 c 128,-1,29
 1027 1222 1027 1222 1020 1188 c 1,30,-1
 981 983 l 1,31,32
 975 953 975 953 972 926 c 128,-1,33
 969 899 969 899 969 877 c 0,34,35
 969 789 969 789 1015.5 753 c 128,-1,36
 1062 717 1062 717 1178 717 c 2,37,-1
 1241 717 l 1,38,-1
 1196 494 l 1,39,-1
 1135 494 l 2,40,41
 994 494 994 494 928.5 435.5 c 128,-1,42
 863 377 863 377 834 227 c 2,43,-1
 797 35 l 2,44,45
 760 -158 760 -158 643 -246 c 128,-1,46
 526 -334 526 -334 307 -334 c 2,47,-1
 90 -334 l 1,48,-1
 133 -109 l 1,0,-1
EndSplineSet
EndChar
StartChar: asciitilde
Encoding: 126 126 97
Width: 1716
Flags: W
Fore
1499 850 m 1,0,-1
 1499 606 l 1,1,2
 1393 526 1393 526 1303.5 491.5 c 128,-1,3
 1214 457 1214 457 1118 457 c 0,4,5
 1011 457 1011 457 868 515 c 0,6,7
 854 521 854 521 846 524 c 0,8,9
 839 527 839 527 824 533 c 0,10,11
 669 594 669 594 575 594 c 0,12,13
 487 594 487 594 401 555.5 c 128,-1,14
 315 517 315 517 217 434 c 1,15,-1
 217 678 l 1,16,17
 324 758 324 758 413 792.5 c 128,-1,18
 502 827 502 827 598 827 c 0,19,20
 705 827 705 827 848 769 c 0,21,22
 863 763 863 763 870 760 c 0,23,24
 877 757 877 757 892 751 c 0,25,26
 1047 690 1047 690 1141 690 c 0,27,28
 1227 690 1227 690 1311.5 727.5 c 128,-1,29
 1396 765 1396 765 1499 850 c 1,0,-1
EndSplineSet
EndChar
StartChar: exclamdown
Encoding: 161 161 163
Width: 934
Flags: W
Fore
723 1137 m 1,0,-1
 362 1137 l 1,1,-1
 432 1493 l 1,2,-1
 793 1493 l 1,3,-1
 723 1137 l 1,0,-1
502 0 m 1,4,-1
 141 0 l 1,5,-1
 254 573 l 1,6,-1
 385 991 l 1,7,-1
 643 991 l 1,8,-1
 614 573 l 1,9,-1
 502 0 l 1,4,-1
EndSplineSet
EndChar
StartChar: cent
Encoding: 162 162 132
Width: 1425
Flags: W
Fore
741 856 m 1,0,1
 639 810 639 810 577.5 705.5 c 128,-1,2
 516 601 516 601 516 473 c 0,3,4
 516 399 516 399 544.5 344.5 c 128,-1,5
 573 290 573 290 625 264 c 1,6,-1
 741 856 l 1,0,1
1249 1085 m 1,7,-1
 1192 793 l 1,8,9
 1117 843 1117 843 1049.5 867 c 128,-1,10
 982 891 982 891 918 891 c 2,11,-1
 909 891 l 1,12,-1
 781 227 l 1,13,14
 870 229 870 229 949.5 253.5 c 128,-1,15
 1029 278 1029 278 1100 326 c 1,16,-1
 1044 33 l 1,17,18
 972 8 972 8 894 -7 c 128,-1,19
 816 -22 816 -22 731 -27 c 1,20,-1
 676 -313 l 1,21,-1
 514 -313 l 1,22,-1
 569 -23 l 1,23,24
 368 -1 368 -1 252.5 115.5 c 128,-1,25
 137 232 137 232 137 414 c 0,26,27
 137 705 137 705 319 906 c 128,-1,28
 501 1107 501 1107 797 1141 c 1,29,-1
 852 1432 l 1,30,-1
 1014 1432 l 1,31,-1
 959 1145 l 1,32,33
 1027 1143 1027 1143 1100 1128 c 128,-1,34
 1173 1113 1173 1113 1249 1085 c 1,7,-1
EndSplineSet
EndChar
StartChar: sterling
Encoding: 163 163 133
Width: 1425
Flags: W
Fore
1415 1466 m 1,0,-1
 1360 1180 l 1,1,2
 1301 1217 1301 1217 1231 1237 c 128,-1,3
 1161 1257 1161 1257 1090 1257 c 0,4,5
 965 1257 965 1257 895 1195.5 c 128,-1,6
 825 1134 825 1134 799 1001 c 2,7,-1
 766 831 l 1,8,-1
 1139 831 l 1,9,-1
 1094 592 l 1,10,-1
 719 592 l 1,11,-1
 655 266 l 1,12,-1
 1196 266 l 1,13,-1
 1145 0 l 1,14,-1
 14 0 l 1,15,-1
 66 266 l 1,16,-1
 291 266 l 1,17,-1
 354 592 l 1,18,-1
 162 592 l 1,19,-1
 207 831 l 1,20,-1
 401 831 l 1,21,-1
 434 1001 l 2,22,23
 486 1271 486 1271 637 1395.5 c 128,-1,24
 788 1520 788 1520 1063 1520 c 0,25,26
 1155 1520 1155 1520 1243 1506.5 c 128,-1,27
 1331 1493 1331 1493 1415 1466 c 1,0,-1
EndSplineSet
EndChar
StartChar: currency
Encoding: 164 164 189
Width: 1303
Flags: W
Fore
434 268 m 1,0,-1
 227 61 l 1,1,-1
 74 215 l 1,2,-1
 281 422 l 1,3,4
 253 471 253 471 239 524.5 c 128,-1,5
 225 578 225 578 225 641 c 0,6,7
 225 704 225 704 240 758 c 128,-1,8
 255 812 255 812 285 858 c 1,9,-1
 76 1063 l 1,10,-1
 229 1217 l 1,11,-1
 436 1010 l 1,12,13
 484 1040 484 1040 538 1054.5 c 128,-1,14
 592 1069 592 1069 653 1069 c 0,15,16
 707 1069 707 1069 761 1055.5 c 128,-1,17
 815 1042 815 1042 872 1014 c 1,18,-1
 1079 1221 l 1,19,-1
 1231 1067 l 1,20,-1
 1024 860 l 1,21,22
 1053 805 1053 805 1067 750 c 128,-1,23
 1081 695 1081 695 1081 641 c 0,24,25
 1081 578 1081 578 1066.5 525.5 c 128,-1,26
 1052 473 1052 473 1022 426 c 1,27,-1
 1229 219 l 1,28,-1
 1075 66 l 1,29,-1
 868 272 l 1,30,31
 822 242 822 242 769 227.5 c 128,-1,32
 716 213 716 213 653 213 c 0,33,34
 595 213 595 213 541 226.5 c 128,-1,35
 487 240 487 240 434 268 c 1,0,-1
653 422 m 0,36,37
 744 422 744 422 808 485.5 c 128,-1,38
 872 549 872 549 872 641 c 0,39,40
 872 733 872 733 808.5 796.5 c 128,-1,41
 745 860 745 860 653 860 c 0,42,43
 562 860 562 860 498 796.5 c 128,-1,44
 434 733 434 733 434 641 c 0,45,46
 434 548 434 548 497 485 c 128,-1,47
 560 422 560 422 653 422 c 0,36,37
EndSplineSet
EndChar
StartChar: yen
Encoding: 165 165 150
Width: 1425
Flags: W
Fore
1294 416 m 1,0,-1
 840 416 l 1,1,-1
 758 0 l 1,2,-1
 377 0 l 1,3,-1
 459 416 l 1,4,-1
 12 416 l 1,5,-1
 51 610 l 1,6,-1
 496 610 l 1,7,-1
 510 686 l 1,8,-1
 481 762 l 1,9,-1
 80 762 l 1,10,-1
 117 954 l 1,11,-1
 408 954 l 1,12,-1
 193 1493 l 1,13,-1
 561 1493 l 1,14,-1
 756 993 l 1,15,-1
 1141 1493 l 1,16,-1
 1546 1493 l 1,17,-1
 1106 954 l 1,18,-1
 1399 954 l 1,19,-1
 1362 762 l 1,20,-1
 954 762 l 1,21,-1
 895 686 l 1,22,-1
 877 610 l 1,23,-1
 1331 610 l 1,24,-1
 1294 416 l 1,0,-1
EndSplineSet
EndChar
StartChar: brokenbar
Encoding: 166 166 231
Width: 748
Flags: W
Fore
487 1432 m 1,0,-1
 487 674 l 1,1,-1
 260 674 l 1,2,-1
 260 1432 l 1,3,-1
 487 1432 l 1,0,-1
487 408 m 1,4,-1
 487 -350 l 1,5,-1
 260 -350 l 1,6,-1
 260 408 l 1,7,-1
 487 408 l 1,4,-1
EndSplineSet
EndChar
StartChar: section
Encoding: 167 167 134
Width: 1024
Flags: W
Fore
1012 1462 m 1,0,-1
 969 1235 l 1,1,2
 879 1275 879 1275 807 1294 c 128,-1,3
 735 1313 735 1313 674 1313 c 0,4,5
 594 1313 594 1313 547 1282.5 c 128,-1,6
 500 1252 500 1252 500 1202 c 0,7,8
 500 1172 500 1172 524.5 1147 c 128,-1,9
 549 1122 549 1122 606 1096 c 2,10,-1
 696 1055 l 2,11,12
 871 977 871 977 935 901.5 c 128,-1,13
 999 826 999 826 999 715 c 0,14,15
 999 592 999 592 922 497 c 128,-1,16
 845 402 845 402 698 344 c 1,17,18
 755 308 755 308 782 264 c 128,-1,19
 809 220 809 220 809 166 c 0,20,21
 809 4 809 4 668 -95.5 c 128,-1,22
 527 -195 527 -195 291 -195 c 0,23,24
 207 -195 207 -195 117 -180.5 c 128,-1,25
 27 -166 27 -166 -68 -137 c 1,26,-1
 -20 100 l 1,27,28
 82 57 82 57 162 35.5 c 128,-1,29
 242 14 242 14 303 14 c 0,30,31
 380 14 380 14 428.5 45.5 c 128,-1,32
 477 77 477 77 477 125 c 0,33,34
 477 156 477 156 453 179.5 c 128,-1,35
 429 203 429 203 350 240 c 2,36,-1
 215 301 l 2,37,38
 96 355 96 355 40 428.5 c 128,-1,39
 -16 502 -16 502 -16 604 c 0,40,41
 -16 727 -16 727 57.5 822.5 c 128,-1,42
 131 918 131 918 272 977 c 1,43,44
 220 1018 220 1018 195 1064 c 128,-1,45
 170 1110 170 1110 170 1163 c 0,46,47
 170 1319 170 1319 308.5 1419.5 c 128,-1,48
 447 1520 447 1520 668 1520 c 0,49,50
 751 1520 751 1520 837 1505.5 c 128,-1,51
 923 1491 923 1491 1012 1462 c 1,0,-1
444 854 m 1,52,53
 364 833 364 833 321.5 788.5 c 128,-1,54
 279 744 279 744 279 682 c 0,55,56
 279 621 279 621 327.5 578 c 128,-1,57
 376 535 376 535 539 471 c 1,58,59
 619 498 619 498 663 543.5 c 128,-1,60
 707 589 707 589 707 645 c 0,61,62
 707 706 707 706 650 752.5 c 128,-1,63
 593 799 593 799 444 854 c 1,52,53
EndSplineSet
EndChar
StartChar: dieresis
Encoding: 168 168 142
Width: 1024
Flags: W
Fore
358 1585 m 1,0,-1
 596 1585 l 1,1,-1
 547 1339 l 1,2,-1
 311 1339 l 1,3,-1
 358 1585 l 1,0,-1
756 1585 m 1,4,-1
 991 1585 l 1,5,-1
 942 1339 l 1,6,-1
 707 1339 l 1,7,-1
 756 1585 l 1,4,-1
EndSplineSet
Ligature: 0 1 'liga' space uni0308
EndChar
StartChar: copyright
Encoding: 169 169 139
Width: 2048
Flags: W
Fore
1323 1126 m 1,0,-1
 1323 911 l 1,1,2
 1266 948 1266 948 1210.5 965.5 c 128,-1,3
 1155 983 1155 983 1098 983 c 0,4,5
 985 983 985 983 921.5 919 c 128,-1,6
 858 855 858 855 858 741 c 0,7,8
 858 626 858 626 921 563 c 128,-1,9
 984 500 984 500 1098 500 c 0,10,11
 1162 500 1162 500 1219.5 518 c 128,-1,12
 1277 536 1277 536 1323 571 c 1,13,-1
 1323 358 l 1,14,15
 1258 336 1258 336 1192.5 324.5 c 128,-1,16
 1127 313 1127 313 1065 313 c 0,17,18
 854 313 854 313 727 430 c 128,-1,19
 600 547 600 547 600 741 c 0,20,21
 600 936 600 936 727 1052.5 c 128,-1,22
 854 1169 854 1169 1065 1169 c 0,23,24
 1134 1169 1134 1169 1198 1158.5 c 128,-1,25
 1262 1148 1262 1148 1323 1126 c 1,0,-1
1024 1331 m 0,26,27
 903 1331 903 1331 799 1287.5 c 128,-1,28
 695 1244 695 1244 608 1157 c 0,29,30
 521 1070 521 1070 477.5 966.5 c 128,-1,31
 434 863 434 863 434 741 c 0,32,33
 434 620 434 620 477.5 516.5 c 128,-1,34
 521 413 521 413 608 326 c 0,35,36
 694 240 694 240 798.5 197 c 128,-1,37
 903 154 903 154 1024 154 c 0,38,39
 1147 154 1147 154 1250 196.5 c 128,-1,40
 1353 239 1353 239 1440 326 c 0,41,42
 1527 413 1527 413 1570.5 516.5 c 128,-1,43
 1614 620 1614 620 1614 741 c 0,44,45
 1614 863 1614 863 1570.5 966.5 c 128,-1,46
 1527 1070 1527 1070 1440 1157 c 0,47,48
 1352 1245 1352 1245 1248.5 1288 c 128,-1,49
 1145 1331 1145 1331 1024 1331 c 0,26,27
1024 1485 m 0,50,51
 1176 1485 1176 1485 1307.5 1430 c 128,-1,52
 1439 1375 1439 1375 1548 1266 c 0,53,54
 1657 1157 1657 1157 1711 1026 c 128,-1,55
 1765 895 1765 895 1765 741 c 0,56,57
 1765 589 1765 589 1711 458.5 c 128,-1,58
 1657 328 1657 328 1548 219 c 0,59,60
 1439 110 1439 110 1307.5 55 c 128,-1,61
 1176 0 1176 0 1024 0 c 0,62,63
 872 0 872 0 740.5 55 c 128,-1,64
 609 110 609 110 500 219 c 0,65,66
 391 328 391 328 337 458.5 c 128,-1,67
 283 589 283 589 283 741 c 0,68,69
 283 895 283 895 337 1026 c 128,-1,70
 391 1157 391 1157 500 1266 c 0,71,72
 609 1375 609 1375 740.5 1430 c 128,-1,73
 872 1485 872 1485 1024 1485 c 0,50,51
EndSplineSet
EndChar
StartChar: ordfeminine
Encoding: 170 170 157
Width: 1155
Flags: W
Fore
127 573 m 1,0,-1
 942 573 l 1,1,-1
 903 373 l 1,2,-1
 88 373 l 1,3,-1
 127 573 l 1,0,-1
692 1081 m 2,4,5
 544 1081 544 1081 488 1052.5 c 128,-1,6
 432 1024 432 1024 432 954 c 0,7,8
 432 910 432 910 463 884 c 128,-1,9
 494 858 494 858 547 858 c 0,10,11
 631 858 631 858 696 914.5 c 128,-1,12
 761 971 761 971 778 1059 c 1,13,-1
 782 1081 l 1,14,-1
 692 1081 l 2,4,5
1069 1165 m 1,15,-1
 983 717 l 1,16,-1
 735 717 l 1,17,-1
 760 842 l 1,18,19
 694 766 694 766 618.5 731 c 128,-1,20
 543 696 543 696 442 696 c 0,21,22
 317 696 317 696 247.5 751.5 c 128,-1,23
 178 807 178 807 178 907 c 0,24,25
 178 1062 178 1062 301.5 1140.5 c 128,-1,26
 425 1219 425 1219 668 1219 c 2,27,-1
 809 1219 l 1,28,-1
 813 1239 l 2,29,30
 814 1243 814 1243 814.5 1248 c 128,-1,31
 815 1253 815 1253 815 1264 c 0,32,33
 815 1308 815 1308 776.5 1331 c 128,-1,34
 738 1354 738 1354 662 1354 c 0,35,36
 574 1354 574 1354 487 1336.5 c 128,-1,37
 400 1319 400 1319 315 1284 c 1,38,-1
 350 1464 l 1,39,40
 448 1492 448 1492 535.5 1506 c 128,-1,41
 623 1520 623 1520 698 1520 c 0,42,43
 884 1520 884 1520 981.5 1456 c 128,-1,44
 1079 1392 1079 1392 1079 1270 c 0,45,46
 1079 1239 1079 1239 1076.5 1213.5 c 128,-1,47
 1074 1188 1074 1188 1069 1165 c 1,15,-1
EndSplineSet
EndChar
StartChar: guillemotleft
Encoding: 171 171 169
Width: 1331
Flags: W
Fore
1217 1063 m 1,0,-1
 1167 811 l 1,1,-1
 821 582 l 1,2,-1
 1079 360 l 1,3,-1
 1036 137 l 1,4,-1
 614 506 l 1,5,-1
 651 692 l 1,6,-1
 1217 1063 l 1,0,-1
727 1063 m 1,7,-1
 678 811 l 1,8,-1
 332 582 l 1,9,-1
 590 360 l 1,10,-1
 547 137 l 1,11,-1
 125 506 l 1,12,-1
 162 692 l 1,13,-1
 727 1063 l 1,7,-1
EndSplineSet
EndChar
StartChar: logicalnot
Encoding: 172 172 164
Width: 1716
Flags: W
Fore
217 909 m 1,0,-1
 1499 909 l 1,1,-1
 1499 287 l 1,2,-1
 1264 287 l 1,3,-1
 1264 672 l 1,4,-1
 217 672 l 1,5,-1
 217 909 l 1,0,-1
EndSplineSet
EndChar
StartChar: sfthyphen
Encoding: 173 173 256
Width: 850
Flags: W
Fore
109 735 m 1,0,-1
 737 735 l 1,1,-1
 680 444 l 1,2,-1
 51 444 l 1,3,-1
 109 735 l 1,0,-1
EndSplineSet
EndChar
StartChar: registered
Encoding: 174 174 138
Width: 2048
Flags: W
Fore
1024 1331 m 0,0,1
 903 1331 903 1331 799 1287.5 c 128,-1,2
 695 1244 695 1244 608 1157 c 0,3,4
 521 1070 521 1070 477.5 966.5 c 128,-1,5
 434 863 434 863 434 741 c 0,6,7
 434 620 434 620 477.5 516.5 c 128,-1,8
 521 413 521 413 608 326 c 0,9,10
 694 240 694 240 798.5 197 c 128,-1,11
 903 154 903 154 1024 154 c 0,12,13
 1147 154 1147 154 1250 196.5 c 128,-1,14
 1353 239 1353 239 1440 326 c 0,15,16
 1527 413 1527 413 1570.5 516.5 c 128,-1,17
 1614 620 1614 620 1614 741 c 0,18,19
 1614 863 1614 863 1570.5 966.5 c 128,-1,20
 1527 1070 1527 1070 1440 1157 c 0,21,22
 1352 1245 1352 1245 1248.5 1288 c 128,-1,23
 1145 1331 1145 1331 1024 1331 c 0,0,1
967 1036 m 2,24,-1
 932 1036 l 1,25,-1
 932 829 l 1,26,-1
 967 829 l 2,27,28
 1045 829 1045 829 1084.5 855.5 c 128,-1,29
 1124 882 1124 882 1124 934 c 0,30,31
 1124 986 1124 986 1085.5 1011 c 128,-1,32
 1047 1036 1047 1036 967 1036 c 2,24,-1
1004 1174 m 2,33,34
 1180 1174 1180 1174 1267 1114.5 c 128,-1,35
 1354 1055 1354 1055 1354 934 c 0,36,37
 1354 848 1354 848 1301.5 792 c 128,-1,38
 1249 736 1249 736 1153 719 c 1,39,40
 1194 697 1194 697 1229.5 657 c 128,-1,41
 1265 617 1265 617 1294 559 c 2,42,-1
 1405 338 l 1,43,-1
 1176 338 l 1,44,-1
 1069 551 l 1,45,46
 1031 629 1031 629 1002 661.5 c 128,-1,47
 973 694 973 694 944 694 c 2,48,-1
 932 694 l 1,49,-1
 932 338 l 1,50,-1
 719 338 l 1,51,-1
 719 1174 l 1,52,-1
 1004 1174 l 2,33,34
1024 1485 m 0,53,54
 1176 1485 1176 1485 1307.5 1430 c 128,-1,55
 1439 1375 1439 1375 1548 1266 c 0,56,57
 1657 1157 1657 1157 1711 1026 c 128,-1,58
 1765 895 1765 895 1765 741 c 0,59,60
 1765 589 1765 589 1711 458.5 c 128,-1,61
 1657 328 1657 328 1548 219 c 0,62,63
 1439 110 1439 110 1307.5 55 c 128,-1,64
 1176 0 1176 0 1024 0 c 0,65,66
 872 0 872 0 740.5 55 c 128,-1,67
 609 110 609 110 500 219 c 0,68,69
 391 328 391 328 337 458.5 c 128,-1,70
 283 589 283 589 283 741 c 0,71,72
 283 895 283 895 337 1026 c 128,-1,73
 391 1157 391 1157 500 1266 c 0,74,75
 609 1375 609 1375 740.5 1430 c 128,-1,76
 872 1485 872 1485 1024 1485 c 0,53,54
EndSplineSet
EndChar
StartChar: macron
Encoding: 175 175 217
Width: 1024
Flags: W
Fore
354 1556 m 1,0,-1
 985 1556 l 1,1,-1
 948 1368 l 1,2,-1
 317 1368 l 1,3,-1
 354 1556 l 1,0,-1
EndSplineSet
Ligature: 0 1 'liga' space uni0304
EndChar
StartChar: degree
Encoding: 176 176 131
Width: 1024
Flags: W
Fore
512 1372 m 0,0,1
 440 1372 440 1372 390 1322 c 128,-1,2
 340 1272 340 1272 340 1200 c 0,3,4
 340 1128 340 1128 389.5 1079 c 128,-1,5
 439 1030 439 1030 512 1030 c 0,6,7
 584 1030 584 1030 634 1079.5 c 128,-1,8
 684 1129 684 1129 684 1200 c 0,9,10
 684 1272 684 1272 633.5 1322 c 128,-1,11
 583 1372 583 1372 512 1372 c 0,0,1
512 1534 m 0,12,13
 578 1534 578 1534 639 1508.5 c 128,-1,14
 700 1483 700 1483 748 1436 c 1,15,16
 795 1388 795 1388 819.5 1328 c 128,-1,17
 844 1268 844 1268 844 1200 c 0,18,19
 844 1133 844 1133 819.5 1072.5 c 128,-1,20
 795 1012 795 1012 750 967 c 0,21,22
 702 919 702 919 640 893.5 c 128,-1,23
 578 868 578 868 510 868 c 0,24,25
 369 868 369 868 273.5 963.5 c 128,-1,26
 178 1059 178 1059 178 1200 c 0,27,28
 178 1341 178 1341 274.5 1437.5 c 128,-1,29
 371 1534 371 1534 512 1534 c 0,12,13
EndSplineSet
EndChar
StartChar: plusminus
Encoding: 177 177 147
Width: 1716
Flags: W
Fore
977 1284 m 1,0,-1
 977 930 l 1,1,-1
 1499 930 l 1,2,-1
 1499 694 l 1,3,-1
 977 694 l 1,4,-1
 977 340 l 1,5,-1
 739 340 l 1,6,-1
 739 694 l 1,7,-1
 217 694 l 1,8,-1
 217 930 l 1,9,-1
 739 930 l 1,10,-1
 739 1284 l 1,11,-1
 977 1284 l 1,0,-1
217 238 m 1,12,-1
 1499 238 l 1,13,-1
 1499 0 l 1,14,-1
 217 0 l 1,15,-1
 217 238 l 1,12,-1
EndSplineSet
EndChar
StartChar: twosuperior
Encoding: 178 178 241
Width: 897
Flags: W
Fore
424 836 m 1,0,-1
 801 836 l 1,1,-1
 768 668 l 1,2,-1
 92 668 l 1,3,-1
 123 821 l 1,4,-1
 489 1087 l 2,5,6
 569 1145 569 1145 608 1194.5 c 128,-1,7
 647 1244 647 1244 647 1286 c 0,8,9
 647 1326 647 1326 614.5 1349 c 128,-1,10
 582 1372 582 1372 524 1372 c 0,11,12
 456 1372 456 1372 382.5 1349 c 128,-1,13
 309 1326 309 1326 238 1282 c 1,14,-1
 274 1468 l 1,15,16
 357 1494 357 1494 431.5 1507 c 128,-1,17
 506 1520 506 1520 575 1520 c 0,18,19
 724 1520 724 1520 803.5 1465.5 c 128,-1,20
 883 1411 883 1411 883 1311 c 0,21,22
 883 1232 883 1232 829 1157.5 c 128,-1,23
 775 1083 775 1083 655 999 c 2,24,-1
 424 836 l 1,0,-1
EndSplineSet
EndChar
StartChar: threesuperior
Encoding: 179 179 242
Width: 897
Flags: W
Fore
666 1120 m 1,0,1
 741 1107 741 1107 780 1060.5 c 128,-1,2
 819 1014 819 1014 819 938 c 0,3,4
 819 801 819 801 702 727 c 128,-1,5
 585 653 585 653 369 653 c 0,6,7
 289 653 289 653 216.5 665 c 128,-1,8
 144 677 144 677 82 700 c 1,9,-1
 115 872 l 1,10,11
 173 836 173 836 232.5 817.5 c 128,-1,12
 292 799 292 799 352 799 c 0,13,14
 461 799 461 799 522.5 837 c 128,-1,15
 584 875 584 875 584 942 c 0,16,17
 584 996 584 996 534.5 1021.5 c 128,-1,18
 485 1047 485 1047 381 1047 c 2,19,-1
 305 1047 l 1,20,-1
 332 1184 l 1,21,-1
 418 1184 l 2,22,23
 524 1184 524 1184 580.5 1213 c 128,-1,24
 637 1242 637 1242 637 1296 c 0,25,26
 637 1334 637 1334 599 1353 c 128,-1,27
 561 1372 561 1372 487 1372 c 0,28,29
 433 1372 433 1372 369.5 1359 c 128,-1,30
 306 1346 306 1346 229 1319 c 1,31,-1
 260 1485 l 1,32,33
 332 1502 332 1502 406 1511 c 128,-1,34
 480 1520 480 1520 553 1520 c 0,35,36
 708 1520 708 1520 791 1470 c 128,-1,37
 874 1420 874 1420 874 1327 c 0,38,39
 874 1246 874 1246 817.5 1190 c 128,-1,40
 761 1134 761 1134 666 1120 c 1,0,1
EndSplineSet
EndChar
StartChar: acute
Encoding: 180 180 141
Width: 1024
Flags: W
Fore
811 1638 m 1,0,-1
 1104 1638 l 1,1,-1
 666 1262 l 1,2,-1
 465 1262 l 1,3,-1
 811 1638 l 1,0,-1
EndSplineSet
LCarets: 0 65535 '    ' 1 0 
Ligature: 0 1 'liga' space acutecomb
EndChar
StartChar: mu
Encoding: 181 181 151
Width: 1507
Flags: W
Fore
-55 -428 m 1,0,-1
 246 1120 l 1,1,-1
 606 1120 l 1,2,-1
 479 469 l 2,3,4
 475 448 475 448 473 428 c 128,-1,5
 471 408 471 408 471 391 c 0,6,7
 471 318 471 318 514 279 c 128,-1,8
 557 240 557 240 639 240 c 0,9,10
 741 240 741 240 801 296 c 128,-1,11
 861 352 861 352 885 469 c 1,12,-1
 1012 1120 l 1,13,-1
 1372 1120 l 1,14,-1
 1227 371 l 2,15,16
 1223 350 1223 350 1221 332.5 c 128,-1,17
 1219 315 1219 315 1219 301 c 0,18,19
 1219 272 1219 272 1232.5 258 c 128,-1,20
 1246 244 1246 244 1274 244 c 0,21,22
 1291 244 1291 244 1310.5 249.5 c 128,-1,23
 1330 255 1330 255 1350 266 c 1,24,-1
 1300 16 l 1,25,26
 1243 -7 1243 -7 1194 -18 c 128,-1,27
 1145 -29 1145 -29 1100 -29 c 0,28,29
 1012 -29 1012 -29 962.5 9 c 128,-1,30
 913 47 913 47 893 129 c 1,31,32
 831 50 831 50 755.5 10.5 c 128,-1,33
 680 -29 680 -29 592 -29 c 0,34,35
 518 -29 518 -29 471.5 -5.5 c 128,-1,36
 425 18 425 18 403 66 c 1,37,-1
 307 -428 l 1,38,-1
 -55 -428 l 1,0,-1
EndSplineSet
EndChar
StartChar: paragraph
Encoding: 182 182 136
Width: 1303
Flags: W
Fore
715 1493 m 2,0,-1
 1235 1493 l 1,1,-1
 907 -197 l 1,2,-1
 717 -197 l 1,3,-1
 1016 1346 l 1,4,-1
 827 1346 l 1,5,-1
 526 -197 l 1,6,-1
 338 -197 l 1,7,-1
 502 649 l 1,8,9
 334 669 334 669 243 761 c 128,-1,10
 152 853 152 853 152 1001 c 0,11,12
 152 1216 152 1216 308.5 1354.5 c 128,-1,13
 465 1493 465 1493 715 1493 c 2,0,-1
EndSplineSet
EndChar
StartChar: periodcentered
Encoding: 183 183 195
Width: 778
Flags: W
Fore
248 905 m 1,0,-1
 608 905 l 1,1,-1
 532 518 l 1,2,-1
 172 518 l 1,3,-1
 248 905 l 1,0,-1
EndSplineSet
EndChar
StartChar: cedilla
Encoding: 184 184 221
Width: 1024
Flags: W
Fore
459 0 m 1,0,1
 496 -52 496 -52 513 -96 c 128,-1,2
 530 -140 530 -140 530 -182 c 0,3,4
 530 -286 530 -286 454.5 -343.5 c 128,-1,5
 379 -401 379 -401 242 -401 c 0,6,7
 193 -401 193 -401 144.5 -394.5 c 128,-1,8
 96 -388 96 -388 45 -375 c 1,9,-1
 74 -219 l 1,10,11
 114 -236 114 -236 154.5 -245 c 128,-1,12
 195 -254 195 -254 233 -254 c 0,13,14
 299 -254 299 -254 337 -225.5 c 128,-1,15
 375 -197 375 -197 375 -150 c 0,16,17
 375 -124 375 -124 361.5 -89.5 c 128,-1,18
 348 -55 348 -55 317 0 c 1,19,-1
 459 0 l 1,0,1
EndSplineSet
Ligature: 0 1 'liga' space uni0327
EndChar
StartChar: onesuperior
Encoding: 185 185 240
Width: 897
Flags: W
Fore
168 825 m 1,0,-1
 373 825 l 1,1,-1
 475 1346 l 1,2,-1
 242 1294 l 1,3,-1
 272 1454 l 1,4,-1
 516 1503 l 1,5,-1
 735 1503 l 1,6,-1
 602 825 l 1,7,-1
 809 825 l 1,8,-1
 778 668 l 1,9,-1
 137 668 l 1,10,-1
 168 825 l 1,0,-1
EndSplineSet
EndChar
StartChar: ordmasculine
Encoding: 186 186 158
Width: 1155
Flags: W
Fore
719 1520 m 0,0,1
 902 1520 902 1520 1009 1429.5 c 128,-1,2
 1116 1339 1116 1339 1116 1186 c 0,3,4
 1116 967 1116 967 968.5 832.5 c 128,-1,5
 821 698 821 698 578 698 c 0,6,7
 396 698 396 698 287 789.5 c 128,-1,8
 178 881 178 881 178 1032 c 0,9,10
 178 1249 178 1249 327 1384.5 c 128,-1,11
 476 1520 476 1520 719 1520 c 0,0,1
133 573 m 1,12,-1
 956 573 l 1,13,-1
 918 373 l 1,14,-1
 94 373 l 1,15,-1
 133 573 l 1,12,-1
694 1350 m 0,16,17
 595 1350 595 1350 530 1257.5 c 128,-1,18
 465 1165 465 1165 465 1024 c 0,19,20
 465 948 465 948 500 908 c 128,-1,21
 535 868 535 868 602 868 c 0,22,23
 701 868 701 868 766 960 c 128,-1,24
 831 1052 831 1052 831 1194 c 0,25,26
 831 1269 831 1269 795.5 1309.5 c 128,-1,27
 760 1350 760 1350 694 1350 c 0,16,17
EndSplineSet
EndChar
StartChar: guillemotright
Encoding: 187 187 170
Width: 1331
Flags: W
Fore
117 135 m 1,0,-1
 166 389 l 1,1,-1
 510 618 l 1,2,-1
 254 840 l 1,3,-1
 297 1063 l 1,4,-1
 717 692 l 1,5,-1
 682 506 l 1,6,-1
 117 135 l 1,0,-1
606 135 m 1,7,-1
 655 389 l 1,8,-1
 999 618 l 1,9,-1
 741 840 l 1,10,-1
 786 1063 l 1,11,-1
 1206 692 l 1,12,-1
 1171 506 l 1,13,-1
 606 135 l 1,7,-1
EndSplineSet
EndChar
StartChar: onequarter
Encoding: 188 188 243
Width: 2181
Flags: W
Fore
1700 651 m 1,0,-1
 1393 317 l 1,1,-1
 1632 317 l 1,2,-1
 1700 651 l 1,0,-1
1712 836 m 1,3,-1
 1962 836 l 1,4,-1
 1862 317 l 1,5,-1
 1997 317 l 1,6,-1
 1968 162 l 1,7,-1
 1831 162 l 1,8,-1
 1798 0 l 1,9,-1
 1569 0 l 1,10,-1
 1602 162 l 1,11,-1
 1210 162 l 1,12,-1
 1243 330 l 1,13,-1
 1712 836 l 1,3,-1
616 -29 m 1,14,-1
 371 -29 l 1,15,-1
 1606 1520 l 1,16,-1
 1851 1520 l 1,17,-1
 616 -29 l 1,14,-1
168 825 m 1,18,-1
 373 825 l 1,19,-1
 475 1346 l 1,20,-1
 242 1294 l 1,21,-1
 272 1454 l 1,22,-1
 516 1503 l 1,23,-1
 735 1503 l 1,24,-1
 602 825 l 1,25,-1
 809 825 l 1,26,-1
 778 668 l 1,27,-1
 137 668 l 1,28,-1
 168 825 l 1,18,-1
EndSplineSet
Ligature: 0 1 'frac' one slash four
Ligature: 0 1 'frac' one fraction four
EndChar
StartChar: onehalf
Encoding: 189 189 244
Width: 2181
Flags: W
Fore
1604 168 m 1,0,-1
 1978 168 l 1,1,-1
 1946 0 l 1,2,-1
 1272 0 l 1,3,-1
 1303 154 l 1,4,-1
 1669 420 l 2,5,6
 1750 478 1750 478 1788.5 526.5 c 128,-1,7
 1827 575 1827 575 1827 616 c 0,8,9
 1827 657 1827 657 1794 681 c 128,-1,10
 1761 705 1761 705 1704 705 c 0,11,12
 1636 705 1636 705 1561 681.5 c 128,-1,13
 1486 658 1486 658 1415 614 c 1,14,-1
 1452 801 l 1,15,16
 1535 827 1535 827 1609 839.5 c 128,-1,17
 1683 852 1683 852 1753 852 c 0,18,19
 1902 852 1902 852 1982 797.5 c 128,-1,20
 2062 743 2062 743 2062 643 c 0,21,22
 2062 564 2062 564 2008 490 c 128,-1,23
 1954 416 1954 416 1835 332 c 2,24,-1
 1604 168 l 1,0,-1
616 -29 m 1,25,-1
 371 -29 l 1,26,-1
 1606 1520 l 1,27,-1
 1851 1520 l 1,28,-1
 616 -29 l 1,25,-1
168 825 m 1,29,-1
 373 825 l 1,30,-1
 475 1346 l 1,31,-1
 242 1294 l 1,32,-1
 272 1454 l 1,33,-1
 516 1503 l 1,34,-1
 735 1503 l 1,35,-1
 602 825 l 1,36,-1
 809 825 l 1,37,-1
 778 668 l 1,38,-1
 137 668 l 1,39,-1
 168 825 l 1,29,-1
EndSplineSet
Ligature: 0 1 'frac' one slash two
Ligature: 0 1 'frac' one fraction two
EndChar
StartChar: threequarters
Encoding: 190 190 245
Width: 2181
Flags: W
Fore
674 1120 m 1,0,1
 750 1106 750 1106 789.5 1060 c 128,-1,2
 829 1014 829 1014 829 938 c 0,3,4
 829 801 829 801 712.5 727 c 128,-1,5
 596 653 596 653 379 653 c 0,6,7
 298 653 298 653 225 665 c 128,-1,8
 152 677 152 677 90 700 c 1,9,-1
 125 872 l 1,10,11
 183 836 183 836 242.5 817.5 c 128,-1,12
 302 799 302 799 362 799 c 0,13,14
 471 799 471 799 532.5 837 c 128,-1,15
 594 875 594 875 594 942 c 0,16,17
 594 996 594 996 545 1021.5 c 128,-1,18
 496 1047 496 1047 391 1047 c 2,19,-1
 315 1047 l 1,20,-1
 342 1184 l 1,21,-1
 428 1184 l 2,22,23
 534 1184 534 1184 589.5 1213 c 128,-1,24
 645 1242 645 1242 645 1296 c 0,25,26
 645 1334 645 1334 607.5 1353 c 128,-1,27
 570 1372 570 1372 498 1372 c 0,28,29
 442 1372 442 1372 377.5 1359 c 128,-1,30
 313 1346 313 1346 238 1319 c 1,31,-1
 270 1485 l 1,32,33
 342 1502 342 1502 416 1511 c 128,-1,34
 490 1520 490 1520 563 1520 c 0,35,36
 718 1520 718 1520 800.5 1470 c 128,-1,37
 883 1420 883 1420 883 1327 c 0,38,39
 883 1246 883 1246 826.5 1190 c 128,-1,40
 770 1134 770 1134 674 1120 c 1,0,1
1704 651 m 1,41,-1
 1399 317 l 1,42,-1
 1638 317 l 1,43,-1
 1704 651 l 1,41,-1
1718 836 m 1,44,-1
 1966 836 l 1,45,-1
 1866 317 l 1,46,-1
 2003 317 l 1,47,-1
 1972 162 l 1,48,-1
 1835 162 l 1,49,-1
 1804 0 l 1,50,-1
 1575 0 l 1,51,-1
 1606 162 l 1,52,-1
 1217 162 l 1,53,-1
 1247 330 l 1,54,-1
 1718 836 l 1,44,-1
631 -29 m 1,55,-1
 385 -29 l 1,56,-1
 1620 1520 l 1,57,-1
 1866 1520 l 1,58,-1
 631 -29 l 1,55,-1
EndSplineSet
Ligature: 0 1 'frac' three slash four
Ligature: 0 1 'frac' three fraction four
EndChar
StartChar: questiondown
Encoding: 191 191 162
Width: 1188
Flags: W
Fore
541 989 m 1,0,-1
 901 989 l 1,1,-1
 891 938 l 1,2,3
 876 858 876 858 833 796.5 c 128,-1,4
 790 735 790 735 659 633 c 1,5,-1
 584 573 l 1,6,7
 504 512 504 512 469 460 c 128,-1,8
 434 408 434 408 434 354 c 0,9,10
 434 297 434 297 474 266.5 c 128,-1,11
 514 236 514 236 590 236 c 0,12,13
 670 236 670 236 771.5 270 c 128,-1,14
 873 304 873 304 987 369 c 1,15,-1
 926 55 l 1,16,17
 799 13 799 13 693.5 -7 c 128,-1,18
 588 -27 588 -27 492 -27 c 0,19,20
 297 -27 297 -27 186.5 58.5 c 128,-1,21
 76 144 76 144 76 293 c 0,22,23
 76 412 76 412 129 506 c 128,-1,24
 182 600 182 600 309 702 c 2,25,-1
 385 762 l 2,26,27
 468 827 468 827 496 864.5 c 128,-1,28
 524 902 524 902 532 944 c 1,29,-1
 541 989 l 1,0,-1
930 1137 m 1,30,-1
 569 1137 l 1,31,-1
 639 1493 l 1,32,-1
 999 1493 l 1,33,-1
 930 1137 l 1,30,-1
EndSplineSet
EndChar
StartChar: Aring
Encoding: 197 197 99
Width: 1585
Flags: W
Fore
795 1616 m 0,0,1
 795 1562 795 1562 833.5 1523.5 c 128,-1,2
 872 1485 872 1485 926 1485 c 0,3,4
 980 1485 980 1485 1018.5 1523.5 c 128,-1,5
 1057 1562 1057 1562 1057 1616 c 0,6,7
 1057 1670 1057 1670 1018 1708.5 c 128,-1,8
 979 1747 979 1747 926 1747 c 0,9,10
 872 1747 872 1747 833.5 1708.5 c 128,-1,11
 795 1670 795 1670 795 1616 c 0,0,1
1155 1456 m 1,12,-1
 1415 0 l 1,13,-1
 1049 0 l 1,14,-1
 1006 272 l 1,15,-1
 410 272 l 1,16,-1
 262 0 l 1,17,-1
 -133 0 l 1,18,-1
 692 1458 l 1,19,20
 666 1495 666 1495 653.5 1533.5 c 128,-1,21
 641 1572 641 1572 641 1616 c 0,22,23
 641 1733 641 1733 724.5 1817 c 128,-1,24
 808 1901 808 1901 926 1901 c 0,25,26
 1043 1901 1043 1901 1126.5 1817 c 128,-1,27
 1210 1733 1210 1733 1210 1616 c 0,28,29
 1210 1568 1210 1568 1197 1529.5 c 128,-1,30
 1184 1491 1184 1491 1155 1456 c 1,12,-1
555 543 m 1,31,-1
 956 543 l 1,32,-1
 866 1118 l 1,33,-1
 555 543 l 1,31,-1
EndSplineSet
Ligature: 0 0 'liga' A uni030A
EndChar
StartChar: AE
Encoding: 198 198 144
Width: 2222
Flags: W
Fore
985 1237 m 1,0,-1
 610 627 l 1,1,-1
 987 627 l 1,2,-1
 1106 1237 l 1,3,-1
 985 1237 l 1,0,-1
774 1493 m 1,4,-1
 2195 1493 l 1,5,-1
 2138 1202 l 1,6,-1
 1485 1202 l 1,7,-1
 1432 924 l 1,8,-1
 2046 924 l 1,9,-1
 1989 633 l 1,10,-1
 1374 633 l 1,11,-1
 1309 291 l 1,12,-1
 1982 291 l 1,13,-1
 1927 0 l 1,14,-1
 866 0 l 1,15,-1
 934 350 l 1,16,-1
 442 350 l 1,17,-1
 225 0 l 1,18,-1
 -160 0 l 1,19,-1
 774 1493 l 1,4,-1
EndSplineSet
KernsSLIF: 45 -36 0 0
EndChar
StartChar: Eth
Encoding: 208 208 232
Width: 1731
Flags: W
Fore
696 1202 m 1,0,-1
 639 903 l 1,1,-1
 885 903 l 1,2,-1
 834 643 l 1,3,-1
 588 643 l 1,4,-1
 518 291 l 1,5,-1
 655 291 l 2,6,7
 926 291 926 291 1083.5 442.5 c 128,-1,8
 1241 594 1241 594 1241 850 c 0,9,10
 1241 1024 1241 1024 1137.5 1113 c 128,-1,11
 1034 1202 1034 1202 831 1202 c 2,12,-1
 696 1202 l 1,0,-1
367 1493 m 1,13,-1
 772 1493 l 2,14,15
 1062 1493 1062 1493 1207 1458.5 c 128,-1,16
 1352 1424 1352 1424 1448 1343 c 0,17,18
 1545 1262 1545 1262 1595 1146 c 128,-1,19
 1645 1030 1645 1030 1645 885 c 0,20,21
 1645 684 1645 684 1560.5 504 c 128,-1,22
 1476 324 1476 324 1325 201 c 0,23,24
 1193 92 1193 92 1018.5 46 c 128,-1,25
 844 0 844 0 481 0 c 2,26,-1
 76 0 l 1,27,-1
 201 643 l 1,28,-1
 -4 643 l 1,29,-1
 47 903 l 1,30,-1
 252 903 l 1,31,-1
 367 1493 l 1,13,-1
EndSplineSet
KernsSLIF: 221 -159 0 0 8222 -36 0 0 8218 -36 0 0 376 -159 0 0 89 -159 0 0 45 38 0 0
EndChar
StartChar: multiply
Encoding: 215 215 239
Width: 1716
Flags: W
Fore
1460 1075 m 1,0,-1
 1026 641 l 1,1,-1
 1460 209 l 1,2,-1
 1292 41 l 1,3,-1
 858 473 l 1,4,-1
 424 41 l 1,5,-1
 256 209 l 1,6,-1
 690 641 l 1,7,-1
 256 1075 l 1,8,-1
 424 1243 l 1,9,-1
 858 809 l 1,10,-1
 1292 1243 l 1,11,-1
 1460 1075 l 1,0,-1
EndSplineSet
EndChar
StartChar: Oslash
Encoding: 216 216 145
Width: 1741
Flags: W
Fore
1196 1128 m 1,0,1
 1156 1185 1156 1185 1095 1213 c 128,-1,2
 1034 1241 1034 1241 952 1241 c 0,3,4
 750 1241 750 1241 615.5 1062.5 c 128,-1,5
 481 884 481 884 481 612 c 0,6,7
 481 590 481 590 485 538 c 0,8,9
 485 532 l 1,10,-1
 1196 1128 l 1,0,1
158 258 m 1,11,12
 116 332 116 332 95 410.5 c 128,-1,13
 74 489 74 489 74 569 c 0,14,15
 74 752 74 752 129 914 c 128,-1,16
 184 1076 184 1076 291 1206 c 0,17,18
 420 1365 420 1365 596.5 1442.5 c 128,-1,19
 773 1520 773 1520 1006 1520 c 0,20,21
 1154 1520 1154 1520 1270.5 1481 c 128,-1,22
 1387 1442 1387 1442 1475 1364 c 1,23,-1
 1733 1579 l 1,24,-1
 1835 1456 l 1,25,-1
 1577 1243 l 1,26,27
 1622 1167 1622 1167 1644.5 1086 c 128,-1,28
 1667 1005 1667 1005 1667 920 c 0,29,30
 1667 738 1667 738 1611.5 576 c 128,-1,31
 1556 414 1556 414 1450 285 c 0,32,33
 1320 127 1320 127 1142 49 c 128,-1,34
 964 -29 964 -29 733 -29 c 0,35,36
 586 -29 586 -29 468 12 c 128,-1,37
 350 53 350 53 258 135 c 1,38,-1
 6 -78 l 1,39,-1
 -96 45 l 1,40,-1
 158 258 l 1,11,12
539 371 m 1,41,42
 578 312 578 312 639 281 c 128,-1,43
 700 250 700 250 778 250 c 0,44,45
 893 250 893 250 982.5 298.5 c 128,-1,46
 1072 347 1072 347 1135 442 c 0,47,48
 1195 534 1195 534 1228.5 648.5 c 128,-1,49
 1262 763 1262 763 1262 879 c 0,50,51
 1262 904 1262 904 1255 957 c 0,52,53
 1254 965 1254 965 1253 969 c 1,54,-1
 539 371 l 1,41,42
EndSplineSet
KernsSLIF: 221 -36 0 0 193 -36 0 0 194 -36 0 0 376 -36 0 0 195 -36 0 0 192 -36 0 0 196 -36 0 0 89 -36 0 0 88 -73 0 0 86 -36 0 0 65 -36 0 0 46 -45 0 0 45 38 0 0 44 -45 0 0
EndChar
StartChar: Thorn
Encoding: 222 222 236
Width: 1520
Flags: W
Fore
334 1493 m 1,0,-1
 719 1493 l 1,1,-1
 676 1270 l 1,2,-1
 922 1270 l 2,3,4
 1157 1270 1157 1270 1290 1162.5 c 128,-1,5
 1423 1055 1423 1055 1423 864 c 0,6,7
 1423 747 1423 747 1379.5 642.5 c 128,-1,8
 1336 538 1336 538 1253 459 c 0,9,10
 1164 373 1164 373 1039.5 334 c 128,-1,11
 915 295 915 295 731 295 c 2,12,-1
 485 295 l 1,13,-1
 428 0 l 1,14,-1
 43 0 l 1,15,-1
 334 1493 l 1,0,-1
621 993 m 1,16,-1
 541 573 l 1,17,-1
 745 573 l 2,18,19
 881 573 881 573 953.5 638 c 128,-1,20
 1026 703 1026 703 1026 825 c 0,21,22
 1026 907 1026 907 975.5 950 c 128,-1,23
 925 993 925 993 827 993 c 2,24,-1
 621 993 l 1,16,-1
EndSplineSet
EndChar
StartChar: germandbls
Encoding: 223 223 137
Width: 1473
Flags: W
Fore
279 1114 m 1,0,1
 321 1338 321 1338 475.5 1447 c 128,-1,2
 630 1556 630 1556 903 1556 c 0,3,4
 1129 1556 1129 1556 1246.5 1468 c 128,-1,5
 1364 1380 1364 1380 1364 1210 c 0,6,7
 1364 1190 1364 1190 1361.5 1166 c 128,-1,8
 1359 1142 1359 1142 1354 1115 c 1,9,-1
 1339 1042 l 1,10,11
 1188 1037 1188 1037 1099 990.5 c 128,-1,12
 1010 944 1010 944 1010 872 c 0,13,14
 1010 817 1010 817 1112 745 c 0,15,16
 1121 739 1121 739 1127 735 c 2,17,-1
 1188 692 l 2,18,19
 1272 633 1272 633 1311 563.5 c 128,-1,20
 1350 494 1350 494 1350 403 c 0,21,22
 1350 210 1350 210 1211 90.5 c 128,-1,23
 1072 -29 1072 -29 844 -29 c 0,24,25
 766 -29 766 -29 690.5 -16.5 c 128,-1,26
 615 -4 615 -4 541 20 c 1,27,-1
 590 264 l 1,28,29
 646 237 646 237 701.5 223 c 128,-1,30
 757 209 757 209 809 209 c 0,31,32
 891 209 891 209 941 247 c 128,-1,33
 991 285 991 285 991 346 c 0,34,35
 991 386 991 386 968 418.5 c 128,-1,36
 945 451 945 451 868 506 c 2,37,-1
 807 549 l 2,38,39
 740 596 740 596 710 646.5 c 128,-1,40
 680 697 680 697 680 760 c 0,41,42
 680 898 680 898 771.5 997 c 128,-1,43
 863 1096 863 1096 1036 1145 c 1,44,45
 1037 1151 1037 1151 1037.5 1159 c 128,-1,46
 1038 1167 1038 1167 1038 1182 c 0,47,48
 1038 1249 1038 1249 997 1284 c 128,-1,49
 956 1319 956 1319 877 1319 c 0,50,51
 775 1319 775 1319 716.5 1265.5 c 128,-1,52
 658 1212 658 1212 637 1100 c 1,53,-1
 422 0 l 1,54,-1
 63 0 l 1,55,-1
 279 1114 l 1,0,1
EndSplineSet
EndChar
StartChar: ae
Encoding: 230 230 160
Width: 2146
Flags: W
Fore
674 504 m 2,0,1
 540 504 540 504 471.5 462.5 c 128,-1,2
 403 421 403 421 403 340 c 0,3,4
 403 279 403 279 443.5 244 c 128,-1,5
 484 209 484 209 555 209 c 0,6,7
 665 209 665 209 739 275.5 c 128,-1,8
 813 342 813 342 838 463 c 1,9,-1
 846 504 l 1,10,-1
 674 504 l 2,0,1
291 1090 m 1,11,12
 408 1118 408 1118 519.5 1132.5 c 128,-1,13
 631 1147 631 1147 735 1147 c 0,14,15
 884 1147 884 1147 982 1110.5 c 128,-1,16
 1080 1074 1080 1074 1137 997 c 1,17,18
 1232 1074 1232 1074 1338.5 1110.5 c 128,-1,19
 1445 1147 1445 1147 1575 1147 c 0,20,21
 1798 1147 1798 1147 1931 1025 c 128,-1,22
 2064 903 2064 903 2064 702 c 0,23,24
 2064 657 2064 657 2059 611 c 128,-1,25
 2054 565 2054 565 2044 518 c 1,26,-1
 2030 461 l 1,27,-1
 1194 461 l 1,28,29
 1194 455 1194 455 1193 443.5 c 128,-1,30
 1192 432 1192 432 1192 426 c 0,31,32
 1192 317 1192 317 1257.5 263 c 128,-1,33
 1323 209 1323 209 1454 209 c 0,34,35
 1566 209 1566 209 1690.5 242.5 c 128,-1,36
 1815 276 1815 276 1954 344 c 1,37,-1
 1901 66 l 1,38,39
 1770 18 1770 18 1639.5 -5.5 c 128,-1,40
 1509 -29 1509 -29 1374 -29 c 0,41,42
 1201 -29 1201 -29 1083 22.5 c 128,-1,43
 965 74 965 74 899 178 c 1,44,45
 782 73 782 73 658.5 22 c 128,-1,46
 535 -29 535 -29 397 -29 c 0,47,48
 227 -29 227 -29 131 52 c 128,-1,49
 35 133 35 133 35 274 c 0,50,51
 35 490 35 490 200.5 603.5 c 128,-1,52
 366 717 366 717 682 717 c 2,53,-1
 887 717 l 1,54,-1
 893 746 l 1,55,56
 896 759 896 759 896.5 765 c 128,-1,57
 897 771 897 771 897 776 c 0,58,59
 897 842 897 842 835 875.5 c 128,-1,60
 773 909 773 909 653 909 c 0,61,62
 539 909 539 909 435.5 886 c 128,-1,63
 332 863 332 863 238 817 c 1,64,-1
 291 1090 l 1,11,12
1706 682 m 1,65,66
 1709 695 1709 695 1710.5 708.5 c 128,-1,67
 1712 722 1712 722 1712 735 c 0,68,69
 1712 815 1712 815 1663.5 862 c 128,-1,70
 1615 909 1615 909 1534 909 c 0,71,72
 1429 909 1429 909 1354.5 851 c 128,-1,73
 1280 793 1280 793 1243 682 c 1,74,-1
 1706 682 l 1,65,66
EndSplineSet
EndChar
StartChar: eth
Encoding: 240 240 233
Width: 1407
Flags: W
Fore
958 743 m 1,0,1
 906 770 906 770 855 783.5 c 128,-1,2
 804 797 804 797 752 797 c 0,3,4
 612 797 612 797 530.5 703 c 128,-1,5
 449 609 449 609 449 451 c 0,6,7
 449 342 449 342 499 284.5 c 128,-1,8
 549 227 549 227 643 227 c 0,9,10
 783 227 783 227 873 353.5 c 128,-1,11
 963 480 963 480 963 678 c 0,12,13
 963 691 963 691 959 731 c 0,14,15
 959 738 959 738 958 743 c 1,0,1
1204 1100 m 2,16,17
 1268 1008 1268 1008 1300.5 902 c 128,-1,18
 1333 796 1333 796 1333 680 c 0,19,20
 1333 550 1333 550 1287.5 428.5 c 128,-1,21
 1242 307 1242 307 1155 207 c 0,22,23
 1054 91 1054 91 914.5 31 c 128,-1,24
 775 -29 775 -29 604 -29 c 0,25,26
 363 -29 363 -29 218.5 96 c 128,-1,27
 74 221 74 221 74 426 c 0,28,29
 74 706 74 706 256 880.5 c 128,-1,30
 438 1055 438 1055 731 1055 c 0,31,32
 780 1055 780 1055 823.5 1048 c 128,-1,33
 867 1041 867 1041 903 1028 c 1,34,-1
 752 1243 l 1,35,-1
 367 1135 l 1,36,-1
 332 1264 l 1,37,-1
 672 1358 l 1,38,-1
 535 1556 l 1,39,-1
 887 1556 l 1,40,-1
 969 1440 l 1,41,-1
 1354 1546 l 1,42,-1
 1389 1419 l 1,43,-1
 1049 1325 l 1,44,-1
 1204 1100 l 2,16,17
EndSplineSet
EndChar
StartChar: divide
Encoding: 247 247 184
Width: 1716
Flags: W
Fore
705 395 m 1,0,-1
 1012 395 l 1,1,-1
 1012 86 l 1,2,-1
 705 86 l 1,3,-1
 705 395 l 1,0,-1
705 1198 m 1,4,-1
 1012 1198 l 1,5,-1
 1012 889 l 1,6,-1
 705 889 l 1,7,-1
 705 1198 l 1,4,-1
217 760 m 1,8,-1
 1499 760 l 1,9,-1
 1499 524 l 1,10,-1
 217 524 l 1,11,-1
 217 760 l 1,8,-1
EndSplineSet
EndChar
StartChar: oslash
Encoding: 248 248 161
Width: 1407
Flags: W
Fore
905 842 m 1,0,1
 882 866 882 866 847.5 878.5 c 128,-1,2
 813 891 813 891 768 891 c 0,3,4
 628 891 628 891 543.5 771.5 c 128,-1,5
 459 652 459 652 449 438 c 1,6,-1
 905 842 l 1,0,1
152 174 m 1,7,8
 113 233 113 233 93.5 301.5 c 128,-1,9
 74 370 74 370 74 446 c 0,10,11
 74 572 74 572 119.5 691.5 c 128,-1,12
 165 811 165 811 252 911 c 0,13,14
 352 1028 352 1028 490.5 1087.5 c 128,-1,15
 629 1147 629 1147 801 1147 c 0,16,17
 905 1147 905 1147 991 1124 c 128,-1,18
 1077 1101 1077 1101 1145 1055 c 1,19,-1
 1337 1223 l 1,20,-1
 1434 1112 l 1,21,-1
 1251 950 l 1,22,23
 1292 891 1292 891 1312.5 822 c 128,-1,24
 1333 753 1333 753 1333 674 c 0,25,26
 1333 547 1333 547 1288 427.5 c 128,-1,27
 1243 308 1243 308 1157 209 c 0,28,29
 1056 93 1056 93 915.5 32 c 128,-1,30
 775 -29 775 -29 606 -29 c 0,31,32
 497 -29 497 -29 409.5 -4.5 c 128,-1,33
 322 20 322 20 254 70 c 1,34,-1
 61 -102 l 1,35,-1
 -35 10 l 1,36,-1
 152 174 l 1,7,8
498 283 m 1,37,38
 523 255 523 255 557.5 241 c 128,-1,39
 592 227 592 227 639 227 c 0,40,41
 780 227 780 227 865.5 351 c 128,-1,42
 951 475 951 475 958 692 c 1,43,-1
 498 283 l 1,37,38
EndSplineSet
EndChar
StartChar: thorn
Encoding: 254 254 237
Width: 1466
Flags: W
Fore
455 162 m 1,0,-1
 340 -426 l 1,1,-1
 -20 -426 l 1,2,-1
 365 1556 l 1,3,-1
 725 1556 l 1,4,-1
 608 956 l 1,5,6
 690 1054 690 1054 780 1100.5 c 128,-1,7
 870 1147 870 1147 977 1147 c 0,8,9
 1166 1147 1166 1147 1276 1027 c 128,-1,10
 1386 907 1386 907 1386 700 c 0,11,12
 1386 571 1386 571 1347.5 449 c 128,-1,13
 1309 327 1309 327 1237 227 c 0,14,15
 1146 101 1146 101 1031.5 36 c 128,-1,16
 917 -29 917 -29 786 -29 c 0,17,18
 671 -29 671 -29 590.5 17.5 c 128,-1,19
 510 64 510 64 455 162 c 1,0,-1
831 887 m 0,20,21
 693 887 693 887 605.5 759.5 c 128,-1,22
 518 632 518 632 518 428 c 0,23,24
 518 336 518 336 567.5 283.5 c 128,-1,25
 617 231 617 231 705 231 c 0,26,27
 840 231 840 231 928 356.5 c 128,-1,28
 1016 482 1016 482 1016 678 c 0,29,30
 1016 780 1016 780 968.5 833.5 c 128,-1,31
 921 887 921 887 831 887 c 0,20,21
EndSplineSet
EndChar
StartChar: Dcroat
Encoding: 272 272 257
Width: 1731
Flags: HW
Fore
696 1202 m 1,0,-1
 639 903 l 1,1,-1
 885 903 l 1,2,-1
 834 643 l 1,3,-1
 588 643 l 1,4,-1
 518 291 l 1,5,-1
 655 291 l 2,6,7
 926 291 926 291 1083.5 442.5 c 128,-1,8
 1241 594 1241 594 1241 850 c 0,9,10
 1241 1024 1241 1024 1137.5 1113 c 128,-1,11
 1034 1202 1034 1202 831 1202 c 2,12,-1
 696 1202 l 1,0,-1
367 1493 m 1,13,-1
 772 1493 l 2,14,15
 1062 1493 1062 1493 1207 1458.5 c 128,-1,16
 1352 1424 1352 1424 1448 1343 c 0,17,18
 1545 1262 1545 1262 1595 1146 c 128,-1,19
 1645 1030 1645 1030 1645 885 c 0,20,21
 1645 684 1645 684 1560.5 504 c 128,-1,22
 1476 324 1476 324 1325 201 c 0,23,24
 1193 92 1193 92 1018.5 46 c 128,-1,25
 844 0 844 0 481 0 c 2,26,-1
 76 0 l 1,27,-1
 201 643 l 1,28,-1
 -4 643 l 1,29,-1
 47 903 l 1,30,-1
 252 903 l 1,31,-1
 367 1493 l 1,13,-1
EndSplineSet
EndChar
StartChar: dcroat
Encoding: 273 273 255
Width: 1466
Flags: W
Fore
629 231 m 0,0,1
 767 231 767 231 853.5 358 c 128,-1,2
 940 485 940 485 940 690 c 0,3,4
 940 783 940 783 891.5 835 c 128,-1,5
 843 887 843 887 756 887 c 0,6,7
 620 887 620 887 532 761.5 c 128,-1,8
 444 636 444 636 444 440 c 0,9,10
 444 338 444 338 491.5 284.5 c 128,-1,11
 539 231 539 231 629 231 c 0,0,1
1006 956 m 1,12,-1
 1063 1251 l 1,13,-1
 668 1251 l 1,14,-1
 705 1440 l 1,15,-1
 1100 1440 l 1,16,-1
 1122 1556 l 1,17,-1
 1483 1556 l 1,18,-1
 1460 1440 l 1,19,-1
 1673 1440 l 1,20,-1
 1636 1251 l 1,21,-1
 1423 1251 l 1,22,-1
 1180 0 l 1,23,-1
 819 0 l 1,24,-1
 852 162 l 1,25,26
 770 64 770 64 680 17.5 c 128,-1,27
 590 -29 590 -29 483 -29 c 0,28,29
 294 -29 294 -29 184 91 c 128,-1,30
 74 211 74 211 74 418 c 0,31,32
 74 547 74 547 112.5 669 c 128,-1,33
 151 791 151 791 223 891 c 0,34,35
 314 1017 314 1017 428.5 1082 c 128,-1,36
 543 1147 543 1147 674 1147 c 0,37,38
 789 1147 789 1147 869.5 1100.5 c 128,-1,39
 950 1054 950 1054 1006 956 c 1,12,-1
EndSplineSet
EndChar
StartChar: dotlessi
Encoding: 305 305 214
Width: 702
Flags: W
Fore
281 1120 m 1,0,-1
 641 1120 l 1,1,-1
 422 0 l 1,2,-1
 63 0 l 1,3,-1
 281 1120 l 1,0,-1
EndSplineSet
EndChar
StartChar: Lslash
Encoding: 321 321 225
Width: 1352
Flags: W
Fore
410 1493 m 1,0,-1
 795 1493 l 1,1,-1
 694 977 l 1,2,-1
 1034 1128 l 1,3,-1
 1139 918 l 1,4,-1
 639 698 l 1,5,-1
 561 291 l 1,6,-1
 1235 291 l 1,7,-1
 1180 0 l 1,8,-1
 119 0 l 1,9,-1
 217 502 l 1,10,-1
 57 428 l 1,11,-1
 -47 643 l 1,12,-1
 270 778 l 1,13,-1
 410 1493 l 1,0,-1
EndSplineSet
KernsSLIF: 366 -73 0 0 356 -339 0 0 253 -253 0 0 221 -319 0 0 217 -73 0 0 219 -73 0 0 218 -73 0 0 210 -73 0 0 212 -73 0 0 211 -73 0 0 376 -319 0 0 255 -253 0 0 8217 -264 0 0 8221 -264 0 0 338 -73 0 0 213 -73 0 0 216 -73 0 0 220 -73 0 0 214 -73 0 0 121 -253 0 0 89 -319 0 0 87 -159 0 0 86 -282 0 0 85 -73 0 0 84 -339 0 0 79 -73 0 0
EndChar
StartChar: lslash
Encoding: 322 322 226
Width: 768
Flags: W
Fore
408 1556 m 1,0,-1
 768 1556 l 1,1,-1
 666 1040 l 1,2,-1
 834 1118 l 1,3,-1
 934 915 l 1,4,-1
 614 770 l 1,5,-1
 465 0 l 1,6,-1
 104 0 l 1,7,-1
 221 598 l 1,8,-1
 82 530 l 1,9,-1
 -14 733 l 1,10,-1
 274 868 l 1,11,-1
 408 1556 l 1,0,-1
EndSplineSet
EndChar
StartChar: OE
Encoding: 338 338 176
Width: 2390
Flags: W
Fore
1268 1202 m 1,0,-1
 1163 1202 l 2,1,2
 1023 1202 1023 1202 919 1178.5 c 128,-1,3
 815 1155 815 1155 739 1106 c 0,4,5
 626 1032 626 1032 557.5 907 c 128,-1,6
 489 782 489 782 489 647 c 0,7,8
 489 464 489 464 609.5 377.5 c 128,-1,9
 730 291 730 291 985 291 c 2,10,-1
 1092 291 l 1,11,-1
 1268 1202 l 1,0,-1
1235 1493 m 1,12,-1
 2363 1493 l 1,13,-1
 2306 1202 l 1,14,-1
 1655 1202 l 1,15,-1
 1599 924 l 1,16,-1
 2214 924 l 1,17,-1
 2157 633 l 1,18,-1
 1542 633 l 1,19,-1
 1477 291 l 1,20,-1
 2152 291 l 1,21,-1
 2095 0 l 1,22,-1
 936 0 l 1,23,-1
 881 0 l 2,24,25
 502 0 502 0 294 151 c 128,-1,26
 86 302 86 302 86 575 c 0,27,28
 86 817 86 817 204 1022.5 c 128,-1,29
 322 1228 322 1228 530 1350 c 1,30,31
 658 1423 658 1423 815.5 1458 c 128,-1,32
 973 1493 973 1493 1178 1493 c 2,33,-1
 1235 1493 l 1,12,-1
EndSplineSet
EndChar
StartChar: oe
Encoding: 339 339 177
Width: 2241
Flags: W
Fore
1798 682 m 1,0,1
 1801 695 1801 695 1802.5 708.5 c 128,-1,2
 1804 722 1804 722 1804 735 c 0,3,4
 1804 815 1804 815 1756 862 c 128,-1,5
 1708 909 1708 909 1626 909 c 0,6,7
 1521 909 1521 909 1445.5 850.5 c 128,-1,8
 1370 792 1370 792 1333 682 c 1,9,-1
 1798 682 l 1,0,1
2136 518 m 2,10,-1
 2124 461 l 1,11,-1
 1286 461 l 1,12,13
 1286 455 1286 455 1285 443.5 c 128,-1,14
 1284 432 1284 432 1284 426 c 0,15,16
 1284 317 1284 317 1349.5 263 c 128,-1,17
 1415 209 1415 209 1546 209 c 0,18,19
 1658 209 1658 209 1784 243 c 128,-1,20
 1910 277 1910 277 2048 344 c 1,21,-1
 1993 66 l 1,22,23
 1862 18 1862 18 1732 -5.5 c 128,-1,24
 1602 -29 1602 -29 1466 -29 c 0,25,26
 1311 -29 1311 -29 1211 10 c 128,-1,27
 1111 49 1111 49 1053 131 c 1,28,29
 963 49 963 49 856 10 c 128,-1,30
 749 -29 749 -29 612 -29 c 0,31,32
 361 -29 361 -29 217.5 97.5 c 128,-1,33
 74 224 74 224 74 444 c 0,34,35
 74 571 74 571 119.5 691.5 c 128,-1,36
 165 812 165 812 250 911 c 0,37,38
 351 1028 351 1028 491 1087.5 c 128,-1,39
 631 1147 631 1147 803 1147 c 0,40,41
 943 1147 943 1147 1044.5 1106.5 c 128,-1,42
 1146 1066 1146 1066 1210 985 c 1,43,44
 1304 1066 1304 1066 1418 1106.5 c 128,-1,45
 1532 1147 1532 1147 1669 1147 c 0,46,47
 1892 1147 1892 1147 2025.5 1025 c 128,-1,48
 2159 903 2159 903 2159 702 c 0,49,50
 2159 662 2159 662 2153 615.5 c 128,-1,51
 2147 569 2147 569 2136 518 c 2,10,-1
768 891 m 0,52,53
 629 891 629 891 539 765 c 128,-1,54
 449 639 449 639 449 444 c 0,55,56
 449 338 449 338 497.5 282.5 c 128,-1,57
 546 227 546 227 639 227 c 0,58,59
 778 227 778 227 868 353.5 c 128,-1,60
 958 480 958 480 958 676 c 0,61,62
 958 781 958 781 909.5 836 c 128,-1,63
 861 891 861 891 768 891 c 0,52,53
EndSplineSet
EndChar
StartChar: florin
Encoding: 402 402 166
Width: 1425
Flags: W
Fore
1354 1520 m 1,0,-1
 1305 1276 l 1,1,2
 1265 1299 1265 1299 1231 1309 c 128,-1,3
 1197 1319 1197 1319 1159 1319 c 0,4,5
 1069 1319 1069 1319 1019 1261.5 c 128,-1,6
 969 1204 969 1204 942 1063 c 1,7,-1
 909 895 l 1,8,-1
 1217 895 l 1,9,-1
 1171 657 l 1,10,-1
 862 657 l 1,11,-1
 727 -16 l 1,12,13
 685 -223 685 -223 571.5 -324.5 c 128,-1,14
 458 -426 458 -426 268 -426 c 0,15,16
 183 -426 183 -426 111.5 -418.5 c 128,-1,17
 40 -411 40 -411 -23 -395 c 1,18,-1
 25 -145 l 1,19,20
 65 -167 65 -167 102 -177.5 c 128,-1,21
 139 -188 139 -188 174 -188 c 0,22,23
 264 -188 264 -188 313.5 -132 c 128,-1,24
 363 -76 363 -76 391 68 c 1,25,-1
 508 657 l 1,26,-1
 242 657 l 1,27,-1
 289 895 l 1,28,-1
 555 895 l 1,29,-1
 604 1147 l 1,30,31
 646 1353 646 1353 760.5 1454.5 c 128,-1,32
 875 1556 875 1556 1065 1556 c 0,33,34
 1134 1556 1134 1556 1206 1547 c 128,-1,35
 1278 1538 1278 1538 1354 1520 c 1,0,-1
EndSplineSet
EndChar
StartChar: uni0237
Encoding: 567 567 173
Width: 702
Flags: HW
Fore
281 1120 m 1,0,-1
 641 1120 l 1,1,-1
 426 20 l 2,2,3
 380 -215 380 -215 254.5 -328.5 c 128,-1,4
 129 -442 129 -442 -84 -442 c 2,5,-1
 -262 -442 l 1,6,-1
 -217 -207 l 1,7,-1
 -154 -207 l 2,8,9
 -53 -207 -53 -207 -6.5 -161.5 c 128,-1,10
 40 -116 40 -116 66 20 c 1,11,-1
 281 1120 l 1,0,-1
EndSplineSet
EndChar
StartChar: uni02BB
Encoding: 699 699 173
Width: 778
Flags: W
Fore
571 856 m 1,0,-1
 231 856 l 1,1,-1
 289 1141 l 1,2,-1
 584 1493 l 1,3,-1
 797 1493 l 1,4,-1
 627 1141 l 1,5,-1
 571 856 l 1,0,-1
EndSplineSet
KernsSLIF: 221 75 0 0 193 -272 0 0 194 -272 0 0 376 75 0 0 195 -272 0 0 192 -272 0 0 198 -264 0 0 196 -272 0 0 89 75 0 0 86 38 0 0 74 -92 0 0 65 -272 0 0
EndChar
StartChar: circumflex
Encoding: 710 710 215
Width: 1024
Flags: W
Fore
545 1638 m 1,0,-1
 807 1638 l 1,1,-1
 989 1262 l 1,2,-1
 811 1262 l 1,3,-1
 655 1487 l 1,4,-1
 414 1262 l 1,5,-1
 217 1262 l 1,6,-1
 545 1638 l 1,0,-1
EndSplineSet
EndChar
StartChar: caron
Encoding: 711 711 224
Width: 1024
Flags: W
Fore
752 1262 m 1,0,-1
 492 1262 l 1,1,-1
 309 1638 l 1,2,-1
 485 1638 l 1,3,-1
 641 1411 l 1,4,-1
 885 1638 l 1,5,-1
 1081 1638 l 1,6,-1
 752 1262 l 1,0,-1
EndSplineSet
EndChar
StartChar: breve
Encoding: 728 728 218
Width: 1024
Flags: W
Fore
343 1606 m 1,0,-1
 485 1606 l 1,1,-1
 485 1597 l 2,2,3
 485 1532 485 1532 528 1497 c 128,-1,4
 571 1462 571 1462 651 1462 c 0,5,6
 732 1462 732 1462 784 1497.5 c 128,-1,7
 836 1533 836 1533 864 1606 c 1,8,-1
 1016 1606 l 1,9,10
 982 1463 982 1463 879.5 1386 c 128,-1,11
 777 1309 777 1309 621 1309 c 0,12,13
 481 1309 481 1309 410.5 1371 c 128,-1,14
 340 1433 340 1433 340 1554 c 0,15,16
 340 1575 340 1575 340.5 1585.5 c 128,-1,17
 341 1596 341 1596 343 1606 c 1,0,-1
EndSplineSet
Ligature: 0 1 'liga' space uni0306
EndChar
StartChar: dotaccent
Encoding: 729 729 219
Width: 1024
Flags: W
Fore
539 1585 m 1,0,-1
 813 1585 l 1,1,-1
 764 1339 l 1,2,-1
 489 1339 l 1,3,-1
 539 1585 l 1,0,-1
EndSplineSet
Ligature: 0 1 'liga' space uni0307
EndChar
StartChar: ring
Encoding: 730 730 220
Width: 1024
Flags: W
Fore
946 1524 m 0,0,1
 946 1404 946 1404 863.5 1321.5 c 128,-1,2
 781 1239 781 1239 662 1239 c 0,3,4
 542 1239 542 1239 459.5 1321.5 c 128,-1,5
 377 1404 377 1404 377 1524 c 0,6,7
 377 1644 377 1644 459.5 1726 c 128,-1,8
 542 1808 542 1808 662 1808 c 0,9,10
 781 1808 781 1808 863.5 1726 c 128,-1,11
 946 1644 946 1644 946 1524 c 0,0,1
811 1524 m 0,12,13
 811 1589 811 1589 769 1631 c 128,-1,14
 727 1673 727 1673 662 1673 c 0,15,16
 596 1673 596 1673 554 1631 c 128,-1,17
 512 1589 512 1589 512 1524 c 0,18,19
 512 1459 512 1459 554.5 1416.5 c 128,-1,20
 597 1374 597 1374 662 1374 c 0,21,22
 727 1374 727 1374 769 1416 c 128,-1,23
 811 1458 811 1458 811 1524 c 0,12,13
EndSplineSet
LCarets: 0 65535 '    ' 1 0 
Ligature: 0 1 'liga' space uni030A
EndChar
StartChar: ogonek
Encoding: 731 731 223
Width: 1024
Flags: W
Fore
307 0 m 1,0,-1
 449 0 l 1,1,2
 378 -74 378 -74 352 -114 c 128,-1,3
 326 -154 326 -154 326 -182 c 0,4,5
 326 -216 326 -216 350.5 -235 c 128,-1,6
 375 -254 375 -254 420 -254 c 0,7,8
 457 -254 457 -254 498 -246 c 128,-1,9
 539 -238 539 -238 582 -223 c 1,10,-1
 553 -375 l 1,11,12
 496 -388 496 -388 451 -394.5 c 128,-1,13
 406 -401 406 -401 367 -401 c 0,14,15
 261 -401 261 -401 205.5 -366.5 c 128,-1,16
 150 -332 150 -332 150 -266 c 0,17,18
 150 -201 150 -201 187 -138 c 128,-1,19
 224 -75 224 -75 307 0 c 1,0,-1
EndSplineSet
Ligature: 0 1 'liga' space uni0328
EndChar
StartChar: tilde
Encoding: 732 732 216
Width: 1024
Flags: W
Fore
635 1364 m 2,0,-1
 586 1401 l 2,1,2
 583 1403 583 1403 576 1408 c 0,3,4
 538 1438 538 1438 508 1438 c 0,5,6
 474 1438 474 1438 448 1403.5 c 128,-1,7
 422 1369 422 1369 412 1309 c 1,8,-1
 272 1309 l 1,9,10
 299 1446 299 1446 364.5 1519.5 c 128,-1,11
 430 1593 430 1593 524 1593 c 0,12,13
 560 1593 560 1593 593.5 1579.5 c 128,-1,14
 627 1566 627 1566 664 1536 c 2,15,-1
 717 1493 l 2,16,17
 735 1478 735 1478 752 1470 c 128,-1,18
 769 1462 769 1462 784 1462 c 0,19,20
 822 1462 822 1462 848 1495.5 c 128,-1,21
 874 1529 874 1529 885 1591 c 1,22,-1
 1024 1591 l 1,23,24
 998 1455 998 1455 933 1381 c 128,-1,25
 868 1307 868 1307 774 1307 c 0,26,27
 740 1307 740 1307 710 1318.5 c 128,-1,28
 680 1330 680 1330 635 1364 c 2,0,-1
EndSplineSet
Ligature: 0 1 'liga' space tildecomb
EndChar
StartChar: hungarumlaut
Encoding: 733 733 222
Width: 1024
Flags: W
Fore
528 1638 m 1,0,-1
 778 1638 l 1,1,-1
 467 1262 l 1,2,-1
 293 1262 l 1,3,-1
 528 1638 l 1,0,-1
903 1638 m 1,4,-1
 1153 1638 l 1,5,-1
 809 1262 l 1,6,-1
 635 1262 l 1,7,-1
 903 1638 l 1,4,-1
EndSplineSet
Ligature: 0 1 'liga' space uni030B
EndChar
StartChar: uni0326
Encoding: 806 806 223
Width: 1024
Flags: HW
Fore
371 -177 m 1,5,-1
 695 -177 l 1,2,-1
 415 -475 l 1,3,-1
 223 -475 l 1,4,-1
 371 -177 l 1,5,-1
EndSplineSet
EndChar
StartChar: Omega
Encoding: 937 937 159
Width: 1575
Flags: W
Fore
1227 256 m 1,0,-1
 1518 256 l 1,1,-1
 1518 0 l 1,2,-1
 909 0 l 1,3,-1
 909 291 l 1,4,5
 1035 377 1035 377 1101 508.5 c 128,-1,6
 1167 640 1167 640 1167 805 c 0,7,8
 1167 1008 1167 1008 1065.5 1124.5 c 128,-1,9
 964 1241 964 1241 786 1241 c 0,10,11
 609 1241 609 1241 507.5 1124.5 c 128,-1,12
 406 1008 406 1008 406 805 c 0,13,14
 406 641 406 641 472 508.5 c 128,-1,15
 538 376 538 376 664 291 c 1,16,-1
 664 0 l 1,17,-1
 55 0 l 1,18,-1
 55 256 l 1,19,-1
 346 256 l 1,20,21
 220 377 220 377 159 516 c 128,-1,22
 98 655 98 655 98 819 c 0,23,24
 98 1132 98 1132 286 1320.5 c 128,-1,25
 474 1509 474 1509 786 1509 c 0,26,27
 1099 1509 1099 1509 1287 1320.5 c 128,-1,28
 1475 1132 1475 1132 1475 819 c 0,29,30
 1475 655 1475 655 1414 516 c 128,-1,31
 1353 377 1353 377 1227 256 c 1,0,-1
EndSplineSet
EndChar
StartChar: pi
Encoding: 960 960 155
Width: 1319
Flags: W
Fore
1354 1092 m 1,0,-1
 1315 868 l 1,1,-1
 1139 868 l 1,2,-1
 985 0 l 1,3,-1
 698 0 l 1,4,-1
 850 868 l 1,5,-1
 612 868 l 1,6,-1
 461 0 l 1,7,-1
 174 0 l 1,8,-1
 326 868 l 1,9,-1
 301 868 l 2,10,11
 246 868 246 868 217 837 c 128,-1,12
 188 806 188 806 178 738 c 1,13,-1
 -35 737 l 1,14,15
 -6 936 -6 936 88 1014 c 128,-1,16
 182 1092 182 1092 399 1092 c 2,17,-1
 1354 1092 l 1,0,-1
EndSplineSet
EndChar
StartChar: afii10051
Encoding: 1026 1026 158
Width: 1559
Flags: HW
Fore
1391.25 825.003 m 0,0,1
 1534.12 681.791 1534.12 681.791 1508.17 450.929 c 0,2,3
 1504.94 422.146 1504.94 422.146 1499.08 392 c 2,4,-1
 1450.48 142 l 2,5,6
 1392.77 -154.87 1392.77 -154.87 1191.93 -293 c 0,7,8
 989.821 -432 989.821 -432 794.909 -432 c 2,9,-1
 711.909 -432 l 1,10,-1
 773.916 -113 l 1,11,-1
 846.916 -113 l 2,12,13
 896.911 -113 896.911 -113 946.108 -76 c 1,14,15
 1036.14 -0.617195 1036.14 -0.617195 1063.48 142 c 2,16,-1
 1118.91 431 l 2,17,18
 1131.93 498.88 1131.93 498.88 1108.6 543.996 c 0,19,20
 1096.88 566.651 1096.88 566.651 1076 583.568 c 0,21,22
 1010.05 637 1010.05 637 957.701 637 c 2,23,-1
 593.701 637 l 1,24,-1
 469.881 0 l 1,25,-1
 84.8809 0 l 1,26,-1
 320.526 1202 l 1,27,-1
 30.5264 1202 l 1,28,-1
 87.0908 1493 l 1,29,-1
 1257.09 1493 l 1,30,-1
 1200.53 1202 l 1,31,-1
 703.526 1202 l 1,32,-1
 653.765 946 l 1,33,-1
 947.765 946 l 2,34,35
 1270.52 946 1270.52 946 1391.25 825.003 c 0,0,1
EndSplineSet
EndChar
StartChar: afii10053
Encoding: 1028 1028 160
Width: 1407
Flags: HW
Fore
485.217 618 m 1,0,1
 474.485 538.84 474.485 538.84 503.384 463.218 c 0,2,3
 517.928 425.161 517.928 425.161 542.509 388 c 1,4,-1
 547.343 382 l 2,5,6
 639.684 250 639.684 250 845.685 250 c 0,7,8
 960.688 250 960.688 250 1071.29 284 c 0,9,10
 1181.91 318.005 1181.91 318.005 1303.09 391 c 1,11,-1
 1243.03 82 l 1,12,13
 1126.33 26.9979 1126.33 26.9979 1005.9 -1 c 0,14,15
 885.45 -29 885.45 -29 760.452 -29 c 0,16,17
 387.451 -29 387.451 -29 210.078 180 c 0,18,19
 32.5089 388 32.5089 388 101.902 745 c 0,20,21
 171.492 1103.01 171.492 1103.01 430.116 1312 c 0,22,23
 688.542 1520 688.542 1520 1061.55 1520 c 0,24,25
 1186.57 1520 1186.57 1520 1296.1 1492 c 0,26,27
 1405.69 1463.99 1405.69 1463.99 1500.97 1409 c 1,28,-1
 1440.91 1100 l 1,29,30
 1348.11 1172.99 1348.11 1172.99 1250.71 1207 c 0,31,32
 1153.33 1241 1153.33 1241 1038.32 1241 c 0,33,34
 832.315 1241 832.315 1241 688.657 1109 c 0,35,36
 570.468 999.993 570.468 999.993 548.393 907 c 1,37,-1
 1076.39 907 l 1,38,-1
 1020.22 618 l 1,39,-1
 485.217 618 l 1,0,1
EndSplineSet
EndChar
StartChar: afii10054
Encoding: 1029 1029 161
Width: 1343
Flags: HW
Fore
1363.16 1446 m 1,0,-1
 1301.74 1130 l 1,1,2
 1189.49 1184.98 1189.49 1184.98 1077.87 1213 c 0,3,4
 966.335 1241 966.335 1241 862.315 1241 c 0,5,6
 724.325 1241 724.325 1241 650.929 1203 c 0,7,8
 577.545 1165.01 577.545 1165.01 561.992 1085 c 0,9,10
 550.329 1025 550.329 1025 587.915 992 c 0,11,12
 626.306 958 626.306 958 738.641 934 c 2,13,-1
 896.227 901 l 2,14,15
 1135.51 851.001 1135.51 851.001 1220.68 749 c 0,16,17
 1305.85 647 1305.85 647 1269.31 459 c 0,18,19
 1221.3 212 1221.3 212 1050.97 92 c 0,20,21
 881.814 -28.7428 881.814 -28.7428 580.452 -29 c 0,22,23
 438.452 -29 438.452 -29 300.701 -2 c 0,24,25
 162.947 25.0005 162.947 25.0005 30.251 78 c 1,26,-1
 93.4248 403 l 1,27,28
 221.651 327 221.651 327 347.071 288 c 0,29,30
 473.685 250 473.685 250 597.685 250 c 0,31,32
 723.684 250 723.684 250 798.849 292 c 0,33,34
 874.012 334 874.012 334 889.174 412 c 0,35,36
 898.119 458.019 898.119 458.019 884.496 490.207 c 0,37,38
 877.396 506.982 877.396 506.982 864.167 520 c 0,39,40
 826.553 558 826.553 558 696.385 588 c 2,41,-1
 553.8 621 l 2,42,43
 339.131 669 339.131 669 255.54 774 c 0,44,45
 172.95 879 172.95 879 207.55 1057 c 0,46,47
 250.896 1280 250.896 1280 418.222 1400 c 0,48,49
 585.547 1520 585.547 1520 855.548 1520 c 0,50,51
 978.54 1520 978.54 1520 1105.05 1502 c 0,52,53
 1231.44 1482.98 1231.44 1482.98 1363.16 1446 c 1,0,-1
EndSplineSet
EndChar
StartChar: afii10055
Encoding: 1030 1030 162
Width: 606
Flags: HW
Fore
333.104 1493 m 1,0,-1
 718.104 1493 l 1,1,-1
 427.896 0 l 1,2,-1
 42.8955 0 l 1,3,-1
 333.104 1493 l 1,0,-1
EndSplineSet
EndChar
StartChar: afii10057
Encoding: 1032 1032 164
Width: 672
Flags: HW
Fore
372.953 1493 m 1,0,-1
 757.953 1493 l 1,1,-1
 495.928 145 l 2,2,3
 441.695 -134.001 441.695 -134.001 263.372 -272 c 0,4,5
 85.0475 -410 85.0475 -410 -221.953 -410 c 2,6,-1
 -299.953 -410 l 1,7,-1
 -243.389 -119 l 1,8,-1
 -183.389 -119 l 2,9,10
 -63.389 -119 -63.389 -119 10.6357 -52 c 0,11,12
 85.6593 15 85.6593 15 110.928 145 c 2,13,-1
 372.953 1493 l 1,0,-1
EndSplineSet
EndChar
StartChar: afii10058
Encoding: 1033 1033 165
Width: 2461
Flags: HW
Fore
1779.3 1493 m 1,0,-1
 443.297 1493 l 1,1,-1
 250.277 500 l 2,2,3
 218.789 338.002 218.789 338.002 106.181 268 c 1,4,5
 52.8783 215 52.8783 215 -53.1211 215 c 2,6,-1
 -116.121 215 l 1,7,-1
 -172.297 -74 l 1,8,-1
 -95.2969 -74 l 2,9,10
 206.703 -74 206.703 -74 367.085 36 c 0,11,12
 540.446 154.614 540.446 154.614 614.088 411.401 c 0,13,14
 626.399 454.329 626.399 454.329 635.277 500 c 2,15,-1
 772.121 1204 l 1,16,-1
 1338.12 1204 l 1,17,-1
 1104.09 0 l 1,18,-1
 1743.09 0 l 2,19,20
 2015.99 0 2015.99 0 2185.02 118 c 1,21,22
 2322.33 216.338 2322.33 216.338 2374.76 356.115 c 0,23,24
 2392.5 403.405 2392.5 403.405 2403.5 460 c 0,25,26
 2454.96 724.73 2454.96 724.73 2285.26 842.283 c 1,27,28
 2243.71 866.904 l 1,29,30
 2165.47 906.403 2165.47 906.403 2055.33 917 c 0,31,32
 1998.31 922 1998.31 922 1922.31 922 c 2,33,-1
 1668.31 922 l 1,34,-1
 1779.3 1493 l 1,0,-1
1543.32 279 m 1,27,-1
 1612.13 633 l 1,28,-1
 1825.13 633 l 2,29,30
 1928.18 633 1928.18 633 1958.35 620.01 c 0,31,32
 1976.88 612.031 1976.88 612.031 1990.94 596 c 0,33,34
 2053.01 530.104 2053.01 530.104 2018.23 432.362 c 0,35,36
 1993.28 362.226 1993.28 362.226 1938.07 324 c 1,37,38
 1878.31 279 1878.31 279 1756.32 279 c 2,39,-1
 1543.32 279 l 1,27,-1
EndSplineSet
EndChar
StartChar: afii10059
Encoding: 1034 1034 166
Width: 2344
Flags: HW
Fore
1671.1 1493 m 1,0,-1
 1286.1 1493 l 1,1,-1
 1175.5 924 l 1,2,-1
 607.503 924 l 1,3,-1
 718.104 1493 l 1,4,-1
 333.104 1493 l 1,5,-1
 42.8955 0 l 1,6,-1
 427.896 0 l 1,7,-1
 550.938 633 l 1,8,-1
 1118.94 633 l 1,9,-1
 995.896 0 l 1,10,-1
 1634.9 0 l 2,11,12
 1912.42 0 1912.42 0 2075.83 118 c 0,13,14
 2212.5 215.206 2212.5 215.206 2265.21 352.565 c 0,15,16
 2283.89 401.255 2283.89 401.255 2295.31 460 c 0,17,18
 2345.49 718.159 2345.49 718.159 2183.36 837.208 c 1,19,20
 2142.95 862.641 l 1,21,22
 2062.49 905.902 2062.49 905.902 1947.14 917 c 0,23,24
 1890.1 922 1890.1 922 1814.11 922 c 2,25,-1
 1560.11 922 l 1,26,-1
 1671.1 1493 l 1,0,-1
1435.13 279 m 1,21,-1
 1503.94 633 l 1,22,-1
 1716.94 633 l 2,23,24
 1819.99 633 1819.99 633 1850.16 620.01 c 0,25,26
 1868.69 612.031 1868.69 612.031 1882.75 596 c 0,27,28
 1941.51 533.614 1941.51 533.614 1912.6 438.862 c 0,29,30
 1894.43 379.302 1894.43 379.302 1851.18 341 c 1,31,-1
 1829.87 324 l 2,32,33
 1770.12 279 1770.12 279 1648.13 279 c 2,34,-1
 1435.13 279 l 1,21,-1
EndSplineSet
EndChar
StartChar: afii10060
Encoding: 1035 1035 167
Width: 1566
Flags: HW
Fore
1383.1 783 m 0,0,1
 1486.41 639.546 1486.41 639.546 1465.6 447.905 c 0,2,3
 1462.62 420.447 1462.62 420.447 1457.09 392 c 2,4,-1
 1380.9 0 l 1,5,-1
 993.896 0 l 1,6,-1
 1081.17 449 l 2,7,8
 1088.39 486.144 1088.39 486.144 1073.28 523.788 c 0,9,10
 1066.93 539.612 1066.93 539.612 1056.78 555 c 0,11,12
 1055.17 556.989 1055.17 556.989 1054.55 559 c 0,13,14
 1030.72 637 1030.72 637 904.716 637 c 2,15,-1
 551.716 637 l 1,16,-1
 427.896 0 l 1,17,-1
 42.8955 0 l 1,18,-1
 278.54 1202 l 1,19,-1
 -11.46 1202 l 1,20,-1
 45.1045 1493 l 1,21,-1
 1215.1 1493 l 1,22,-1
 1158.54 1202 l 1,23,-1
 661.54 1202 l 1,24,-1
 611.779 946 l 1,25,-1
 928.779 946 l 2,26,27
 1265.7 946 1265.7 946 1383.1 783 c 0,0,1
EndSplineSet
EndChar
StartChar: afii10145
Encoding: 1039 1039 171
Width: 1584
Flags: HW
Fore
1410.05 0 m 1,0,-1
 1700.26 1493 l 1,1,-1
 1315.26 1493 l 1,2,-1
 1081.62 291 l 1,3,-1
 513.617 291 l 1,4,-1
 747.262 1493 l 1,5,-1
 362.262 1493 l 1,6,-1
 72.0518 0 l 1,7,-1
 549.052 0 l 1,8,-1
 490.738 -300 l 1,9,-1
 874.738 -300 l 1,10,-1
 933.052 0 l 1,11,-1
 1410.05 0 l 1,0,-1
EndSplineSet
EndChar
StartChar: afii10017
Encoding: 1040 1040 172
Width: 1585
Flags: HW
Fore
1001.77 272 m 1,0,-1
 399.767 272 l 1,1,-1
 251.896 0 l 1,2,-1
 -135.104 0 l 1,3,-1
 708.104 1493 l 1,4,-1
 1167.1 1493 l 1,5,-1
 1429.9 0 l 1,6,-1
 1042.9 0 l 1,7,-1
 1001.77 272 l 1,0,-1
549.61 549 m 1,8,-1
 958.61 549 l 1,9,-1
 870.072 1143 l 1,10,-1
 549.61 549 l 1,8,-1
EndSplineSet
EndChar
StartChar: afii10018
Encoding: 1041 1041 173
Width: 1480
Flags: HW
Fore
967.984 340 m 0,0,1
 1040.02 389.707 1040.02 389.707 1058.54 461.085 c 0,2,3
 1077.09 532.593 1077.09 532.593 1024.58 590 c 0,4,5
 963.409 656 963.409 656 850.408 656 c 2,6,-1
 526.408 656 l 1,7,-1
 453.71 282 l 1,8,-1
 777.71 282 l 2,9,10
 885.71 282 885.71 282 967.984 340 c 0,0,1
1266.58 199 m 8,9,10
 1046.14 0.388855 1046.14 0.388855 754.896 0 c 2,11,-1
 55.8955 0 l 1,12,-1
 346.104 1493 l 1,13,-1
 1419.1 1493 l 1,14,-1
 1364.29 1211 l 1,15,-1
 634.29 1211 l 1,16,-1
 580.641 935 l 1,17,-1
 879.641 935 l 2,18,19
 1313.65 935 1313.65 935 1403.38 697 c 0,20,21
 1437.71 605.937 1437.71 605.937 1428.08 506.24 c 0,22,23
 1425.58 480.41 1425.58 480.41 1420.14 454 c 0,24,25
 1392 312.005 1392 312.005 1266.58 199 c 8,9,10
EndSplineSet
EndChar
StartChar: afii10019
Encoding: 1042 1042 174
Width: 1386
Flags: HW
Fore
818.753 915 m 2,0,1
 1002.87 915 1002.87 915 1034.46 1073 c 0,2,3
 1055.46 1181.02 1055.46 1181.02 971.457 1215.86 c 1,4,5
 936.367 1226.13 l 1,6,7
 889.885 1230.88 l 1,8,9
 880.178 1231 l 1,10,-1
 667.178 1231 l 1,11,-1
 605.753 915 l 1,12,-1
 818.753 915 l 2,0,1
704.822 262 m 2,7,8
 937.823 262 937.823 262 976.115 459 c 0,9,10
 1003.03 597.462 1003.03 597.462 892.256 637.073 c 0,11,12
 847.713 653 847.713 653 780.825 653 c 2,13,-1
 554.825 653 l 1,14,-1
 478.822 262 l 1,15,-1
 704.822 262 l 2,7,8
1167.21 799 m 1,14,15
 1311.79 754.514 1311.79 754.514 1351.55 619.109 c 0,16,17
 1376.03 535.733 1376.03 535.733 1355.09 428 c 0,18,19
 1316.18 227.817 1316.18 227.817 1170 122.11 c 0,20,21
 1001.15 0 1001.15 0 681.896 0 c 2,22,-1
 42.8955 0 l 1,23,-1
 333.104 1493 l 1,24,-1
 911.104 1493 l 2,25,26
 1222.12 1493 1222.12 1493 1342.83 1399 c 0,27,28
 1450.82 1315.62 1450.82 1315.62 1431.35 1143.32 c 0,29,30
 1428.87 1121.38 1428.87 1121.38 1424.32 1098 c 0,31,32
 1386.82 905.042 1386.82 905.042 1217.82 820.483 c 0,33,34
 1193.64 808.386 1193.64 808.386 1167.21 799 c 1,14,15
EndSplineSet
EndChar
StartChar: afii10020
Encoding: 1043 1043 175
Width: 1108
Flags: HW
Fore
661.929 1204 m 1,0,-1
 427.896 0 l 1,1,-1
 45.8955 0 l 1,2,-1
 336.104 1493 l 1,3,-1
 1368.1 1493 l 1,4,-1
 1311.93 1204 l 1,5,-1
 661.929 1204 l 1,0,-1
EndSplineSet
EndChar
StartChar: afii10021
Encoding: 1044 1044 176
Width: 1786
Flags: HW
Fore
583.121 265 m 1,32,-1
 1122.49 265 l 1,33,-1
 1303.85 1202 l 1,34,-1
 830.846 1202 l 1,35,-1
 735.014 705 l 2,36,37
 699.754 522.138 699.754 522.138 645.695 385.87 c 0,38,39
 618.772 318 618.772 318 583.121 265 c 1,32,-1
1543.71 265 m 1,23,-1
 1750.71 265 l 1,4,-1
 1616.59 -425 l 1,5,-1
 1258.59 -425 l 1,6,-1
 1337.9 -17 l 1,7,-1
 270.896 -17 l 1,8,-1
 191.589 -425 l 1,9,-1
 -166.411 -425 l 1,10,-1
 -32.2881 265 l 1,11,-1
 149.712 265 l 2,10,11
 211.989 265 211.989 265 244.873 343 c 0,12,13
 308.275 474.838 308.275 474.838 354.569 713 c 2,16,-1
 506.186 1493 l 1,19,-1
 1782.41 1493 l 1,20,-1
 1543.71 265 l 1,23,-1
EndSplineSet
EndChar
StartChar: afii10022
Encoding: 1045 1045 177
Width: 1204
Flags: HW
Fore
333.104 1493 m 1,0,-1
 1372.1 1493 l 1,1,-1
 1315.54 1202 l 1,2,-1
 661.54 1202 l 1,3,-1
 607.503 924 l 1,4,-1
 1222.5 924 l 1,5,-1
 1165.94 633 l 1,6,-1
 550.938 633 l 1,7,-1
 484.46 291 l 1,8,-1
 1160.46 291 l 1,9,-1
 1103.9 0 l 1,10,-1
 42.8955 0 l 1,11,-1
 333.104 1493 l 1,0,-1
EndSplineSet
EndChar
StartChar: afii10024
Encoding: 1046 1046 178
Width: 1943
Flags: HW
Fore
708.896 0 m 1,0,-1
 1035.9 0 l 1,1,-1
 1166.71 673 l 1,2,-1
 1224.71 673 l 2,3,4
 1266.72 673 1266.72 673 1277.88 643 c 1,5,-1
 1506.9 0 l 1,6,-1
 1843.9 0 l 1,7,-1
 1569.18 768 l 1,8,9
 1562.26 789 1562.26 789 1550.82 797 c 1,10,11
 1565.99 803 1565.99 803 1581.06 824 c 2,12,-1
 1582.26 825 l 2,13,14
 1583.81 827.945 1583.81 827.945 1587.81 833 c 2,15,-1
 2063.1 1493 l 1,16,-1
 1725.1 1493 l 1,17,-1
 1334.75 951 l 1,18,19
 1311.92 921 1311.92 921 1266.92 921 c 2,20,-1
 1214.92 921 l 1,21,-1
 1326.1 1493 l 1,22,-1
 999.104 1493 l 1,23,-1
 887.919 921 l 1,24,-1
 835.919 921 l 2,25,26
 790.918 921 790.918 921 779.751 951 c 1,27,-1
 600.104 1493 l 1,28,-1
 262.104 1493 l 1,29,-1
 480.813 833 l 2,30,31
 490.371 805 490.371 805 500.205 799 c 2,32,-1
 501.205 799 l 1,33,-1
 502.011 798 l 2,34,35
 503.01 798 503.01 798 503.816 797 c 1,36,37
 489.26 788.999 489.26 788.999 474.179 768 c 2,38,-1
 -99.1045 0 l 1,39,-1
 237.896 0 l 1,40,-1
 716.882 643 l 2,41,42
 739.714 673 739.714 673 781.713 673 c 2,43,-1
 839.713 673 l 1,44,-1
 708.896 0 l 1,0,-1
EndSplineSet
EndChar
StartChar: afii10025
Encoding: 1047 1047 179
Width: 1295
Flags: HW
Fore
797.548 1520 m 0,0,1
 1037.01 1520 1037.01 1520 1165 1454.51 c 0,2,3
 1333.93 1368.06 1333.93 1368.06 1308.13 1167.96 c 0,4,5
 1306.17 1152.8 1306.17 1152.8 1303.1 1137 c 0,6,7
 1279.59 1016.03 1279.59 1016.03 1205 935.379 c 0,8,9
 1118.34 841.681 1118.34 841.681 965.565 805 c 1,10,11
 1106.35 766.718 1106.35 766.718 1166.12 675 c 0,12,13
 1220.01 592.323 1220.01 592.323 1206.31 468.311 c 0,14,15
 1203.94 446.764 1203.94 446.764 1199.51 424 c 0,16,17
 1159.23 216.782 1159.23 216.782 990 102.56 c 0,18,19
 795.079 -29 795.079 -29 445.452 -29 c 0,20,21
 212.453 -29 212.453 -29 0.836914 45 c 1,22,-1
 58.5674 342 l 1,23,24
 255.38 233 255.38 233 461.38 233 c 0,25,26
 712.157 233 712.157 233 790.792 366.831 c 0,27,28
 809.625 398.884 809.625 398.884 817.229 438 c 0,29,30
 848.179 597.227 848.179 597.227 655.81 634.305 c 0,31,32
 600.734 644.921 600.734 644.921 527.465 645 c 2,33,-1
 373.465 645 l 1,34,-1
 421.671 893 l 1,35,-1
 583.671 893 l 2,36,37
 858.468 893 858.468 893 902.781 1060.98 c 0,38,39
 904.844 1068.8 904.844 1068.8 906.438 1077 c 0,40,41
 931.404 1205.45 931.404 1205.45 793.113 1243.44 c 0,42,43
 743.743 1257 743.743 1257 677.426 1257 c 0,44,45
 490.716 1257 490.716 1257 284.292 1174 c 1,46,-1
 339.107 1456 l 1,47,48
 579.555 1520 579.555 1520 797.548 1520 c 0,0,1
EndSplineSet
EndChar
StartChar: afii10026
Encoding: 1048 1048 180
Width: 1559
Flags: HW
Fore
1671.1 1493 m 1,0,-1
 1241.1 1493 l 1,1,-1
 499.06 469 l 1,2,-1
 698.104 1493 l 1,3,-1
 333.104 1493 l 1,4,-1
 42.8955 0 l 1,5,-1
 472.896 0 l 1,6,-1
 1214.94 1024 l 1,7,-1
 1015.9 0 l 1,8,-1
 1380.9 0 l 1,9,-1
 1671.1 1493 l 1,0,-1
EndSplineSet
EndChar
StartChar: afii10028
Encoding: 1050 1050 182
Width: 1587
Flags: HW
Fore
333.104 1493 m 1,0,-1
 718.104 1493 l 1,1,-1
 612.168 948 l 1,2,-1
 1273.1 1493 l 1,3,-1
 1720.1 1493 l 1,4,-1
 863.678 786 l 1,5,-1
 1503.9 0 l 1,6,-1
 1021.9 0 l 1,7,-1
 542.19 588 l 1,8,-1
 427.896 0 l 1,9,-1
 42.8955 0 l 1,10,-1
 333.104 1493 l 1,0,-1
EndSplineSet
EndChar
StartChar: afii10029
Encoding: 1051 1051 183
Width: 1656
Flags: HW
Fore
250.18 500 m 2,0,-1
 443.2 1493 l 1,1,-1
 1781.39 1494 l 1,2,-1
 1491.18 1 l 1,3,-1
 1103.99 0 l 1,4,-1
 1338.02 1204 l 1,5,-1
 772.023 1204 l 1,6,-1
 635.18 500 l 2,7,8
 572.666 178.392 572.666 178.392 366.987 36 c 0,9,10
 206.606 -74 206.606 -74 -95.3945 -74 c 2,11,-1
 -172.395 -74 l 1,12,-1
 -116.218 215 l 1,13,-1
 -53.2178 215 l 2,14,15
 33.2701 215 33.2701 215 106.084 268 c 0,16,17
 221.4 351.937 221.4 351.937 250.18 500 c 2,0,-1
EndSplineSet
EndChar
StartChar: afii10030
Encoding: 1052 1052 184
Width: 1878
Flags: HW
Fore
333.104 1493 m 1,0,-1
 823.104 1493 l 1,1,-1
 1007.79 694 l 1,2,-1
 1505.1 1493 l 1,3,-1
 1994.1 1493 l 1,4,-1
 1703.9 0 l 1,5,-1
 1339.9 0 l 1,6,-1
 1552.16 1092 l 1,7,-1
 1051.68 287 l 1,8,-1
 807.683 287 l 1,9,-1
 620.158 1092 l 1,10,-1
 407.896 0 l 1,11,-1
 42.8955 0 l 1,12,-1
 333.104 1493 l 1,0,-1
EndSplineSet
EndChar
StartChar: afii10031
Encoding: 1053 1053 185
Width: 1494
Flags: HW
Fore
333.104 1493 m 1,0,-1
 718.104 1493 l 1,1,-1
 607.503 924 l 1,2,-1
 1175.5 924 l 1,3,-1
 1286.1 1493 l 1,4,-1
 1671.1 1493 l 1,5,-1
 1380.9 0 l 1,6,-1
 995.896 0 l 1,7,-1
 1118.94 633 l 1,8,-1
 550.938 633 l 1,9,-1
 427.896 0 l 1,10,-1
 42.8955 0 l 1,11,-1
 333.104 1493 l 1,0,-1
EndSplineSet
EndChar
StartChar: afii10032
Encoding: 1054 1054 186
Width: 1601
Flags: HW
Fore
966.315 1241 m 0,0,1
 790.311 1241 790.311 1241 668.046 1111 c 0,2,3
 545.775 980.994 545.775 980.994 499.902 745 c 0,4,5
 469.492 588.548 469.492 588.548 491.12 478.635 c 0,6,7
 501.978 423.452 501.978 423.452 525.954 380 c 0,8,9
 597.684 250 597.684 250 773.685 250 c 0,10,11
 950.687 250 950.687 250 1072.95 380 c 0,12,13
 1195.22 509.994 1195.22 509.994 1240.9 745 c 0,14,15
 1271.36 901.696 1271.36 901.696 1249.98 1011.65 c 0,16,17
 1239.16 1067.31 1239.16 1067.31 1215.05 1111 c 0,18,19
 1143.32 1241 1143.32 1241 966.315 1241 c 0,0,1
1020.55 1520 m 0,16,17
 1380.55 1520 1380.55 1520 1544.5 1314 c 0,18,19
 1684.83 1137.69 1684.83 1137.69 1653.37 846.364 c 0,20,21
 1648.07 797.312 1648.07 797.312 1637.9 745 c 0,22,23
 1567.53 382.999 1567.53 382.999 1323.5 177 c 0,24,25
 1079.45 -29 1079.45 -29 719.452 -29 c 0,26,27
 360.452 -29 360.452 -29 195.495 177 c 0,28,29
 55.2069 353.26 55.2069 353.26 86.4692 643.731 c 0,30,31
 91.7438 692.74 91.7438 692.74 101.902 745 c 0,32,33
 172.465 1108.01 172.465 1108.01 416.505 1314 c 0,34,35
 661.554 1520 661.554 1520 1020.55 1520 c 0,16,17
EndSplineSet
EndChar
StartChar: afii10033
Encoding: 1055 1055 187
Width: 1549
Flags: HW
Fore
333.104 1493 m 1,0,-1
 1671.1 1493 l 1,1,-1
 1380.9 0 l 1,2,-1
 995.896 0 l 1,3,-1
 1229.54 1202 l 1,4,-1
 661.54 1202 l 1,5,-1
 427.896 0 l 1,6,-1
 42.8955 0 l 1,7,-1
 333.104 1493 l 1,0,-1
EndSplineSet
EndChar
StartChar: afii10034
Encoding: 1056 1056 188
Width: 1386
Flags: HW
Fore
333.104 1493 m 1,0,-1
 972.104 1493 l 2,1,2
 1257.11 1493 1257.11 1493 1384.42 1366 c 1,3,4
 1497.58 1255.04 1497.58 1255.04 1475.83 1060.36 c 0,5,6
 1472.87 1033.95 1472.87 1033.95 1467.44 1006 c 0,7,8
 1421.77 771.009 1421.77 771.009 1244.08 644 c 0,9,10
 1067.58 518 1067.58 518 782.584 518 c 2,11,-1
 528.584 518 l 1,12,-1
 427.896 0 l 1,13,-1
 42.8955 0 l 1,14,-1
 333.104 1493 l 1,0,-1
663.873 1214 m 1,13,-1
 582.816 797 l 1,14,-1
 795.816 797 l 2,15,16
 907.816 797 907.816 797 979.507 852 c 0,17,18
 1051 905.999 1051 905.999 1070.44 1006 c 0,19,20
 1083.32 1072.24 1083.32 1072.24 1065.51 1118.29 c 0,21,22
 1056.43 1141.77 1056.43 1141.77 1039.38 1160 c 0,23,24
 988.875 1214 988.875 1214 876.873 1214 c 2,25,-1
 663.873 1214 l 1,13,-1
EndSplineSet
EndChar
StartChar: afii10035
Encoding: 1057 1057 189
Width: 1398
Flags: HW
Fore
1243.03 82 m 1,0,1
 1126.33 26.9979 1126.33 26.9979 1005.9 -1 c 0,2,3
 885.45 -29 885.45 -29 760.452 -29 c 0,4,5
 387.451 -29 387.451 -29 210.078 180 c 0,6,7
 32.5089 388 32.5089 388 101.902 745 c 0,8,9
 171.492 1103.01 171.492 1103.01 430.116 1312 c 0,10,11
 688.542 1520 688.542 1520 1061.55 1520 c 0,12,13
 1186.57 1520 1186.57 1520 1296.1 1492 c 0,14,15
 1405.69 1463.99 1405.69 1463.99 1500.97 1409 c 1,16,-1
 1440.91 1100 l 1,17,18
 1348.11 1172.99 1348.11 1172.99 1250.71 1207 c 0,19,20
 1153.33 1241 1153.33 1241 1038.32 1241 c 0,21,22
 832.315 1241 832.315 1241 688.657 1109 c 0,23,24
 544.999 977 544.999 977 499.902 745 c 0,25,26
 469.968 591 469.968 591 501.031 480.999 c 0,27,28
 516.563 426 516.563 426 547.343 382 c 0,29,30
 639.684 250 639.684 250 845.685 250 c 0,31,32
 960.688 250 960.688 250 1071.29 284 c 0,33,34
 1181.91 318.005 1181.91 318.005 1303.09 391 c 1,35,-1
 1243.03 82 l 1,0,1
EndSplineSet
EndChar
StartChar: afii10036
Encoding: 1058 1058 190
Width: 1262
Flags: HW
Fore
155.104 1493 m 1,0,-1
 1531.1 1493 l 1,1,-1
 1474.54 1202 l 1,2,-1
 979.54 1202 l 1,3,-1
 745.896 0 l 1,4,-1
 360.896 0 l 1,5,-1
 594.54 1202 l 1,6,-1
 98.54 1202 l 1,7,-1
 155.104 1493 l 1,0,-1
EndSplineSet
EndChar
StartChar: afii10037
Encoding: 1059 1059 191
Width: 1327
Flags: HW
Fore
577.19 588 m 1,0,-1
 192.104 1493 l 1,1,-1
 610.104 1493 l 1,2,-1
 832.472 965 l 1,3,-1
 1187.1 1493 l 1,4,-1
 1601.1 1493 l 1,5,-1
 687.108 140 l 2,6,7
 644.862 76.9993 644.862 76.9993 577.115 32 c 0,8,9
 529.895 4.95911e-05 529.895 4.95911e-05 498.896 0 c 2,10,-1
 137.896 0 l 1,11,-1
 184.546 240 l 1,12,-1
 291.546 240 l 2,13,14
 350.546 240 350.546 240 405.291 321 c 1,15,-1
 577.19 588 l 1,0,-1
EndSplineSet
EndChar
StartChar: afii10038
Encoding: 1060 1060 192
Width: 2039
Flags: HW
Fore
1056.09 1520 m 1,0,-1
 1104.68 1770 l 1,1,-1
 1489.68 1770 l 1,2,-1
 1441.28 1521 l 1,3,-1
 1478.09 1520 l 2,4,5
 1837.09 1520 1837.09 1520 2001.55 1314 c 0,6,7
 2142.31 1137.69 2142.31 1137.69 2110.91 846.364 c 0,8,9
 2105.62 797.312 2105.62 797.312 2095.45 745 c 0,10,11
 2025.07 382.989 2025.07 382.989 1780.04 177 c 0,12,13
 1535.99 -29 1535.99 -29 1176.99 -29 c 2,14,-1
 1139.99 -29 l 1,15,-1
 1094.32 -264 l 1,16,-1
 709.315 -264 l 1,17,-1
 754.994 -29 l 1,18,-1
 717.994 -29 l 2,19,20
 358.994 -29 358.994 -29 194.037 177 c 0,21,22
 53.7489 353.261 53.7489 353.261 85.0119 643.731 c 0,23,24
 90.2867 692.74 90.2867 692.74 100.445 745 c 0,25,26
 171.006 1108.01 171.006 1108.01 415.047 1314 c 0,27,28
 660.096 1520 660.096 1520 1019.09 1520 c 2,29,-1
 1056.09 1520 l 1,0,-1
809.227 250 m 1,26,-1
 1001.86 1241 l 1,27,-1
 964.857 1241 l 2,28,29
 788.853 1241 788.853 1241 666.588 1111 c 0,30,31
 544.317 980.993 544.317 980.993 498.445 745 c 0,32,33
 468.034 588.548 468.034 588.548 489.662 478.635 c 0,34,35
 500.52 423.452 500.52 423.452 524.496 380 c 0,36,37
 596.226 250 596.226 250 772.227 250 c 2,38,-1
 809.227 250 l 1,26,-1
1194.23 250 m 1,38,-1
 1231.23 250 l 2,39,40
 1407.22 250 1407.22 250 1529.5 380 c 0,41,42
 1651.76 509.994 1651.76 509.994 1697.45 745 c 0,43,44
 1728.03 902.333 1728.03 902.333 1706.34 1012.55 c 0,45,46
 1695.5 1067.67 1695.5 1067.67 1671.59 1111 c 0,47,48
 1599.86 1241 1599.86 1241 1423.86 1241 c 2,49,-1
 1386.86 1241 l 1,50,-1
 1194.23 250 l 1,38,-1
EndSplineSet
EndChar
StartChar: afii10039
Encoding: 1061 1061 193
Width: 1464
Flags: HW
Fore
1023.01 762 m 1,0,-1
 1392.9 0 l 1,1,-1
 991.896 0 l 1,2,-1
 742.029 510 l 1,3,-1
 296.896 0 l 1,4,-1
 -106.104 0 l 1,5,-1
 560.013 762 l 1,6,-1
 204.104 1493 l 1,7,-1
 606.104 1493 l 1,8,-1
 839.608 1012 l 1,9,-1
 1259.1 1493 l 1,10,-1
 1663.1 1493 l 1,11,-1
 1023.01 762 l 1,0,-1
EndSplineSet
EndChar
StartChar: afii10040
Encoding: 1062 1062 194
Width: 1712
Flags: HW
Fore
1470.89 291 m 1,0,-1
 1704.54 1493 l 1,1,-1
 1319.54 1493 l 1,2,-1
 1085.89 291 l 1,3,-1
 517.894 291 l 1,4,-1
 751.538 1493 l 1,5,-1
 366.538 1493 l 1,6,-1
 76.3281 0 l 1,7,-1
 1302.33 0 l 1,8,-1
 1235.46 -344 l 1,9,-1
 1619.46 -344 l 1,10,-1
 1744.89 291 l 1,11,-1
 1470.89 291 l 1,0,-1
EndSplineSet
EndChar
StartChar: afii10041
Encoding: 1063 1063 195
Width: 1516
Flags: HW
Fore
813.252 933 m 2,0,-1
 1177.25 933 l 1,1,-1
 1286.1 1493 l 1,2,-1
 1671.1 1493 l 1,3,-1
 1380.9 0 l 1,4,-1
 995.896 0 l 1,5,-1
 1117.19 624 l 1,6,-1
 823.188 624 l 2,7,8
 482.23 624 482.23 624 379.708 745 c 0,9,10
 239.65 909.565 239.65 909.565 264.013 1126.88 c 0,11,12
 266.838 1152.09 266.838 1152.09 271.875 1178 c 2,13,-1
 333.104 1493 l 1,14,-1
 720.104 1493 l 1,15,-1
 660.041 1184 l 2,16,17
 644.926 1106.24 644.926 1106.24 655.791 1054.09 c 0,18,19
 661.269 1027.79 661.269 1027.79 673.354 1008 c 0,20,21
 719.159 933 719.159 933 813.252 933 c 2,0,-1
EndSplineSet
EndChar
StartChar: afii10042
Encoding: 1064 1064 196
Width: 2036
Flags: HW
Fore
1883.9 0 m 1,0,-1
 42.8955 0 l 1,1,-1
 333.104 1493 l 1,2,-1
 718.104 1493 l 1,3,-1
 484.46 291 l 1,4,-1
 827.46 291 l 1,5,-1
 1031.95 1343 l 1,6,-1
 1416.95 1343 l 1,7,-1
 1212.46 291 l 1,8,-1
 1555.46 291 l 1,9,-1
 1789.1 1493 l 1,10,-1
 2174.1 1493 l 1,11,-1
 1883.9 0 l 1,0,-1
EndSplineSet
EndChar
StartChar: afii10043
Encoding: 1065 1065 197
Width: 2380
Flags: HW
Fore
1245.89 291 m 1,0,-1
 1588.89 291 l 1,1,-1
 1822.54 1493 l 1,2,-1
 2207.54 1493 l 1,3,-1
 1973.89 291 l 1,4,-1
 2247.89 291 l 1,5,-1
 2122.46 -344 l 1,6,-1
 1738.46 -344 l 1,7,-1
 1805.33 0 l 1,8,-1
 76.3281 0 l 1,9,-1
 366.538 1493 l 1,10,-1
 751.538 1493 l 1,11,-1
 517.894 291 l 1,12,-1
 860.894 291 l 1,13,-1
 1065.38 1343 l 1,14,-1
 1450.38 1343 l 1,15,-1
 1245.89 291 l 1,0,-1
EndSplineSet
EndChar
StartChar: afii10044
Encoding: 1066 1066 198
Width: 1461
Flags: HW
Fore
969.559 487 m 0,0,1
 996.266 624.401 996.266 624.401 896.278 672.982 c 1,2,3
 859.924 686.273 l 1,4,5
 823.234 696 823.234 696 776.184 696 c 2,6,-1
 563.184 696 l 1,7,-1
 482.127 279 l 1,8,-1
 695.127 279 l 2,9,10
 882.451 279 882.451 279 947.475 417.779 c 0,11,12
 962.221 449.251 962.221 449.251 969.559 487 c 0,0,1
1366.56 487 m 0,7,8
 1309.11 191.466 1309.11 191.466 1051.44 71.8083 c 0,9,10
 896.804 0 896.804 0 681.896 0 c 2,11,-1
 42.8955 0 l 1,12,-1
 269.737 1167 l 1,13,-1
 -30.2627 1167 l 1,14,-1
 33.1045 1493 l 1,15,-1
 718.104 1493 l 1,16,-1
 617.416 975 l 1,17,-1
 871.416 975 l 2,18,19
 1221.62 975 1221.62 975 1332.36 788.655 c 0,20,21
 1402.31 670.942 1402.31 670.942 1366.56 487 c 0,7,8
EndSplineSet
EndChar
StartChar: afii10045
Encoding: 1067 1067 199
Width: 2002
Flags: HW
Fore
1727.1 1493 m 1,0,-1
 2112.1 1493 l 1,1,-1
 1821.9 0 l 1,2,-1
 1436.9 0 l 1,3,-1
 1727.1 1493 l 1,0,-1
42.8955 0 m 1,4,-1
 681.896 0 l 2,5,6
 966.9 0 966.9 0 1143.39 126 c 0,7,8
 1321.07 253.001 1321.07 253.001 1366.56 487 c 0,9,10
 1412.23 722 1412.23 722 1283.73 848 c 1,11,12
 1156.41 975 1156.41 975 871.416 975 c 2,13,-1
 617.416 975 l 1,14,-1
 718.104 1493 l 1,15,-1
 333.104 1493 l 1,16,-1
 42.8955 0 l 1,4,-1
482.127 279 m 1,17,-1
 563.184 696 l 1,18,-1
 776.184 696 l 2,19,20
 888.183 696 888.183 696 938.688 642 c 0,21,22
 982.505 594.097 982.505 594.097 973.414 512.057 c 0,23,24
 972.067 499.903 972.067 499.903 969.559 487 c 0,25,26
 950.12 387 950.12 387 878.624 333 c 0,27,28
 807.126 279 807.126 279 695.127 279 c 2,29,-1
 482.127 279 l 1,17,-1
EndSplineSet
EndChar
StartChar: afii10046
Encoding: 1068 1068 200
Width: 1371
Flags: HW
Fore
42.8955 0 m 1,0,-1
 681.896 0 l 2,1,2
 966.9 0 966.9 0 1143.39 126 c 0,3,4
 1321.07 253.001 1321.07 253.001 1366.56 487 c 0,5,6
 1412.23 722 1412.23 722 1283.73 848 c 1,7,8
 1156.41 975 1156.41 975 871.416 975 c 2,9,-1
 617.416 975 l 1,10,-1
 718.104 1493 l 1,11,-1
 333.104 1493 l 1,12,-1
 42.8955 0 l 1,0,-1
482.127 279 m 1,13,-1
 563.184 696 l 1,14,-1
 776.184 696 l 2,15,16
 888.183 696 888.183 696 938.688 642 c 0,17,18
 982.505 594.097 982.505 594.097 973.414 512.057 c 0,19,20
 972.067 499.903 972.067 499.903 969.559 487 c 0,21,22
 950.12 387 950.12 387 878.624 333 c 0,23,24
 807.126 279 807.126 279 695.127 279 c 2,25,-1
 482.127 279 l 1,13,-1
EndSplineSet
EndChar
StartChar: afii10047
Encoding: 1069 1069 201
Width: 1401
Flags: HW
Fore
939.217 618 m 1,0,1
 909.085 499 909.085 499 792.509 388 c 2,2,-1
 785.343 382 l 2,3,4
 641.685 250 641.685 250 435.685 250 c 0,5,6
 320.685 250 320.685 250 223.294 284 c 0,7,8
 125.9 318.001 125.9 318.001 33.0918 391 c 1,9,-1
 -26.9717 82 l 1,10,11
 68.3379 27 68.3379 27 177.896 -1 c 0,12,13
 287.451 -29 287.451 -29 412.452 -29 c 0,14,15
 785.451 -29 785.451 -29 1044.08 180 c 0,16,17
 1302.51 387.996 1302.51 387.996 1371.9 745 c 0,18,19
 1418.17 983.044 1418.17 983.044 1355.26 1155.2 c 0,20,21
 1323.56 1241.97 1323.56 1241.97 1264.12 1312 c 0,22,23
 1086.55 1520 1086.55 1520 713.548 1520 c 0,24,25
 588.526 1520 588.526 1520 468.104 1492 c 0,26,27
 347.618 1463.98 347.618 1463.98 230.972 1409 c 1,28,-1
 170.908 1100 l 1,29,30
 292.063 1172.98 292.063 1172.98 402.706 1207 c 0,31,32
 513.3 1241 513.3 1241 628.315 1241 c 0,33,34
 834.316 1241 834.316 1241 926.657 1109 c 0,35,36
 997.59 1007.01 997.59 1007.01 989.832 919.037 c 0,37,38
 989.299 912.985 989.299 912.985 988.393 907 c 1,39,-1
 460.393 907 l 1,40,-1
 404.217 618 l 1,41,-1
 939.217 618 l 1,0,1
EndSplineSet
EndChar
StartChar: afii10048
Encoding: 1070 1070 202
Width: 2305
Flags: HW
Fore
1631.32 1241 m 0,0,1
 1455.31 1241 1455.31 1241 1333.05 1111 c 0,2,3
 1210.77 980.994 1210.77 980.994 1164.9 745 c 0,4,5
 1134.49 588.544 1134.49 588.544 1156.12 478.635 c 0,6,7
 1166.97 423.452 1166.97 423.452 1190.95 380 c 0,8,9
 1262.68 250 1262.68 250 1438.68 250 c 0,10,11
 1615.69 250 1615.69 250 1737.95 380 c 0,12,13
 1860.22 509.994 1860.22 509.994 1905.9 745 c 0,14,15
 1936.36 901.696 1936.36 901.696 1914.98 1011.65 c 0,16,17
 1904.16 1067.31 1904.16 1067.31 1880.05 1111 c 0,18,19
 1808.32 1241 1808.32 1241 1631.32 1241 c 0,0,1
598.366 876 m 1,16,-1
 799.366 876 l 1,17,18
 883.042 1147 883.042 1147 1082.5 1314 c 0,19,20
 1326.56 1520 1326.56 1520 1685.55 1520 c 0,21,22
 2045.55 1520 2045.55 1520 2209.5 1314 c 0,23,24
 2349.83 1137.69 2349.83 1137.69 2318.37 846.364 c 0,25,26
 2313.07 797.312 2313.07 797.312 2302.9 745 c 0,27,28
 2232.53 382.999 2232.53 382.999 1988.5 177 c 0,29,30
 1744.45 -29 1744.45 -29 1384.45 -29 c 0,31,32
 1025.45 -29 1025.45 -29 861.495 177 c 0,33,34
 729.567 342 729.567 342 747.884 606 c 1,35,-1
 545.884 606 l 1,36,-1
 428.09 0 l 1,37,-1
 43.0898 0 l 1,38,-1
 333.299 1493 l 1,39,-1
 718.299 1493 l 1,40,-1
 598.366 876 l 1,16,-1
EndSplineSet
EndChar
StartChar: afii10049
Encoding: 1071 1071 203
Width: 1577
Flags: HW
Fore
1005.42 831 m 2,0,1
 884.425 831 884.425 831 841.172 876 c 0,2,3
 803.797 914.006 803.797 914.006 812.27 993.387 c 0,4,5
 813.829 1007.99 813.829 1007.99 816.94 1024 c 0,6,7
 836.77 1126.01 836.77 1126.01 898.32 1170 c 0,8,9
 958.88 1214 958.88 1214 1079.87 1214 c 2,10,-1
 1241.87 1214 l 1,11,-1
 1167.42 831 l 1,12,-1
 1005.42 831 l 2,0,1
1115.72 565 m 1,11,-1
 1005.9 0 l 1,12,-1
 1390.9 0 l 1,13,-1
 1681.1 1493 l 1,14,-1
 1093.1 1493 l 2,15,16
 798.104 1493 798.104 1493 641.861 1394 c 0,17,18
 484.616 1295 484.616 1295 443.021 1081 c 0,19,20
 423.841 982.334 423.841 982.334 441.241 907.222 c 0,21,22
 449.941 869.667 449.941 869.667 467.786 838 c 0,23,24
 520.319 743 520.319 743 655.572 698 c 1,25,26
 573.073 680 573.073 680 498.634 616 c 0,27,28
 423.388 553 423.388 553 334.312 424 c 2,29,-1
 42.8955 0 l 1,30,-1
 452.896 0 l 1,31,-1
 707.01 371 l 2,32,33
 783.781 483 783.781 483 848.75 524 c 0,34,35
 912.719 565 912.719 565 1006.72 565 c 2,36,-1
 1115.72 565 l 1,11,-1
EndSplineSet
EndChar
StartChar: afii10065
Encoding: 1072 1072 204
Width: 1297
Flags: HW
Fore
663.31 504 m 2,0,1
 551.311 504 551.311 504 487.923 466 c 0,2,3
 423.537 428.002 423.537 428.002 409.152 354 c 0,4,5
 400.423 309.095 400.423 309.095 413.862 277.272 c 0,6,7
 420.773 260.905 420.773 260.905 433.548 248 c 0,8,9
 471.966 209 471.966 209 552.967 209 c 0,10,11
 653.968 209 653.968 209 737.156 282 c 0,12,13
 820.152 354 820.152 354 841.34 463 c 2,14,-1
 849.31 504 l 1,15,-1
 663.31 504 l 2,0,1
1236.55 639 m 2,14,-1
 1112.34 0 l 1,15,-1
 751.342 0 l 1,16,-1
 783.608 166 l 1,17,18
 691.783 64.0004 691.783 64.0004 592.743 17.5 c 0,19,20
 493.704 -29 493.704 -29 364.704 -29 c 0,21,22
 190.704 -29 190.704 -29 101.337 72 c 1,23,24
 13.164 174 13.164 174 44.6533 336 c 0,25,26
 82.9465 533 82.9465 533 236.829 625 c 0,27,28
 389.712 717 389.712 717 679.712 717 c 2,29,-1
 890.712 717 l 1,30,-1
 896.154 745 l 2,31,32
 907.125 801.44 907.125 801.44 884.699 838.04 c 0,33,34
 873.352 856.56 873.352 856.56 853.452 870 c 0,35,36
 794.034 909 794.034 909 652.033 909 c 0,37,38
 537.036 909 537.036 909 433.562 886 c 0,39,40
 330.092 863 330.092 863 236.15 817 c 1,41,-1
 289.216 1090 l 1,42,43
 409.658 1118.01 409.658 1118.01 528.38 1132 c 0,44,45
 647.295 1147 647.295 1147 763.296 1147 c 0,46,47
 1066.29 1147 1066.29 1147 1177.16 1028 c 0,48,49
 1271.33 926.814 1271.33 926.814 1248.92 719.701 c 0,50,51
 1244.75 681.182 1244.75 681.182 1236.55 639 c 2,14,-1
EndSplineSet
EndChar
StartChar: afii10066
Encoding: 1073 1073 205
Width: 1357
Flags: HW
Fore
545.997 -29 m 0,0,1
 238.298 -29 238.298 -29 108.142 143.995 c 0,2,3
 -7.49941 297.698 -7.49941 297.698 43.293 559 c 0,4,5
 96.9414 835 96.9414 835 291.265 991 c 1,6,7
 207.537 1063.07 207.537 1063.07 221.249 1189.1 c 0,8,9
 223.127 1206.36 223.127 1206.36 226.75 1225 c 0,10,11
 264.962 1401 264.962 1401 373.539 1476 c 0,12,13
 555.579 1601.16 555.579 1601.16 847.381 1606.76 c 0,14,15
 859.641 1607 859.641 1607 872.003 1607 c 2,16,-1
 1371 1607 l 1,17,-1
 1307.57 1363 l 1,18,-1
 820.574 1363 l 2,19,20
 623.58 1363 623.58 1363 599.665 1240 c 0,21,22
 590.795 1194.36 590.795 1194.36 661.411 1165.82 c 0,23,24
 714.565 1144.33 714.565 1144.33 774.588 1147 c 1,25,26
 1045.72 1147 1045.72 1147 1182.37 998.862 c 0,27,28
 1328.91 840.005 1328.91 840.005 1274.29 559 c 0,29,30
 1218.51 272.031 1218.51 272.031 1014.14 115.57 c 0,31,32
 825.301 -29 825.301 -29 545.997 -29 c 0,0,1
724.827 891 m 0,20,21
 528.984 891 528.984 891 446.608 669.163 c 0,22,23
 427.928 618.856 427.928 618.856 416.293 559 c 0,24,25
 379.024 367.274 379.024 367.274 449.04 284.409 c 0,26,27
 497.547 227 497.547 227 595.758 227 c 0,28,29
 789.346 227 789.346 227 871.249 449.323 c 0,30,31
 889.719 499.458 889.719 499.458 901.293 559 c 0,32,33
 938.303 749.401 938.303 749.401 870.362 832.551 c 0,34,35
 822.604 891 822.604 891 724.827 891 c 0,20,21
EndSplineSet
EndChar
StartChar: afii10067
Encoding: 1074 1074 206
Width: 1080
Flags: HW
Fore
594.175 0 m 2,0,-1
 -5.8252 0 l 1,1,-1
 213.825 1130 l 1,2,-1
 821.825 1130 l 2,3,4
 988.992 1130 988.992 1130 1061.61 1026 c 0,5,6
 1107.99 959.552 1107.99 959.552 1105.8 891 c 0,7,8
 1100.2 715.543 1100.2 715.543 889.886 621 c 1,9,10
 967.821 602.632 967.821 602.632 1003.89 549 c 0,11,12
 1065.1 457.977 1065.1 457.977 1061.49 366 c 0,13,14
 1057.43 251.092 1057.43 251.092 924 109 c 0,15,16
 820.892 0 820.892 0 594.175 0 c 2,0,-1
790.531 820 m 0,17,18
 794.812 846.471 794.812 846.471 773.393 867.686 c 0,19,20
 762.446 878.529 762.446 878.529 744.785 888 c 0,21,22
 706.097 909 706.097 909 572.867 909 c 2,23,-1
 495.867 909 l 1,24,-1
 458.935 719 l 1,25,-1
 552.935 719 l 2,26,27
 671.353 719 671.353 719 700 726.814 c 0,28,29
 778.944 748.349 778.944 748.349 790.531 820 c 0,17,18
660.382 248 m 0,28,29
 747.178 299.227 747.178 299.227 752.778 368.729 c 0,30,31
 753.071 372.376 753.071 372.376 753.092 376 c 0,32,33
 753.457 440.382 753.457 440.382 681.572 476.898 c 0,34,35
 626.252 505 626.252 505 542.337 505 c 2,36,-1
 417.337 505 l 1,37,-1
 360.189 211 l 1,38,-1
 462.189 211 l 2,39,40
 571.493 211 571.493 211 609.798 223.74 c 0,41,42
 632.425 231.265 632.425 231.265 660.382 248 c 0,28,29
EndSplineSet
EndChar
StartChar: afii10068
Encoding: 1075 1075 207
Width: 1108
Flags: HW
Fore
1113.34 855 m 1,0,-1
 557.342 855 l 1,1,-1
 391.147 0 l 1,2,-1
 77.1475 0 l 1,3,-1
 294.853 1120 l 1,4,-1
 1164.85 1120 l 1,5,-1
 1113.34 855 l 1,0,-1
EndSplineSet
EndChar
StartChar: afii10069
Encoding: 1076 1076 208
Width: 1479
Flags: HW
Fore
334.101 556 m 2,19,20
 447.036 1137 l 1,26,-1
 1397.04 1137 l 1,27,-1
 1225.01 252 l 1,0,-1
 1383.01 252 l 1,4,-1
 1266.96 -345 l 1,5,-1
 920.964 -345 l 1,6,-1
 987.831 -1 l 1,7,-1
 355.831 -1 l 1,8,-1
 288.964 -345 l 1,9,-1
 -58.0361 -345 l 1,10,-1
 58.0088 252 l 1,11,-1
 187.009 252 l 2,17,18
 232.515 252 232.515 252 258.732 300 c 0,0,0
 298.486 372.78 298.486 372.78 334.101 556 c 2,19,20
551.009 252 m 1,30,-1
 892.009 252 l 1,31,-1
 1014.66 883 l 1,32,-1
 727.663 883 l 1,33,-1
 664.101 556 l 2,34,35
 642.168 443.163 642.168 443.163 595.504 331.901 c 0,36,37
 571.297 274.188 571.297 274.188 551.009 252 c 1,30,-1
EndSplineSet
EndChar
StartChar: afii10070
Encoding: 1077 1077 209
Width: 1341
Flags: HW
Fore
1290.78 563 m 2,0,-1
 1270.95 461 l 1,1,-1
 433.951 461 l 1,2,3
 426.351 377.666 426.351 377.666 452.539 321.89 c 0,4,5
 465.947 293.333 465.947 293.333 488.213 272 c 0,6,7
 553.967 209 553.967 209 693.967 209 c 0,8,9
 806.966 209 806.966 209 932.382 242 c 0,10,11
 1056.99 276.001 1056.99 276.001 1195.21 344 c 1,12,-1
 1141.56 68 l 1,13,14
 1005.22 19.9981 1005.22 19.9981 873.563 -4 c 0,15,16
 741.704 -29 741.704 -29 614.704 -29 c 0,17,18
 310.705 -29 310.705 -29 171.833 126 c 0,19,20
 51.9423 259.728 51.9423 259.728 77.0542 487.712 c 0,21,22
 80.8609 522.273 80.8609 522.273 88 559 c 0,23,24
 141.26 833 141.26 833 337.778 990 c 0,25,26
 533.289 1147 533.289 1147 823.296 1147 c 0,27,28
 1087.29 1147 1087.29 1147 1215.39 988 c 0,29,30
 1342.48 829 1342.48 829 1290.78 563 c 2,0,-1
945.909 682 m 1,27,28
 965.736 784 965.736 784 917.787 846 c 0,29,30
 871.033 909 871.033 909 775.033 909 c 0,31,32
 671.033 909 671.033 909 594.662 850.5 c 0,33,34
 518.291 792 518.291 792 480.909 682 c 1,35,-1
 945.909 682 l 1,27,28
EndSplineSet
EndChar
StartChar: afii10072
Encoding: 1078 1078 210
Width: 1914
Flags: HW
HStem: 0 21G<-57.8525 303.147 681.147 1038.15 1415.15 1771.15> 484 242<732 781 1174 1220> 1100 20G<219.853 581.853 898.853 1255.85 1571.85 1928.85>
Fore
681.147 0 m 1,0,-1
 1038.15 0 l 1,1,-1
 1132.23 484 l 1,2,-1
 1174.23 484 l 2,3,4
 1209.61 484 1209.61 484 1218.95 462 c 2,5,-1
 1415.15 0 l 1,6,-1
 1771.15 0 l 1,7,-1
 1525.11 576 l 1,8,9
 1519.21 592.003 1519.21 592.003 1508.39 598 c 1,10,11
 1521.17 602.005 1521.17 602.005 1536.66 620 c 2,12,-1
 1536.86 621 l 2,13,14
 1537.52 621.556 1537.52 621.556 1539.44 624 c 2,15,-1
 1928.85 1120 l 1,16,-1
 1571.85 1120 l 1,17,-1
 1276.93 750 l 2,18,19
 1257.81 726 1257.81 726 1220.27 726 c 2,20,-1
 1179.27 726 l 1,21,-1
 1255.85 1120 l 1,22,-1
 898.853 1120 l 1,23,-1
 822.268 726 l 1,24,-1
 781.268 726 l 2,25,26
 742.267 726 742.267 726 733.933 750 c 1,27,-1
 581.853 1120 l 1,28,-1
 219.853 1120 l 1,29,-1
 416.44 624 l 2,30,31
 424.646 603.296 424.646 603.296 437.387 598 c 1,32,33
 427.416 593.001 427.416 593.001 412.11 576 c 1,34,-1
 -57.8525 0 l 1,35,-1
 303.147 0 l 1,36,-1
 678.951 462 l 2,37,38
 696.846 484 696.846 484 732.228 484 c 2,39,-1
 775.228 484 l 1,40,-1
 681.147 0 l 1,0,-1
EndSplineSet
EndChar
StartChar: afii10073
Encoding: 1079 1079 211
Width: 1112
Flags: HW
Fore
641.948 1159 m 0,0,1
 912.049 1159 912.049 1159 1037.71 1060.18 c 0,2,3
 1061.87 1041.17 1061.87 1041.17 1079.11 1018.91 c 0,4,5
 1136.36 945.015 1136.36 945.015 1115.75 839 c 0,6,7
 1089.33 703.086 1089.33 703.086 1008.99 650.336 c 0,8,9
 954.216 614.375 954.216 614.375 855.483 601 c 1,10,11
 1035.81 580.298 1035.81 580.298 1069.83 469 c 1,12,13
 1083.72 417 1083.72 417 1067.58 334 c 0,14,15
 1026.45 122.37 1026.45 122.37 774.38 28.5707 c 0,16,17
 606.235 -34 606.235 -34 369.052 -34 c 0,18,19
 213.051 -34 213.051 -34 58.5742 51 c 1,20,-1
 97.8389 253 l 1,21,22
 223.704 206 223.704 206 409.703 206 c 0,23,24
 667.703 206 667.703 206 734.282 281 c 0,25,26
 782.093 334.718 782.093 334.718 753.503 392.013 c 0,27,28
 735.881 427.327 735.881 427.327 691.781 450.425 c 2,29,30
 680.299 456 l 2,31,32
 609.517 488 609.517 488 497.519 488 c 2,33,-1
 354.519 488 l 1,34,-1
 401.17 728 l 1,35,-1
 550.17 728 l 2,36,37
 747.958 728 747.958 728 801.591 799.162 c 0,38,39
 812.927 814.202 812.927 814.202 816.386 832 c 0,40,41
 830.963 907 830.963 907 652.714 916 c 0,42,43
 621.095 918 621.095 918 581.103 918 c 0,44,45
 438.103 918 438.103 918 258.271 888 c 1,46,-1
 284.175 1083 l 1,47,48
 488.934 1159 488.934 1159 641.948 1159 c 0,0,1
EndSplineSet
EndChar
StartChar: afii10074
Encoding: 1080 1080 212
Width: 1398
Flags: HW
Fore
435.92 76 m 1,0,-1
 421.147 0 l 1,1,-1
 63.1475 0 l 1,2,-1
 280.853 1120 l 1,3,-1
 638.853 1120 l 1,4,-1
 526.89 544 l 1,5,-1
 1033.63 1052 l 1,6,-1
 1046.85 1120 l 1,7,-1
 1406.85 1120 l 1,8,-1
 1189.15 0 l 1,9,-1
 829.147 0 l 1,10,-1
 942.665 584 l 1,11,-1
 435.92 76 l 1,0,-1
EndSplineSet
EndChar
StartChar: afii10076
Encoding: 1082 1082 214
Width: 1383
Flags: HW
Fore
281.242 1124 m 1,0,-1
 639.242 1124 l 1,1,-1
 558.574 709 l 1,2,-1
 1050.46 1120 l 1,3,-1
 1466.46 1120 l 1,4,-1
 819.553 606 l 1,5,-1
 1291.76 0 l 1,6,-1
 857.758 0 l 1,7,-1
 511.534 467 l 1,8,-1
 420.758 0 l 1,9,-1
 62.7578 0 l 1,10,-1
 281.242 1124 l 1,0,-1
EndSplineSet
EndChar
StartChar: afii10077
Encoding: 1083 1083 215
Width: 1463
Flags: HW
Fore
648.033 877 m 1,0,-1
 1056.03 877 l 1,1,-1
 885.562 0 l 1,2,-1
 1245.56 0 l 1,3,-1
 1463.27 1120 l 1,4,-1
 337.268 1120 l 1,5,-1
 187.484 334 l 1,6,7
 175.045 270.001 175.045 270.001 113.103 224 c 0,8,9
 68.8817 192 68.8817 192 22.7168 186 c 0,10,11
 3.32218 184 3.32218 184 -23.6729 184 c 2,12,-1
 -72.6729 184 l 1,13,-1
 -121.073 -65 l 1,14,-1
 -9.26758 -66 l 2,15,16
 210.732 -66 210.732 -66 341.615 26 c 0,17,18
 354.172 34 354.172 34 366.114 44 c 0,19,20
 498.719 150.001 498.719 150.001 535.653 304 c 0,21,22
 539.569 319 539.569 319 542.484 334 c 2,23,-1
 648.033 877 l 1,0,-1
EndSplineSet
EndChar
StartChar: afii10078
Encoding: 1084 1084 216
Width: 1744
Flags: HW
Fore
954.583 135 m 1,0,-1
 693.777 136 l 1,1,-1
 544.827 661 l 1,2,-1
 416.342 0 l 1,3,-1
 67.3418 0 l 1,4,-1
 284.658 1118 l 1,5,-1
 767.658 1118 l 1,6,-1
 913.747 604 l 1,7,-1
 1266.66 1118 l 1,8,-1
 1749.66 1118 l 1,9,-1
 1532.34 0 l 1,10,-1
 1184.34 0 l 1,11,-1
 1312.63 660 l 1,12,-1
 954.583 135 l 1,0,-1
EndSplineSet
EndChar
StartChar: afii10079
Encoding: 1085 1085 217
Width: 1393
Flags: HW
Fore
513.672 476 m 1,0,-1
 421.147 0 l 1,1,-1
 63.1475 0 l 1,2,-1
 280.853 1120 l 1,3,-1
 638.853 1120 l 1,4,-1
 560.906 719 l 1,5,-1
 968.906 719 l 1,6,-1
 1046.85 1120 l 1,7,-1
 1406.85 1120 l 1,8,-1
 1189.15 0 l 1,9,-1
 829.147 0 l 1,10,-1
 921.672 476 l 1,11,-1
 513.672 476 l 1,0,-1
EndSplineSet
EndChar
StartChar: afii10080
Encoding: 1086 1086 218
Width: 1395
Flags: HW
Fore
769.534 891 m 0,0,1
 650.534 891 650.534 891 571.415 805.5 c 0,2,3
 492.295 720 492.295 720 461 559 c 0,4,5
 440.221 452.101 440.221 452.101 453.643 378.266 c 0,6,7
 460.436 340.899 460.436 340.899 475.988 312 c 0,8,9
 521.466 227 521.466 227 640.466 227 c 0,10,11
 757.466 227 757.466 227 835.988 312 c 0,12,13
 914.705 398 914.705 398 946 559 c 0,14,15
 966.779 665.899 966.779 665.899 953.798 739.734 c 0,16,17
 947.229 777.102 947.229 777.102 932.012 806 c 0,18,19
 886.534 891 886.534 891 769.534 891 c 0,0,1
819.296 1147 m 0,15,16
 1108.3 1147 1108.3 1147 1239.97 991 c 0,17,18
 1354.53 856.299 1354.53 856.299 1330.18 632.15 c 0,19,20
 1326.33 596.694 1326.33 596.694 1319 559 c 0,21,22
 1265.34 282.995 1265.34 282.995 1072.03 127 c 0,23,24
 879.703 -29 879.703 -29 590.704 -29 c 0,25,26
 300.705 -29 300.705 -29 168.027 127 c 0,27,28
 34.3508 283 34.3508 283 88 559 c 0,29,30
 141.649 835 141.649 835 335.473 991 c 0,31,32
 529.295 1147 529.295 1147 819.296 1147 c 0,15,16
EndSplineSet
EndChar
StartChar: afii10081
Encoding: 1087 1087 219
Width: 1436
Flags: HW
Fore
591.618 877 m 1,0,-1
 421.147 0 l 1,1,-1
 63.1475 0 l 1,2,-1
 280.853 1120 l 1,3,-1
 1406.85 1120 l 1,4,-1
 1189.15 0 l 1,5,-1
 829.147 0 l 1,6,-1
 999.618 877 l 1,7,-1
 591.618 877 l 1,0,-1
EndSplineSet
EndChar
StartChar: afii10082
Encoding: 1088 1088 220
Width: 1466
Flags: HW
Fore
491.415 162 m 1,0,-1
 377.12 -426 l 1,1,-1
 19.1201 -426 l 1,2,-1
 319.632 1120 l 1,3,-1
 677.632 1120 l 1,4,-1
 645.754 956 l 1,5,6
 738.801 1053.99 738.801 1053.99 837.744 1100 c 0,7,8
 936.891 1147 936.891 1147 1053.88 1147 c 0,9,10
 1260.88 1147 1260.88 1147 1361.81 982 c 0,11,12
 1445.96 845.519 1445.96 845.519 1425.22 643.268 c 0,13,14
 1421.03 602.472 1421.03 602.472 1412.58 559 c 0,15,16
 1362.24 300 1362.24 300 1197.36 136 c 0,17,18
 1032.29 -29 1032.29 -29 825.289 -29 c 0,19,20
 708.289 -29 708.289 -29 627.327 17.5 c 0,21,22
 546.366 64 546.366 64 491.415 162 c 1,0,-1
870.341 887 m 0,20,21
 755.341 887 755.341 887 677.819 802 c 0,22,23
 599.491 717.999 599.491 717.999 568.585 559 c 0,24,25
 547.98 453 547.98 453 561.411 380.333 c 0,26,27
 568.126 344 568.126 344 583.35 316 c 0,28,29
 627.828 231 627.828 231 742.828 231 c 0,30,31
 857.828 231 857.828 231 934.655 315 c 0,32,33
 1011.49 399.002 1011.49 399.002 1042.58 559 c 0,34,35
 1073.69 719 1073.69 719 1030.01 803 c 0,36,37
 985.34 887 985.34 887 870.341 887 c 0,20,21
EndSplineSet
EndChar
StartChar: afii10083
Encoding: 1089 1089 221
Width: 1214
Flags: HW
Fore
1179.24 1085 m 1,0,-1
 1122.49 793 l 1,1,2
 1059.21 842.997 1059.21 842.997 989.869 867 c 0,3,4
 921.534 891 921.534 891 842.534 891 c 0,5,6
 692.534 891 692.534 891 591.623 804 c 0,7,8
 491.517 715.999 491.517 715.999 461 559 c 0,9,10
 440.696 454.546 440.696 454.546 463.068 380.635 c 0,11,12
 474.322 343.453 474.322 343.453 496.377 314 c 0,13,14
 563.466 227 563.466 227 713.466 227 c 0,15,16
 797.468 227 797.468 227 878.325 252 c 0,17,18
 958.187 277.001 958.187 277.001 1031.71 326 c 1,19,-1
 974.756 33 l 1,20,21
 884.731 1.99995 884.731 1.99995 794.62 -14 c 0,22,23
 705.705 -29 705.705 -29 618.704 -29 c 0,24,25
 315.704 -29 315.704 -29 174.833 126 c 0,26,27
 34.1562 282 34.1562 282 88 559 c 0,28,29
 141.844 836 141.844 836 343.167 992 c 0,30,31
 544.303 1147 544.303 1147 847.296 1147 c 0,32,33
 935.295 1147 935.295 1147 1017.38 1132 c 0,34,35
 1100.31 1115.99 1100.31 1115.99 1179.24 1085 c 1,0,-1
EndSplineSet
EndChar
StartChar: afii10084
Encoding: 1090 1090 222
Width: 1127
Flags: HW
Fore
1131.42 876 m 1,0,-1
 801.424 876 l 1,1,-1
 631.147 0 l 1,2,-1
 275.147 0 l 1,3,-1
 445.424 876 l 1,4,-1
 115.424 876 l 1,5,-1
 162.853 1120 l 1,6,-1
 1178.85 1120 l 1,7,-1
 1131.42 876 l 1,0,-1
EndSplineSet
EndChar
StartChar: afii10085
Encoding: 1091 1091 223
Width: 1335
Flags: HW
Fore
176.811 1120 m 1,0,-1
 534.811 1120 l 1,1,-1
 688.082 360 l 1,2,-1
 1091.81 1120 l 1,3,-1
 1449.81 1120 l 1,4,-1
 740.501 -106 l 1,5,6
 633.153 -293 633.153 -293 524.573 -368 c 0,7,8
 415.19 -442 415.19 -442 260.189 -442 c 2,9,-1
 53.1895 -442 l 1,10,-1
 98.8682 -207 l 1,11,-1
 210.868 -207 l 2,12,13
 301.867 -207 301.867 -207 349.506 -178 c 0,14,15
 396.143 -149 396.143 -149 433.721 -74 c 2,16,-1
 449.747 -43 l 1,17,-1
 176.811 1120 l 1,0,-1
EndSplineSet
EndChar
StartChar: afii10086
Encoding: 1092 1092 224
Width: 1823
Flags: HW
Fore
1754.58 558 m 0,0,1
 1697.91 293.713 1697.91 293.713 1546.9 159.999 c 0,2,3
 1310.88 -49 1310.88 -49 1047.59 -49 c 2,4,-1
 965.595 -49 l 1,5,-1
 916.805 -300 l 1,6,-1
 603.805 -300 l 1,7,-1
 652.595 -49 l 1,8,-1
 582.4 -50 l 2,9,10
 277.317 -54.3462 277.317 -54.3462 159.792 135.291 c 0,11,12
 62.0681 292.977 62.0681 292.977 113.583 558 c 0,13,14
 162.331 808.784 162.331 808.784 331.211 976.396 c 0,15,16
 340.636 985.751 340.636 985.751 350.527 995 c 0,17,18
 486.271 1121.68 486.271 1121.68 700.693 1155.13 c 0,19,20
 758.456 1164.14 758.456 1164.14 818.572 1165 c 2,21,-1
 888.767 1166 l 1,22,-1
 936.195 1410 l 1,23,-1
 1249.2 1410 l 1,24,-1
 1201.77 1166 l 1,25,-1
 1283.77 1166 l 2,26,27
 1527.27 1166 1527.27 1166 1650.36 1025 c 1,28,29
 1812.18 831.899 1812.18 831.899 1754.58 558 c 0,0,1
1418.72 533 m 1,24,25
 1449.12 642.421 1449.12 642.421 1408.57 753.424 c 0,26,27
 1369.42 860.616 1369.42 860.616 1287.53 891.166 c 0,28,29
 1261.18 901 1261.18 901 1232.26 901 c 2,30,-1
 1150.26 901 l 1,31,-1
 1017.11 216 l 1,32,-1
 1099.11 216 l 2,33,34
 1184.11 216 1184.11 216 1276.24 299 c 0,35,36
 1383.91 395.012 1383.91 395.012 1418.72 533 c 1,24,25
449.248 582 m 1,33,34
 416.884 465.443 416.884 465.443 461.643 353.562 c 0,35,36
 502.033 252.603 502.033 252.603 581.728 224.01 c 0,37,38
 606.84 215 606.84 215 633.911 215 c 2,39,-1
 704.105 216 l 1,40,-1
 837.256 901 l 1,41,-1
 767.062 900 l 2,42,43
 682.06 900 682.06 900 591.122 818 c 0,44,45
 484.266 720.998 484.266 720.998 449.248 582 c 1,33,34
EndSplineSet
EndChar
StartChar: afii10087
Encoding: 1093 1093 225
Width: 1321
Flags: HW
Fore
457.527 573 m 1,0,-1
 159.853 1120 l 1,1,-1
 538.853 1120 l 1,2,-1
 703.318 788 l 1,3,-1
 999.853 1120 l 1,4,-1
 1378.85 1120 l 1,5,-1
 868.916 575 l 1,6,-1
 1181.15 0 l 1,7,-1
 802.147 0 l 1,8,-1
 618.958 354 l 1,9,-1
 301.147 0 l 1,10,-1
 -77.8525 0 l 1,11,-1
 457.527 573 l 1,0,-1
EndSplineSet
EndChar
StartChar: afii10088
Encoding: 1094 1094 226
Width: 1629
Flags: HW
Fore
482.398 260 m 1,0,-1
 649.565 1120 l 1,1,-1
 325.565 1120 l 1,2,-1
 107.859 0 l 1,3,-1
 1179.86 0 l 1,4,-1
 1118.43 -316 l 1,5,-1
 1424.43 -316 l 1,6,-1
 1536.4 260 l 1,7,-1
 1230.4 260 l 1,8,-1
 1397.57 1120 l 1,9,-1
 1071.57 1120 l 1,10,-1
 904.398 260 l 1,11,-1
 482.398 260 l 1,0,-1
EndSplineSet
EndChar
StartChar: afii10089
Encoding: 1095 1095 227
Width: 1419
Flags: HW
Fore
234.591 883 m 2,0,-1
 280.658 1120 l 1,1,-1
 638.658 1120 l 1,2,-1
 593.757 889 l 2,3,4
 565.889 745.633 565.889 745.633 605.43 676.851 c 0,5,6
 633.513 628 633.513 628 693.023 628 c 0,7,8
 832.023 628 832.023 628 887.909 684 c 0,9,10
 958.385 755.14 958.385 755.14 984.909 831.619 c 0,11,12
 997.866 868.979 997.866 868.979 1008.95 926 c 2,13,-1
 1046.66 1120 l 1,14,-1
 1406.66 1120 l 1,15,-1
 1189.34 2 l 1,16,-1
 829.342 2 l 1,17,-1
 925.365 496 l 1,18,19
 909.201 454 909.201 454 817.482 404 c 0,20,21
 755.872 370 755.872 370 606.873 370 c 0,22,23
 453.874 370 453.874 370 346.34 465 c 0,24,25
 204.451 590.194 204.451 590.194 224.903 815.548 c 0,26,27
 227.901 848.585 227.901 848.585 234.591 883 c 2,0,-1
EndSplineSet
EndChar
StartChar: afii10090
Encoding: 1096 1096 228
Width: 1802
Flags: HW
Fore
1561.15 0 m 1,0,-1
 77.1475 0 l 1,1,-1
 294.853 1120 l 1,2,-1
 608.853 1120 l 1,3,-1
 441.686 260 l 1,4,-1
 711.686 260 l 1,5,-1
 866.023 1054 l 1,6,-1
 1180.02 1054 l 1,7,-1
 1025.69 260 l 1,8,-1
 1295.69 260 l 1,9,-1
 1462.85 1120 l 1,10,-1
 1778.85 1120 l 1,11,-1
 1561.15 0 l 1,0,-1
EndSplineSet
EndChar
StartChar: afii10091
Encoding: 1097 1097 229
Width: 2060
Flags: HW
Fore
1493.57 1120 m 1,0,-1
 1809.57 1120 l 1,1,-1
 1642.4 260 l 1,2,-1
 1948.59 261 l 1,3,-1
 1836.43 -316 l 1,4,-1
 1530.43 -316 l 1,5,-1
 1591.86 0 l 1,6,-1
 107.859 0 l 1,7,-1
 325.565 1120 l 1,8,-1
 639.565 1120 l 1,9,-1
 472.398 260 l 1,10,-1
 742.398 260 l 1,11,-1
 896.736 1054 l 1,12,-1
 1210.74 1054 l 1,13,-1
 1056.4 260 l 1,14,-1
 1326.4 260 l 1,15,-1
 1493.57 1120 l 1,0,-1
EndSplineSet
EndChar
StartChar: afii10092
Encoding: 1098 1098 230
Width: 1509
Flags: HW
Fore
1090.82 343 m 0,0,1
 1109.24 437.797 1109.24 437.797 1008.36 463.363 c 0,2,3
 958.495 476 958.495 476 859.672 476 c 2,4,-1
 757.672 476 l 1,5,-1
 708.105 221 l 1,6,-1
 841.105 221 l 2,7,8
 994.104 221 994.104 221 1049.05 267 c 0,9,10
 1081.29 294 1081.29 294 1090.82 343 c 0,0,1
305.147 0 m 1,9,-1
 476.229 875 l 1,10,-1
 189.229 875 l 1,11,-1
 235.853 1120 l 1,12,-1
 882.853 1120 l 1,13,-1
 804.906 719 l 1,14,-1
 1007.91 719 l 2,15,16
 1158.2 719 1158.2 719 1274.58 666.865 c 0,17,18
 1317.54 647.622 1317.54 647.622 1344.44 624 c 0,19,20
 1397 578.127 1397 578.127 1415.16 482.137 c 0,21,22
 1426.85 420.321 1426.85 420.321 1415.71 363 c 0,23,24
 1381.42 186.626 1381.42 186.626 1251.7 88.6356 c 0,25,26
 1179.78 34.3072 1179.78 34.3072 1089.26 16 c 0,27,28
 1013.53 0.080759 1013.53 0.080759 891.147 0 c 2,29,-1
 305.147 0 l 1,9,-1
EndSplineSet
EndChar
StartChar: afii10093
Encoding: 1099 1099 231
Width: 1845
Flags: HW
Fore
1474.85 1120 m 1,0,-1
 1832.85 1120 l 1,1,-1
 1615.15 0 l 1,2,-1
 1257.15 0 l 1,3,-1
 1474.85 1120 l 1,0,-1
862.819 343 m 0,4,5
 874.793 437.056 874.793 437.056 783.434 462.635 c 0,6,7
 735.699 476 735.699 476 631.672 476 c 2,8,-1
 529.672 476 l 1,9,-1
 480.105 221 l 1,10,-1
 613.105 221 l 2,11,12
 752.642 221 752.642 221 818.658 265 c 0,13,14
 856.231 290.738 856.231 290.738 862.819 343 c 0,4,5
77.1475 0 m 1,13,-1
 294.853 1120 l 1,14,-1
 654.853 1120 l 1,15,-1
 576.906 719 l 1,16,-1
 779.906 719 l 2,17,18
 930.196 719 930.196 719 1046.58 666.864 c 0,19,20
 1089.54 647.622 1089.54 647.622 1116.44 624 c 0,21,22
 1169 578.127 1169 578.127 1187.16 482.137 c 0,23,24
 1198.85 420.321 1198.85 420.321 1187.71 363 c 0,25,26
 1153.42 186.626 1153.42 186.626 1023.7 88.6356 c 0,27,28
 951.778 34.3073 951.778 34.3073 861.257 16 c 0,29,30
 860.063 14.9999 860.063 14.9999 859.062 15 c 0,31,32
 784.148 0 784.148 0 663.147 0 c 2,33,-1
 77.1475 0 l 1,13,-1
EndSplineSet
EndChar
StartChar: afii10094
Encoding: 1100 1100 232
Width: 1299
Flags: HW
Fore
862.819 343 m 0,0,1
 874.793 437.056 874.793 437.056 783.434 462.635 c 0,2,3
 735.699 476 735.699 476 631.672 476 c 2,4,-1
 529.672 476 l 1,5,-1
 480.105 221 l 1,6,-1
 613.105 221 l 2,7,8
 752.642 221 752.642 221 818.658 265 c 0,9,10
 856.231 290.738 856.231 290.738 862.819 343 c 0,0,1
77.1475 0 m 1,9,-1
 294.853 1120 l 1,10,-1
 654.853 1120 l 1,11,-1
 576.906 719 l 1,12,-1
 779.906 719 l 2,13,14
 930.196 719 930.196 719 1046.58 666.864 c 0,15,16
 1089.54 647.622 1089.54 647.622 1116.44 624 c 0,17,18
 1169 578.127 1169 578.127 1187.16 482.137 c 0,19,20
 1198.85 420.321 1198.85 420.321 1187.71 363 c 0,21,22
 1153.42 186.626 1153.42 186.626 1023.7 88.6356 c 0,23,24
 951.778 34.3073 951.778 34.3073 861.257 16 c 0,25,26
 860.063 14.9999 860.063 14.9999 859.062 15 c 0,27,28
 784.148 0 784.148 0 663.147 0 c 2,29,-1
 77.1475 0 l 1,9,-1
EndSplineSet
EndChar
StartChar: afii10095
Encoding: 1101 1101 233
Width: 1158
Flags: HW
Fore
711.492 685 m 1,0,-1
 313.492 685 l 1,1,-1
 266.258 442 l 1,2,-1
 667.258 442 l 1,3,4
 632.486 366.001 632.486 366.001 572.377 314 c 0,5,6
 472.466 227 472.466 227 322.466 227 c 0,7,8
 238.465 227 238.465 227 168.325 252 c 0,9,10
 97.1827 277.001 97.1827 277.001 42.709 326 c 1,11,-1
 -14.2441 33 l 1,12,13
 63.7304 1.99995 63.7304 1.99995 146.62 -14 c 0,14,15
 230.704 -29 230.704 -29 317.704 -29 c 0,16,17
 620.704 -29 620.704 -29 821.833 126 c 0,18,19
 1023.15 281.994 1023.15 281.994 1077 559 c 0,20,21
 1112.82 743.237 1112.82 743.237 1062.57 873.952 c 0,22,23
 1037.28 939.76 1037.28 939.76 990.167 992 c 0,24,25
 849.291 1147 849.291 1147 546.296 1147 c 0,26,27
 458.295 1147 458.295 1147 369.38 1132 c 0,28,29
 281.206 1115.98 281.206 1115.98 190.244 1085 c 1,30,-1
 133.485 793 l 1,31,32
 216.204 843 216.204 843 293.869 867 c 0,33,34
 372.534 891 372.534 891 451.534 891 c 0,35,36
 601.535 891 601.535 891 667.623 804 c 0,37,38
 704.099 754.999 704.099 754.999 711.492 685 c 1,0,-1
EndSplineSet
EndChar
StartChar: afii10096
Encoding: 1102 1102 234
Width: 1974
Flags: HW
Fore
1323.53 891 m 0,0,1
 1204.53 891 1204.53 891 1126.01 806 c 0,2,3
 1046.29 719.987 1046.29 719.987 1015 559 c 0,4,5
 994.221 452.101 994.221 452.101 1007.64 378.266 c 0,6,7
 1014.44 340.899 1014.44 340.899 1029.99 312 c 0,8,9
 1075.47 227 1075.47 227 1194.47 227 c 0,10,11
 1311.47 227 1311.47 227 1389.99 312 c 0,12,13
 1468.71 397.999 1468.71 397.999 1500 559 c 0,14,15
 1520.78 665.903 1520.78 665.903 1507.8 739.734 c 0,16,17
 1501.23 777.102 1501.23 777.102 1486.01 806 c 0,18,19
 1440.53 891 1440.53 891 1323.53 891 c 0,0,1
555.464 690 m 1,16,-1
 677.464 690 l 1,17,18
 744.228 873.999 744.228 873.999 889.973 991 c 0,19,20
 1083.29 1147 1083.29 1147 1373.3 1147 c 0,21,22
 1662.3 1147 1662.3 1147 1793.97 991 c 0,23,24
 1908.53 856.299 1908.53 856.299 1884.18 632.15 c 0,25,26
 1880.33 596.694 1880.33 596.694 1873 559 c 0,27,28
 1819.34 282.995 1819.34 282.995 1626.03 127 c 0,29,30
 1433.7 -29 1433.7 -29 1144.7 -29 c 0,31,32
 854.705 -29 854.705 -29 722.027 127 c 0,33,34
 615.937 250 615.937 250 627.618 449 c 1,35,-1
 508.618 449 l 1,36,-1
 421.342 0 l 1,37,-1
 63.3418 0 l 1,38,-1
 281.047 1120 l 1,39,-1
 639.047 1120 l 1,40,-1
 555.464 690 l 1,16,-1
EndSplineSet
EndChar
StartChar: afii10097
Encoding: 1103 1103 235
Width: 1224
Flags: HW
Fore
704.548 681 m 2,0,-1
 798.548 681 l 1,1,-1
 842.089 905 l 1,2,-1
 765.089 905 l 2,3,4
 660.842 905 660.842 905 614 892.619 c 0,5,6
 531.683 870.71 531.683 870.71 511.072 809.997 c 1,7,8
 507.185 796 l 1,9,10
 496.663 748.17 496.663 748.17 530.389 712.754 c 0,11,12
 540.247 702.403 540.247 702.403 551 697.423 c 0,13,14
 586.465 681 586.465 681 704.548 681 c 2,0,-1
666.175 0 m 1,11,-1
 753.841 451 l 1,12,-1
 667.841 451 l 2,13,14
 595.841 451 595.841 451 547.784 461 c 1,15,-1
 243.175 0 l 1,16,-1
 -69.8252 0 l 1,17,-1
 302.363 536 l 1,18,19
 257.585 567.999 257.585 567.999 223.469 624 c 1,20,21
 190.369 673.938 190.369 673.938 197.972 762.999 c 0,22,23
 199.919 785.798 199.919 785.798 204.623 810 c 0,24,25
 229.297 936.965 229.297 936.965 322.609 1026 c 1,26,27
 392.076 1088.96 392.076 1088.96 508.766 1117.64 c 0,28,29
 559.076 1130 559.076 1130 602.825 1130 c 2,30,-1
 1210.83 1130 l 1,31,-1
 991.175 0 l 1,32,-1
 666.175 0 l 1,11,-1
EndSplineSet
EndChar
StartChar: afii10099
Encoding: 1106 1106 238
Width: 1477
Flags: HW
Fore
1010.1 1029 m 0,0,1
 1284.32 1029 1284.32 1029 1324.21 795.647 c 0,2,3
 1340.83 698.359 1340.83 698.359 1314.72 564 c 2,4,-1
 1177.68 -141 l 2,5,6
 1146.05 -303.693 1146.05 -303.693 1038.07 -427.33 c 0,7,8
 1002.32 -468.255 1002.32 -468.255 962.285 -498 c 0,9,10
 826.458 -600 826.458 -600 589.458 -600 c 2,11,-1
 514.458 -600 l 1,12,-1
 571.605 -306 l 1,13,-1
 633.605 -306 l 2,14,15
 665.003 -306 665.003 -306 717.491 -276.979 c 0,16,17
 735.378 -267.09 735.378 -267.09 744.937 -258 c 0,18,19
 792.802 -210.053 792.802 -210.053 803.989 -185.191 c 0,20,21
 812.967 -165.237 812.967 -165.237 823.51 -111 c 2,22,-1
 923.228 402 l 2,23,24
 952.191 551.013 952.191 551.013 956.492 604 c 0,25,26
 963.905 714.485 963.905 714.485 893.999 746.171 c 1,27,28
 863.397 755.626 l 1,29,30
 845.693 759 845.693 759 824.621 759 c 0,31,32
 667.831 759 667.831 759 579.43 598.964 c 0,33,34
 539.441 526.569 539.441 526.569 521.253 433 c 2,35,-1
 437.086 0 l 1,36,-1
 79.0859 0 l 1,37,-1
 313.897 1208 l 1,38,-1
 107.897 1208 l 1,39,-1
 157.659 1464 l 1,40,-1
 363.659 1464 l 1,41,-1
 381.542 1556 l 1,42,-1
 739.542 1556 l 1,43,-1
 721.659 1464 l 1,44,-1
 1062.66 1464 l 1,45,-1
 1012.9 1208 l 1,46,-1
 671.897 1208 l 1,47,-1
 599.977 838 l 1,48,49
 700.026 936 700.026 936 799.968 982 c 0,50,51
 900.114 1029 900.114 1029 1010.1 1029 c 0,0,1
EndSplineSet
EndChar
StartChar: afii10101
Encoding: 1108 1108 240
Width: 1239
Flags: HW
Fore
502.492 685 m 1,0,-1
 900.492 685 l 1,1,-1
 853.258 442 l 1,2,-1
 452.258 442 l 1,3,4
 457.484 366.002 457.484 366.002 496.377 314 c 0,5,6
 563.466 227 563.466 227 713.466 227 c 0,7,8
 797.468 227 797.468 227 878.325 252 c 0,9,10
 958.187 277.001 958.187 277.001 1031.71 326 c 1,11,-1
 974.756 33 l 1,12,13
 884.731 1.99995 884.731 1.99995 794.62 -14 c 0,14,15
 705.705 -29 705.705 -29 618.704 -29 c 0,16,17
 315.704 -29 315.704 -29 174.833 126 c 0,18,19
 34.1562 282 34.1562 282 88 559 c 0,20,21
 141.844 836 141.844 836 343.167 992 c 0,22,23
 544.303 1147 544.303 1147 847.296 1147 c 0,24,25
 935.295 1147 935.295 1147 1017.38 1132 c 0,26,27
 1100.31 1115.99 1100.31 1115.99 1179.24 1085 c 1,28,-1
 1122.49 793 l 1,29,30
 1059.21 842.997 1059.21 842.997 989.869 867 c 0,31,32
 921.534 891 921.534 891 842.534 891 c 0,33,34
 692.534 891 692.534 891 591.623 804 c 1,35,36
 537.098 754.999 537.098 754.999 502.492 685 c 1,0,-1
EndSplineSet
EndChar
StartChar: afii10102
Encoding: 1109 1109 241
Width: 1219
Flags: HW
Fore
716.296 1147 m 0,0,1
 913.262 1147 913.262 1147 1149.24 1085 c 1,2,-1
 1096.37 813 l 1,3,4
 885.037 909 885.037 909 691.033 909 c 0,5,6
 502.708 909 502.708 909 473.35 818.727 c 0,7,8
 471.201 812.119 471.201 812.119 469.817 805 c 0,9,10
 456.762 737.836 456.762 737.836 552.002 715.976 c 0,11,12
 576.788 710.287 576.788 710.287 622.38 705 c 2,13,-1
 683.63 696 l 2,14,15
 951.824 661.001 951.824 661.001 1031.28 581 c 0,16,17
 1099.65 512.15 1099.65 512.15 1084.57 375.92 c 0,18,19
 1082.12 353.844 1082.12 353.844 1077.49 330 c 0,20,21
 1007.71 -29 1007.71 -29 481.704 -29 c 0,22,23
 258.704 -29 258.704 -29 22.3105 41 c 1,24,-1
 75.1826 313 l 1,25,26
 268.964 209 268.964 209 502.967 209 c 0,27,28
 713.968 209 713.968 209 736.32 324 c 0,29,30
 749.927 393.993 749.927 393.993 667.35 416.796 c 0,31,32
 641.603 423.906 641.603 423.906 575.313 432 c 2,33,-1
 513.869 440 l 2,34,35
 280.701 470 280.701 470 200.445 551 c 0,36,37
 130.956 621.134 130.956 621.134 145.679 754.243 c 0,38,39
 147.961 774.866 147.961 774.866 152.263 797 c 0,40,41
 205.904 1072.97 205.904 1072.97 518.062 1130.74 c 0,42,43
 605.928 1147 605.928 1147 716.296 1147 c 0,0,1
EndSplineSet
EndChar
StartChar: afii10103
Encoding: 1110 1110 242
Width: 642
Flags: HW
Fore
238.479 1120 m 1,0,-1
 596.479 1120 l 1,1,-1
 378.772 0 l 1,2,-1
 20.7725 0 l 1,3,-1
 238.479 1120 l 1,0,-1
323.228 1556 m 1,4,-1
 681.228 1556 l 1,5,-1
 624.469 1264 l 1,6,-1
 266.469 1264 l 1,7,-1
 323.228 1556 l 1,4,-1
EndSplineSet
EndChar
StartChar: afii10105
Encoding: 1112 1112 244
Width: 702
Flags: HW
Fore
281.437 1120 m 1,0,-1
 639.437 1120 l 1,1,-1
 425.618 20 l 2,2,3
 381.883 -205 381.883 -205 250.848 -323.5 c 0,4,5
 119.814 -442 119.814 -442 -85.1855 -442 c 2,6,-1
 -262.186 -442 l 1,7,-1
 -216.507 -207 l 1,8,-1
 -154.507 -207 l 2,9,10
 -52.5063 -207 -52.5063 -207 -5.56543 -161 c 0,11,12
 41.3761 -114.999 41.3761 -114.999 67.6182 20 c 2,13,-1
 281.437 1120 l 1,0,-1
366.186 1556 m 1,13,-1
 724.186 1556 l 1,14,-1
 667.427 1264 l 1,15,-1
 309.427 1264 l 1,16,-1
 366.186 1556 l 1,13,-1
EndSplineSet
EndChar
StartChar: afii10106
Encoding: 1113 1113 245
Width: 2140
Flags: HW
Fore
1671.23 343 m 0,0,1
 1690.04 439.036 1690.04 439.036 1585.68 464.169 c 0,2,3
 1536.56 476 1536.56 476 1440.09 476 c 2,4,-1
 1338.09 476 l 1,5,-1
 1288.52 221 l 1,6,-1
 1421.52 221 l 2,7,8
 1547.97 221 1547.97 221 1609.5 253.181 c 0,9,10
 1658.69 278.909 1658.69 278.909 1671.23 343 c 0,0,1
885.562 0 m 1,9,-1
 1056.03 877 l 1,10,-1
 648.033 877 l 1,11,-1
 542.484 334 l 1,12,13
 511.911 171.713 511.911 171.713 391.953 65.1096 c 0,14,15
 383.566 57.656 383.566 57.656 374.66 50.3271 c 0,16,17
 244.453 -56.8257 244.453 -56.8257 33.8604 -65.1717 c 0,18,19
 12.9588 -66 12.9588 -66 -9.26758 -66 c 2,20,-1
 -121.073 -65 l 1,21,-1
 -72.6729 184 l 1,22,-1
 -23.6729 184 l 2,23,24
 60.8843 184 60.8843 184 113.103 224 c 0,25,26
 175.045 270.001 175.045 270.001 187.484 334 c 1,27,-1
 337.268 1120 l 1,28,-1
 1463.27 1120 l 1,29,-1
 1385.32 719 l 1,30,-1
 1588.32 719 l 2,31,32
 1738.61 719 1738.61 719 1854.99 666.865 c 0,33,34
 1897.95 647.623 1897.95 647.623 1924.85 624 c 0,35,36
 1977.4 578.138 1977.4 578.138 1995.59 483.351 c 0,37,38
 2007.48 421.416 2007.48 421.416 1996.12 363 c 0,39,40
 1961.84 186.63 1961.84 186.63 1832.11 88.6358 c 1,41,42
 1790.17 60.974 l 1,43,44
 1753.18 39.8371 1753.18 39.8371 1712.02 26.894 c 0,45,46
 1691.28 20.3706 1691.28 20.3706 1669.67 16 c 0,47,48
 1593.94 0.0807619 1593.94 0.0807619 1471.56 0 c 2,49,-1
 885.562 0 l 1,9,-1
EndSplineSet
EndChar
StartChar: afii10107
Encoding: 1114 1114 246
Width: 2030
Flags: HW
Fore
1614.82 343 m 0,0,1
 1633.5 439.102 1633.5 439.102 1529.2 464.198 c 0,2,3
 1480.14 476 1480.14 476 1383.67 476 c 2,4,-1
 1281.67 476 l 1,5,-1
 1232.11 221 l 1,6,-1
 1365.11 221 l 2,7,8
 1518.13 221 1518.13 221 1573.05 267 c 0,9,10
 1605.3 294.018 1605.3 294.018 1614.82 343 c 0,0,1
829.147 0 m 1,9,-1
 921.672 476 l 1,10,-1
 513.672 476 l 1,11,-1
 421.147 0 l 1,12,-1
 63.1475 0 l 1,13,-1
 280.853 1120 l 1,14,-1
 638.853 1120 l 1,15,-1
 560.906 719 l 1,16,-1
 968.906 719 l 1,17,-1
 1046.85 1120 l 1,18,-1
 1406.85 1120 l 1,19,-1
 1328.91 719 l 1,20,-1
 1531.91 719 l 2,21,22
 1682.2 719 1682.2 719 1798.58 666.865 c 0,23,24
 1841.54 647.622 1841.54 647.622 1868.44 624 c 0,25,26
 1920.98 578.137 1920.98 578.137 1939.17 483.351 c 0,27,28
 1951.06 421.416 1951.06 421.416 1939.71 363 c 0,29,30
 1905.42 186.626 1905.42 186.626 1775.7 88.6354 c 0,31,32
 1703.78 34.3073 1703.78 34.3073 1613.26 16 c 0,33,34
 1537.53 0.0807619 1537.53 0.0807619 1415.15 0 c 2,35,-1
 829.147 0 l 1,9,-1
EndSplineSet
EndChar
StartChar: afii10108
Encoding: 1115 1115 247
Width: 1458
Flags: HW
Fore
766.307 759 m 0,0,1
 609.516 759 609.516 759 521.116 598.964 c 0,2,3
 481.127 526.569 481.127 526.569 462.938 433 c 2,4,-1
 378.772 0 l 1,5,-1
 20.7725 0 l 1,6,-1
 255.584 1208 l 1,7,-1
 49.584 1208 l 1,8,-1
 99.3447 1464 l 1,9,-1
 305.345 1464 l 1,10,-1
 323.228 1556 l 1,11,-1
 681.228 1556 l 1,12,-1
 663.345 1464 l 1,13,-1
 1004.34 1464 l 1,14,-1
 954.584 1208 l 1,15,-1
 613.584 1208 l 1,16,-1
 541.663 838 l 1,17,18
 641.711 935.999 641.711 935.999 741.653 982 c 0,19,20
 841.799 1029 841.799 1029 951.789 1029 c 0,21,22
 1226.01 1029 1226.01 1029 1265.89 795.647 c 0,23,24
 1282.52 698.359 1282.52 698.359 1256.4 564 c 2,25,-1
 1146.77 0 l 1,26,-1
 786.772 0 l 1,27,-1
 864.913 402 l 2,28,29
 893.488 549.01 893.488 549.01 898.178 604 c 0,30,31
 905.593 714.484 905.593 714.484 835.685 746.171 c 0,32,33
 807.383 759 807.383 759 766.307 759 c 0,0,1
EndSplineSet
EndChar
StartChar: afii10193
Encoding: 1119 1119 251
Width: 1436
Flags: HW
Fore
828.667 0 m 1,0,-1
 781.627 -242 l 1,1,-1
 423.627 -242 l 1,2,-1
 470.667 0 l 1,3,-1
 86.667 0 l 1,4,-1
 304.373 1120 l 1,5,-1
 662.373 1120 l 1,6,-1
 491.901 243 l 1,7,-1
 899.901 243 l 1,8,-1
 1070.37 1120 l 1,9,-1
 1430.37 1120 l 1,10,-1
 1212.67 0 l 1,11,-1
 828.667 0 l 1,0,-1
EndSplineSet
EndChar
StartChar: uni2010
Encoding: 8208 8208 237
Width: 850
Flags: W
Fore
109 735 m 1,0,-1
 737 735 l 1,1,-1
 680 444 l 1,2,-1
 51 444 l 1,3,-1
 109 735 l 1,0,-1
EndSplineSet
KernsSLIF: 356 -301 0 0 221 -339 0 0 376 -339 0 0 89 -339 0 0 88 -206 0 0 87 -92 0 0 86 -149 0 0 84 -301 0 0
EndChar
StartChar: figuredash
Encoding: 8210 8210 239
Width: 1024
Flags: W
Fore
-10 690 m 1,0,-1
 1014 690 l 1,1,-1
 963 432 l 1,2,-1
 -61 432 l 1,3,-1
 -10 690 l 1,0,-1
EndSplineSet
EndChar
StartChar: endash
Encoding: 8211 8211 178
Width: 1024
Flags: W
Fore
-10 690 m 1,0,-1
 1014 690 l 1,1,-1
 963 432 l 1,2,-1
 -61 432 l 1,3,-1
 -10 690 l 1,0,-1
EndSplineSet
EndChar
StartChar: emdash
Encoding: 8212 8212 179
Width: 2048
Flags: W
Fore
-10 690 m 1,0,-1
 2038 690 l 1,1,-1
 1987 432 l 1,2,-1
 -61 432 l 1,3,-1
 -10 690 l 1,0,-1
EndSplineSet
EndChar
StartChar: afii00208
Encoding: 8213 8213 180
Width: 2048
Flags: W
Fore
-10 690 m 1,0,-1
 2038 690 l 1,1,-1
 1987 432 l 1,2,-1
 -61 432 l 1,3,-1
 -10 690 l 1,0,-1
EndSplineSet
EndChar
StartChar: quoteleft
Encoding: 8216 8216 182
Width: 778
Flags: W
Fore
571 856 m 1,0,-1
 231 856 l 1,1,-1
 289 1141 l 1,2,-1
 584 1493 l 1,3,-1
 797 1493 l 1,4,-1
 627 1141 l 1,5,-1
 571 856 l 1,0,-1
EndSplineSet
KernsSLIF: 221 75 0 0 193 -272 0 0 194 -272 0 0 376 75 0 0 195 -272 0 0 192 -272 0 0 198 -264 0 0 196 -272 0 0 89 75 0 0 86 38 0 0 74 -92 0 0 65 -272 0 0
EndChar
StartChar: quoteright
Encoding: 8217 8217 183
Width: 778
Flags: W
Fore
375 1493 m 1,0,-1
 715 1493 l 1,1,-1
 659 1208 l 1,2,-1
 362 856 l 1,3,-1
 150 856 l 1,4,-1
 319 1208 l 1,5,-1
 375 1493 l 1,0,-1
EndSplineSet
EndChar
StartChar: quotesinglbase
Encoding: 8218 8218 196
Width: 778
Flags: W
Fore
156 387 m 1,0,-1
 496 387 l 1,1,-1
 440 102 l 1,2,-1
 143 -250 l 1,3,-1
 -70 -250 l 1,4,-1
 100 102 l 1,5,-1
 156 387 l 1,0,-1
EndSplineSet
KernsSLIF: 356 -452 0 0 221 -415 0 0 376 -415 0 0 89 -415 0 0 87 -225 0 0 86 -339 0 0 84 -452 0 0
EndChar
StartChar: quotedblleft
Encoding: 8220 8220 180
Width: 1319
Flags: W
Fore
1112 856 m 1,0,-1
 772 856 l 1,1,-1
 827 1141 l 1,2,-1
 1122 1493 l 1,3,-1
 1335 1493 l 1,4,-1
 1167 1141 l 1,5,-1
 1112 856 l 1,0,-1
571 856 m 1,6,-1
 231 856 l 1,7,-1
 289 1141 l 1,8,-1
 584 1493 l 1,9,-1
 797 1493 l 1,10,-1
 627 1141 l 1,11,-1
 571 856 l 1,6,-1
EndSplineSet
KernsSLIF: 221 38 0 0 193 -264 0 0 194 -264 0 0 376 38 0 0 195 -264 0 0 192 -264 0 0 198 -301 0 0 196 -264 0 0 89 38 0 0 74 -92 0 0 65 -264 0 0
EndChar
StartChar: quotedblright
Encoding: 8221 8221 181
Width: 1319
Flags: W
Fore
913 1493 m 1,0,-1
 1253 1493 l 1,1,-1
 1198 1208 l 1,2,-1
 903 856 l 1,3,-1
 690 856 l 1,4,-1
 858 1208 l 1,5,-1
 913 1493 l 1,0,-1
375 1493 m 1,6,-1
 715 1493 l 1,7,-1
 659 1208 l 1,8,-1
 362 856 l 1,9,-1
 150 856 l 1,10,-1
 319 1208 l 1,11,-1
 375 1493 l 1,6,-1
EndSplineSet
EndChar
StartChar: quotedblbase
Encoding: 8222 8222 197
Width: 1319
Flags: W
Fore
694 387 m 1,0,-1
 1034 387 l 1,1,-1
 979 102 l 1,2,-1
 684 -250 l 1,3,-1
 471 -250 l 1,4,-1
 639 102 l 1,5,-1
 694 387 l 1,0,-1
156 387 m 1,6,-1
 496 387 l 1,7,-1
 440 102 l 1,8,-1
 143 -250 l 1,9,-1
 -70 -250 l 1,10,-1
 100 102 l 1,11,-1
 156 387 l 1,6,-1
EndSplineSet
KernsSLIF: 356 -452 0 0 221 -415 0 0 376 -415 0 0 89 -415 0 0 87 -225 0 0 86 -339 0 0 84 -452 0 0
EndChar
StartChar: dagger
Encoding: 8224 8224 130
Width: 1024
Flags: W
Fore
487 1493 m 1,0,-1
 817 1493 l 1,1,-1
 743 1112 l 1,2,-1
 1032 1112 l 1,3,-1
 987 874 l 1,4,-1
 698 874 l 1,5,-1
 489 -197 l 1,6,-1
 160 -197 l 1,7,-1
 367 874 l 1,8,-1
 78 874 l 1,9,-1
 123 1112 l 1,10,-1
 414 1112 l 1,11,-1
 487 1493 l 1,0,-1
EndSplineSet
EndChar
StartChar: daggerdbl
Encoding: 8225 8225 194
Width: 1024
Flags: W
Fore
487 1493 m 1,0,-1
 817 1493 l 1,1,-1
 743 1112 l 1,2,-1
 1032 1112 l 1,3,-1
 987 874 l 1,4,-1
 696 874 l 1,5,-1
 608 422 l 1,6,-1
 899 422 l 1,7,-1
 852 184 l 1,8,-1
 563 184 l 1,9,-1
 489 -197 l 1,10,-1
 158 -197 l 1,11,-1
 231 184 l 1,12,-1
 -57 184 l 1,13,-1
 -10 422 l 1,14,-1
 279 422 l 1,15,-1
 367 874 l 1,16,-1
 78 874 l 1,17,-1
 123 1112 l 1,18,-1
 412 1112 l 1,19,-1
 487 1493 l 1,0,-1
EndSplineSet
EndChar
StartChar: bullet
Encoding: 8226 8226 135
Width: 1309
Flags: W
Fore
295 762 m 0,0,1
 295 836 295 836 321.5 901 c 128,-1,2
 348 966 348 966 399 1016 c 0,3,4
 452 1067 452 1067 517 1093.5 c 128,-1,5
 582 1120 582 1120 655 1120 c 0,6,7
 728 1120 728 1120 793.5 1093 c 128,-1,8
 859 1066 859 1066 909 1016 c 0,9,10
 961 964 961 964 987.5 899.5 c 128,-1,11
 1014 835 1014 835 1014 762 c 0,12,13
 1014 688 1014 688 987 622.5 c 128,-1,14
 960 557 960 557 909 506 c 0,15,16
 858 455 858 455 792.5 428 c 128,-1,17
 727 401 727 401 653 401 c 0,18,19
 580 401 580 401 515 428 c 128,-1,20
 450 455 450 455 399 506 c 0,21,22
 349 557 349 557 322 622.5 c 128,-1,23
 295 688 295 688 295 762 c 0,0,1
EndSplineSet
EndChar
StartChar: ellipsis
Encoding: 8230 8230 171
Width: 2048
Flags: W
Fore
805 387 m 1,0,-1
 1165 387 l 1,1,-1
 1090 0 l 1,2,-1
 729 0 l 1,3,-1
 805 387 l 1,0,-1
170 387 m 1,4,-1
 530 387 l 1,5,-1
 455 0 l 1,6,-1
 94 0 l 1,7,-1
 170 387 l 1,4,-1
1440 387 m 1,8,-1
 1800 387 l 1,9,-1
 1724 0 l 1,10,-1
 1364 0 l 1,11,-1
 1440 387 l 1,8,-1
EndSplineSet
Ligature: 0 1 'liga' period period period
EndChar
StartChar: perthousand
Encoding: 8240 8240 198
Width: 2978
Flags: W
Fore
2523 784 m 0,0,1
 2679 784 2679 784 2774 698.5 c 128,-1,2
 2869 613 2869 613 2869 473 c 0,3,4
 2869 250 2869 250 2736 110.5 c 128,-1,5
 2603 -29 2603 -29 2388 -29 c 0,6,7
 2231 -29 2231 -29 2136.5 57.5 c 128,-1,8
 2042 144 2042 144 2042 285 c 0,9,10
 2042 507 2042 507 2175.5 645.5 c 128,-1,11
 2309 784 2309 784 2523 784 c 0,0,1
2492 616 m 0,12,13
 2406 616 2406 616 2351 532 c 128,-1,14
 2296 448 2296 448 2296 315 c 0,15,16
 2296 228 2296 228 2326.5 184.5 c 128,-1,17
 2357 141 2357 141 2419 141 c 0,18,19
 2506 141 2506 141 2560.5 225 c 128,-1,20
 2615 309 2615 309 2615 444 c 0,21,22
 2615 529 2615 529 2584 572.5 c 128,-1,23
 2553 616 2553 616 2492 616 c 0,12,13
1565 616 m 0,24,25
 1479 616 1479 616 1423.5 532 c 128,-1,26
 1368 448 1368 448 1368 315 c 0,27,28
 1368 228 1368 228 1398.5 184.5 c 128,-1,29
 1429 141 1429 141 1491 141 c 0,30,31
 1578 141 1578 141 1633 225 c 128,-1,32
 1688 309 1688 309 1688 444 c 0,33,34
 1688 529 1688 529 1656.5 572.5 c 128,-1,35
 1625 616 1625 616 1565 616 c 0,24,25
1593 784 m 0,36,37
 1750 784 1750 784 1844.5 698.5 c 128,-1,38
 1939 613 1939 613 1939 473 c 0,39,40
 1939 249 1939 249 1806.5 110 c 128,-1,41
 1674 -29 1674 -29 1460 -29 c 0,42,43
 1303 -29 1303 -29 1208.5 57.5 c 128,-1,44
 1114 144 1114 144 1114 285 c 0,45,46
 1114 507 1114 507 1246.5 645.5 c 128,-1,47
 1379 784 1379 784 1593 784 c 0,36,37
532 -29 m 1,48,-1
 287 -29 l 1,49,-1
 1522 1520 l 1,50,-1
 1767 1520 l 1,51,-1
 532 -29 l 1,48,-1
594 1520 m 0,52,53
 750 1520 750 1520 845 1434 c 128,-1,54
 940 1348 940 1348 940 1208 c 0,55,56
 940 985 940 985 806.5 846 c 128,-1,57
 673 707 673 707 459 707 c 0,58,59
 302 707 302 707 207.5 792 c 128,-1,60
 113 877 113 877 113 1018 c 0,61,62
 113 1240 113 1240 246.5 1380 c 128,-1,63
 380 1520 380 1520 594 1520 c 0,52,53
563 1352 m 0,64,65
 477 1352 477 1352 422 1267.5 c 128,-1,66
 367 1183 367 1183 367 1051 c 0,67,68
 367 963 367 963 397.5 918.5 c 128,-1,69
 428 874 428 874 489 874 c 0,70,71
 576 874 576 874 631 959 c 128,-1,72
 686 1044 686 1044 686 1180 c 0,73,74
 686 1264 686 1264 654.5 1308 c 128,-1,75
 623 1352 623 1352 563 1352 c 0,64,65
EndSplineSet
EndChar
StartChar: guilsinglleft
Encoding: 8249 8249 190
Width: 844
Flags: W
Fore
727 1063 m 1,0,-1
 678 811 l 1,1,-1
 332 582 l 1,2,-1
 590 360 l 1,3,-1
 547 137 l 1,4,-1
 125 506 l 1,5,-1
 162 692 l 1,6,-1
 727 1063 l 1,0,-1
EndSplineSet
EndChar
StartChar: guilsinglright
Encoding: 8250 8250 191
Width: 844
Flags: W
Fore
78 135 m 1,0,-1
 127 389 l 1,1,-1
 471 618 l 1,2,-1
 215 840 l 1,3,-1
 258 1063 l 1,4,-1
 678 692 l 1,5,-1
 643 506 l 1,6,-1
 78 135 l 1,0,-1
EndSplineSet
EndChar
StartChar: Euro
Encoding: 8364 8364 258
Width: 1425
Flags: W
Fore
1190 70 m 1,0,1
 1066 21 1066 21 951.5 -4 c 128,-1,2
 837 -29 837 -29 735 -29 c 0,3,4
 489 -29 489 -29 335.5 103 c 128,-1,5
 182 235 182 235 145 477 c 1,6,-1
 -84 477 l 1,7,-1
 4 672 l 1,8,-1
 143 672 l 1,9,10
 145 704 145 704 150.5 739 c 128,-1,11
 156 774 156 774 168 821 c 1,12,-1
 -8 821 l 1,13,-1
 78 1016 l 1,14,-1
 233 1016 l 1,15,16
 331 1247 331 1247 534 1383.5 c 128,-1,17
 737 1520 737 1520 983 1520 c 0,18,19
 1088 1520 1088 1520 1193.5 1492.5 c 128,-1,20
 1299 1465 1299 1465 1407 1409 c 1,21,-1
 1352 1100 l 1,22,23
 1270 1181 1270 1181 1184.5 1219 c 128,-1,24
 1099 1257 1099 1257 997 1257 c 0,25,26
 885 1257 885 1257 789 1195 c 128,-1,27
 693 1133 693 1133 625 1016 c 1,28,-1
 1122 1016 l 1,29,-1
 1036 821 l 1,30,-1
 553 821 l 1,31,32
 546 787 546 787 541 751 c 128,-1,33
 536 715 536 715 533 672 c 1,34,-1
 971 672 l 1,35,-1
 883 477 l 1,36,-1
 545 477 l 1,37,38
 569 358 569 358 646.5 295.5 c 128,-1,39
 724 233 724 233 846 233 c 0,40,41
 938 233 938 233 1041.5 276.5 c 128,-1,42
 1145 320 1145 320 1249 401 c 1,43,-1
 1190 70 l 1,0,1
EndSplineSet
EndChar
StartChar: trademark
Encoding: 8482 8482 140
Width: 2048
Flags: W
Fore
1153 1493 m 1,0,-1
 1272 1266 l 1,1,-1
 1391 1493 l 1,2,-1
 1618 1493 l 1,3,-1
 1618 915 l 1,4,-1
 1448 915 l 1,5,-1
 1448 1352 l 1,6,-1
 1311 1096 l 1,7,-1
 1235 1096 l 1,8,-1
 1098 1352 l 1,9,-1
 1098 915 l 1,10,-1
 926 915 l 1,11,-1
 926 1493 l 1,12,-1
 1153 1493 l 1,0,-1
813 1493 m 1,13,-1
 813 1350 l 1,14,-1
 639 1350 l 1,15,-1
 639 915 l 1,16,-1
 467 915 l 1,17,-1
 467 1350 l 1,18,-1
 295 1350 l 1,19,-1
 295 1493 l 1,20,-1
 813 1493 l 1,13,-1
EndSplineSet
Ligature: 0 1 'liga' T M
EndChar
StartChar: partialdiff
Encoding: 8706 8706 152
Width: 1114
Flags: W
Fore
766 684 m 1,0,1
 787 797 787 797 798 890 c 128,-1,2
 809 983 809 983 809 1040 c 0,3,4
 809 1127 809 1127 779.5 1188 c 128,-1,5
 750 1249 750 1249 711 1249 c 0,6,7
 676 1249 676 1249 579 1156 c 128,-1,8
 482 1063 482 1063 399 1063 c 0,9,10
 351 1063 351 1063 319 1096.5 c 128,-1,11
 287 1130 287 1130 287 1180 c 0,12,13
 287 1249 287 1249 380 1305.5 c 128,-1,14
 473 1362 473 1362 600 1362 c 0,15,16
 810 1362 810 1362 932.5 1201 c 128,-1,17
 1055 1040 1055 1040 1055 760 c 0,18,19
 1055 416 1055 416 892.5 195.5 c 128,-1,20
 730 -25 730 -25 475 -25 c 0,21,22
 293 -25 293 -25 176 91.5 c 128,-1,23
 59 208 59 208 59 391 c 0,24,25
 59 594 59 594 178.5 727 c 128,-1,26
 298 860 298 860 477 860 c 0,27,28
 578 860 578 860 647.5 817.5 c 128,-1,29
 717 775 717 775 766 684 c 1,0,1
698 532 m 0,30,31
 698 646 698 646 661.5 708 c 128,-1,32
 625 770 625 770 557 770 c 0,33,34
 461 770 461 770 396.5 633.5 c 128,-1,35
 332 497 332 497 332 287 c 0,36,37
 332 171 332 171 368.5 111 c 128,-1,38
 405 51 405 51 475 51 c 0,39,40
 572 51 572 51 635 186.5 c 128,-1,41
 698 322 698 322 698 532 c 0,30,31
EndSplineSet
EndChar
StartChar: Delta
Encoding: 8710 8710 168
Width: 1427
Flags: W
Fore
713 1110 m 1,0,-1
 387 256 l 1,1,-1
 1040 256 l 1,2,-1
 713 1110 l 1,0,-1
563 1473 m 1,3,-1
 864 1473 l 1,4,-1
 1427 0 l 1,5,-1
 0 0 l 1,6,-1
 563 1473 l 1,3,-1
EndSplineSet
EndChar
StartChar: product
Encoding: 8719 8719 154
Width: 1612
Flags: W
Fore
150 1473 m 1,0,-1
 1458 1473 l 1,1,-1
 1458 -393 l 1,2,-1
 1114 -393 l 1,3,-1
 1114 1184 l 1,4,-1
 494 1184 l 1,5,-1
 494 -393 l 1,6,-1
 150 -393 l 1,7,-1
 150 1473 l 1,0,-1
EndSplineSet
EndChar
StartChar: summation
Encoding: 8721 8721 153
Width: 1470
Flags: W
Fore
66 1473 m 1,0,-1
 1374 1473 l 1,1,-1
 1374 1208 l 1,2,-1
 496 1208 l 1,3,-1
 1116 563 l 1,4,-1
 494 -127 l 1,5,-1
 1427 -127 l 1,6,-1
 1427 -393 l 1,7,-1
 41 -393 l 1,8,-1
 41 -221 l 1,9,-1
 739 551 l 1,10,-1
 66 1241 l 1,11,-1
 66 1473 l 1,0,-1
EndSplineSet
EndChar
StartChar: minus
Encoding: 8722 8722 238
Width: 1716
Flags: W
Fore
217 760 m 1,0,-1
 1499 760 l 1,1,-1
 1499 524 l 1,2,-1
 217 524 l 1,3,-1
 217 760 l 1,0,-1
EndSplineSet
EndChar
StartChar: fraction
Encoding: 8725 8725 188
Width: 342
Flags: W
Fore
-324 -29 m 1,0,-1
 -569 -29 l 1,1,-1
 666 1520 l 1,2,-1
 911 1520 l 1,3,-1
 -324 -29 l 1,0,-1
EndSplineSet
EndChar
StartChar: periodcentered
Encoding: 8729 8729 257
Width: 778
Flags: W
Fore
248 905 m 1,0,-1
 608 905 l 1,1,-1
 532 518 l 1,2,-1
 172 518 l 1,3,-1
 248 905 l 1,0,-1
EndSplineSet
EndChar
StartChar: radical
Encoding: 8730 8730 165
Width: 1366
Flags: W
Fore
1155 1714 m 1,0,-1
 1370 1714 l 1,1,-1
 1370 1565 l 1,2,-1
 1274 1565 l 1,3,-1
 684 -41 l 1,4,-1
 565 -41 l 1,5,-1
 258 805 l 1,6,-1
 113 750 l 1,7,-1
 76 879 l 1,8,-1
 436 1006 l 1,9,-1
 659 371 l 1,10,-1
 1155 1714 l 1,0,-1
EndSplineSet
EndChar
StartChar: infinity
Encoding: 8734 8734 146
Width: 1706
Flags: W
Fore
956 561 m 1,0,1
 999 494 999 494 1058 460 c 128,-1,2
 1117 426 1117 426 1190 426 c 0,3,4
 1280 426 1280 426 1336.5 476.5 c 128,-1,5
 1393 527 1393 527 1393 606 c 0,6,7
 1393 683 1393 683 1341.5 733.5 c 128,-1,8
 1290 784 1290 784 1214 784 c 0,9,10
 1142 784 1142 784 1082.5 733.5 c 128,-1,11
 1023 683 1023 683 956 561 c 1,0,1
752 657 m 1,12,13
 709 724 709 724 651 757.5 c 128,-1,14
 593 791 593 791 518 791 c 0,15,16
 428 791 428 791 371.5 741 c 128,-1,17
 315 691 315 691 315 612 c 0,18,19
 315 535 315 535 366 484.5 c 128,-1,20
 417 434 417 434 494 434 c 0,21,22
 565 434 565 434 626 486.5 c 128,-1,23
 687 539 687 539 752 657 c 1,12,13
856 442 m 1,24,25
 788 312 788 312 708.5 249 c 128,-1,26
 629 186 629 186 532 186 c 0,27,28
 393 186 393 186 294 307.5 c 128,-1,29
 195 429 195 429 195 608 c 0,30,31
 195 796 195 796 282.5 913 c 128,-1,32
 370 1030 370 1030 510 1030 c 0,33,34
 600 1030 600 1030 676.5 973.5 c 128,-1,35
 753 917 753 917 852 774 c 1,36,37
 923 906 923 906 1002 969 c 128,-1,38
 1081 1032 1081 1032 1176 1032 c 0,39,40
 1316 1032 1316 1032 1414.5 911 c 128,-1,41
 1513 790 1513 790 1513 610 c 0,42,43
 1513 421 1513 421 1425.5 303.5 c 128,-1,44
 1338 186 1338 186 1198 186 c 0,45,46
 1107 186 1107 186 1032 241 c 128,-1,47
 957 296 957 296 856 442 c 1,24,25
EndSplineSet
EndChar
StartChar: integral
Encoding: 8747 8747 156
Width: 1249
Flags: W
Fore
362 -248 m 0,0,1
 461 -248 461 -248 481 419 c 0,2,3
 484 520 484 520 485 573 c 0,4,5
 502 1096 502 1096 615.5 1326 c 128,-1,6
 729 1556 729 1556 965 1556 c 0,7,8
 1070 1556 1070 1556 1135 1503 c 128,-1,9
 1200 1450 1200 1450 1200 1366 c 0,10,11
 1200 1302 1200 1302 1159 1262.5 c 128,-1,12
 1118 1223 1118 1223 1053 1223 c 0,13,14
 989 1223 989 1223 956.5 1261.5 c 128,-1,15
 924 1300 924 1300 924 1374 c 0,16,17
 924 1412 924 1412 916.5 1423 c 128,-1,18
 909 1434 909 1434 891 1434 c 0,19,20
 790 1434 790 1434 767 767 c 0,21,22
 765 707 765 707 764 676 c 0,23,24
 753 347 753 347 733.5 203.5 c 128,-1,25
 714 60 714 60 676 -41 c 0,26,27
 614 -207 614 -207 516.5 -290 c 128,-1,28
 419 -373 419 -373 287 -373 c 0,29,30
 180 -373 180 -373 115.5 -321 c 128,-1,31
 51 -269 51 -269 51 -182 c 0,32,33
 51 -117 51 -117 93 -78 c 128,-1,34
 135 -39 135 -39 205 -39 c 0,35,36
 265 -39 265 -39 297.5 -75 c 128,-1,37
 330 -111 330 -111 330 -178 c 0,38,39
 330 -190 330 -190 328 -202 c 0,40,41
 328 -204 328 -204 328 -205 c 0,42,43
 328 -229 328 -229 336 -238.5 c 128,-1,44
 344 -248 344 -248 362 -248 c 0,0,1
EndSplineSet
EndChar
StartChar: approxequal
Encoding: 8776 8776 167
Width: 1716
Flags: W
Fore
1499 1059 m 1,0,-1
 1499 815 l 1,1,2
 1393 735 1393 735 1303.5 700.5 c 128,-1,3
 1214 666 1214 666 1118 666 c 0,4,5
 1011 666 1011 666 868 724 c 0,6,7
 854 730 854 730 846 733 c 0,8,9
 839 736 839 736 824 742 c 0,10,11
 669 803 669 803 575 803 c 0,12,13
 487 803 487 803 401 764.5 c 128,-1,14
 315 726 315 726 217 643 c 1,15,-1
 217 887 l 1,16,17
 322 965 322 965 411.5 999.5 c 128,-1,18
 501 1034 501 1034 598 1034 c 0,19,20
 708 1034 708 1034 855 975 c 0,21,22
 865 971 865 971 870 969 c 0,23,24
 878 966 878 966 892 960 c 0,25,26
 1047 899 1047 899 1141 899 c 0,27,28
 1227 899 1227 899 1311.5 936.5 c 128,-1,29
 1396 974 1396 974 1499 1059 c 1,0,-1
1499 641 m 1,30,-1
 1499 397 l 1,31,32
 1393 317 1393 317 1303.5 282.5 c 128,-1,33
 1214 248 1214 248 1118 248 c 0,34,35
 1011 248 1011 248 868 306 c 0,36,37
 854 312 854 312 845 316 c 0,38,39
 839 318 839 318 824 324 c 0,40,41
 669 385 669 385 575 385 c 0,42,43
 487 385 487 385 401 347 c 128,-1,44
 315 309 315 309 217 225 c 1,45,-1
 217 469 l 1,46,47
 324 549 324 549 413 583.5 c 128,-1,48
 502 618 502 618 598 618 c 0,49,50
 705 618 705 618 848 560 c 0,51,52
 863 554 863 554 870 551 c 0,53,54
 878 548 878 548 892 543 c 0,55,56
 1047 481 1047 481 1141 481 c 0,57,58
 1227 481 1227 481 1311.5 518.5 c 128,-1,59
 1396 556 1396 556 1499 641 c 1,30,-1
EndSplineSet
EndChar
StartChar: notequal
Encoding: 8800 8800 143
Width: 1716
Flags: W
Fore
217 987 m 1,0,-1
 1008 987 l 1,1,-1
 1260 1292 l 1,2,-1
 1409 1167 l 1,3,-1
 1264 987 l 1,4,-1
 1499 987 l 1,5,-1
 1499 752 l 1,6,-1
 1081 752 l 1,7,-1
 907 532 l 1,8,-1
 1499 532 l 1,9,-1
 1499 295 l 1,10,-1
 709 295 l 1,11,-1
 457 -10 l 1,12,-1
 307 117 l 1,13,-1
 453 295 l 1,14,-1
 217 295 l 1,15,-1
 217 532 l 1,16,-1
 641 532 l 1,17,-1
 817 752 l 1,18,-1
 217 752 l 1,19,-1
 217 987 l 1,0,-1
EndSplineSet
Ligature: 0 1 'liga' equal uni0338
EndChar
StartChar: lessequal
Encoding: 8804 8804 148
Width: 1716
Flags: W
Fore
1499 238 m 1,0,-1
 1499 0 l 1,1,-1
 217 0 l 1,2,-1
 217 238 l 1,3,-1
 1499 238 l 1,0,-1
1499 948 m 1,4,-1
 602 739 l 1,5,-1
 1499 530 l 1,6,-1
 1499 287 l 1,7,-1
 217 623 l 1,8,-1
 217 858 l 1,9,-1
 1499 1192 l 1,10,-1
 1499 948 l 1,4,-1
EndSplineSet
EndChar
StartChar: greaterequal
Encoding: 8805 8805 149
Width: 1716
Flags: W
Fore
217 238 m 1,0,-1
 1499 238 l 1,1,-1
 1499 0 l 1,2,-1
 217 0 l 1,3,-1
 217 238 l 1,0,-1
217 948 m 1,4,-1
 217 1192 l 1,5,-1
 1499 858 l 1,6,-1
 1499 623 l 1,7,-1
 217 287 l 1,8,-1
 217 530 l 1,9,-1
 1114 739 l 1,10,-1
 217 948 l 1,4,-1
EndSplineSet
EndChar
StartChar: uni2423
Encoding: 9251 9251 150
Width: 1466
Flags: HMW
HStem: -466 237<325.788 1057.79>
Fore
325.788 -229 m 1,0,-1
 1057.79 -229 l 1,1,-1
 1141.56 202 l 1,2,-1
 1376.56 202 l 1,3,-1
 1246.72 -466 l 1,4,-1
 44.7188 -466 l 1,5,-1
 174.564 202 l 1,6,-1
 409.564 202 l 1,7,-1
 325.788 -229 l 1,0,-1
EndSplineSet
EndChar
StartChar: lozenge
Encoding: 9674 9674 185
Width: 1012
Flags: W
Fore
506 1409 m 1,0,-1
 121 592 l 1,1,-1
 506 -233 l 1,2,-1
 891 592 l 1,3,-1
 506 1409 l 1,0,-1
506 1653 m 1,4,-1
 1006 592 l 1,5,-1
 506 -477 l 1,6,-1
 6 592 l 1,7,-1
 506 1653 l 1,4,-1
EndSplineSet
EndChar
StartChar: fi
Encoding: 64257 64257 192
Width: 1612
Flags: W
Fore
1274 1556 m 1,0,-1
 1634 1556 l 1,1,-1
 1577 1264 l 1,2,-1
 1217 1264 l 1,3,-1
 1274 1556 l 1,0,-1
1190 1120 m 1,4,-1
 1550 1120 l 1,5,-1
 1331 0 l 1,6,-1
 973 0 l 1,7,-1
 1190 1120 l 1,4,-1
1106 1556 m 1,8,-1
 1059 1321 l 1,9,-1
 862 1321 l 2,10,11
 787 1321 787 1321 752.5 1293.5 c 128,-1,12
 718 1266 718 1266 705 1199 c 1,13,-1
 688 1120 l 1,14,-1
 991 1120 l 1,15,-1
 942 864 l 1,16,-1
 639 864 l 1,17,-1
 471 0 l 1,18,-1
 111 0 l 1,19,-1
 279 864 l 1,20,-1
 102 864 l 1,21,-1
 152 1120 l 1,22,-1
 328 1120 l 1,23,-1
 344 1198 l 1,24,25
 381 1384 381 1384 498 1470 c 128,-1,26
 615 1556 615 1556 831 1556 c 2,27,-1
 1106 1556 l 1,8,-1
EndSplineSet
Ligature: 0 0 'liga' f i
EndChar
StartChar: fl
Encoding: 64258 64258 193
Width: 1612
Flags: W
Fore
831 1556 m 2,0,-1
 1634 1556 l 1,1,-1
 1331 0 l 1,2,-1
 973 0 l 1,3,-1
 1227 1321 l 1,4,-1
 862 1321 l 2,5,6
 787 1321 787 1321 752.5 1293.5 c 128,-1,7
 718 1266 718 1266 705 1199 c 1,8,-1
 688 1120 l 1,9,-1
 991 1120 l 1,10,-1
 942 864 l 1,11,-1
 639 864 l 1,12,-1
 471 0 l 1,13,-1
 111 0 l 1,14,-1
 279 864 l 1,15,-1
 102 864 l 1,16,-1
 152 1120 l 1,17,-1
 328 1120 l 1,18,-1
 344 1198 l 1,19,20
 381 1384 381 1384 498 1470 c 128,-1,21
 615 1556 615 1556 831 1556 c 2,0,-1
EndSplineSet
Ligature: 0 0 'liga' f l
EndChar
StartChar: dlLtcaron
Encoding: 65537 -1 194
Width: 1024
Flags: HW
Fore
588 1638 m 1,0,-1
 881 1638 l 1,1,-1
 666 1262 l 1,2,-1
 465 1262 l 1,3,-1
 588 1638 l 1,0,-1
EndSplineSet
EndChar
StartChar: Dieresis
Encoding: 65538 -1 259
Width: 1024
Flags: W
Fore
346 1526 m 1,0,-1
 582 1526 l 1,1,-1
 535 1280 l 1,2,-1
 299 1280 l 1,3,-1
 346 1526 l 1,0,-1
741 1526 m 1,4,-1
 979 1526 l 1,5,-1
 930 1280 l 1,6,-1
 694 1280 l 1,7,-1
 741 1526 l 1,4,-1
EndSplineSet
EndChar
StartChar: Acute
Encoding: 65539 -1 260
Width: 1024
Flags: HW
Fore
711 1526 m 1,0,-1
 991 1526 l 1,1,-1
 672 1262 l 1,2,-1
 465 1262 l 1,3,-1
 711 1526 l 1,0,-1
EndSplineSet
EndChar
StartChar: Tilde
Encoding: 65540 -1 261
Width: 1024
Flags: W
Fore
618 1313 m 2,0,-1
 569 1350 l 2,1,2
 545 1369 545 1369 528.5 1375.5 c 128,-1,3
 512 1382 512 1382 494 1382 c 0,4,5
 458 1382 458 1382 432 1350 c 128,-1,6
 406 1318 406 1318 395 1262 c 1,7,-1
 258 1262 l 1,8,9
 284 1390 284 1390 349.5 1459 c 128,-1,10
 415 1528 415 1528 510 1528 c 0,11,12
 547 1528 547 1528 579.5 1516 c 128,-1,13
 612 1504 612 1504 647 1477 c 2,14,-1
 700 1436 l 2,15,16
 716 1423 716 1423 734 1416 c 128,-1,17
 752 1409 752 1409 768 1409 c 0,18,19
 807 1409 807 1409 833.5 1439.5 c 128,-1,20
 860 1470 860 1470 870 1528 c 1,21,-1
 1008 1528 l 1,22,23
 982 1400 982 1400 916.5 1331 c 128,-1,24
 851 1262 851 1262 758 1262 c 0,25,26
 720 1262 720 1262 688 1273 c 128,-1,27
 656 1284 656 1284 618 1313 c 2,0,-1
EndSplineSet
EndChar
StartChar: Grave
Encoding: 65541 -1 262
Width: 1024
Flags: W
Fore
616 1526 m 1,0,-1
 760 1262 l 1,1,-1
 582 1262 l 1,2,-1
 352 1526 l 1,3,-1
 616 1526 l 1,0,-1
EndSplineSet
EndChar
StartChar: Circumflex
Encoding: 65542 -1 263
Width: 1024
Flags: W
Fore
475 1526 m 1,0,-1
 823 1526 l 1,1,-1
 975 1262 l 1,2,-1
 805 1262 l 1,3,-1
 641 1423 l 1,4,-1
 410 1262 l 1,5,-1
 231 1262 l 1,6,-1
 475 1526 l 1,0,-1
EndSplineSet
EndChar
StartChar: Caron
Encoding: 65543 -1 264
Width: 1024
Flags: W
Fore
793 1262 m 1,0,-1
 444 1262 l 1,1,-1
 307 1526 l 1,2,-1
 479 1526 l 1,3,-1
 627 1364 l 1,4,-1
 858 1526 l 1,5,-1
 1036 1526 l 1,6,-1
 793 1262 l 1,0,-1
EndSplineSet
EndChar
